<?xml version="1.0" encoding="utf-8"?><svg viewBox="0 0 25 24" xmlns="http://www.w3.org/2000/svg" xmlns:xlink="http://www.w3.org/1999/xlink"><style>:root>svg{display:none}:root>svg:target{display:block}</style><svg fill="none" viewBox="0 0 20 20" id="arrow" xmlns="http://www.w3.org/2000/svg"><path d="M5 10h10.417m0 0-5-5m5 5-5 5"/></svg><svg fill="none" viewBox="0 0 6 9" id="arrow2" xmlns="http://www.w3.org/2000/svg"><path d="m1 8.5 4-4-4-4" stroke="#161616" stroke-opacity=".7" stroke-width="1.1" stroke-linecap="round" stroke-linejoin="round"/></svg><svg viewBox="0 0 448 512" id="check" xmlns="http://www.w3.org/2000/svg"><!--!Font Awesome Free 6.5.1 by @fontawesome - https://fontawesome.com License - https://fontawesome.com/license/free Copyright 2023 Fonticons, Inc.--><path fill="#fff" d="M438.6 105.4c12.5 12.5 12.5 32.8 0 45.3l-256 256c-12.5 12.5-32.8 12.5-45.3 0l-128-128c-12.5-12.5-12.5-32.8 0-45.3s32.8-12.5 45.3 0L160 338.7l233.4-233.3c12.5-12.5 32.8-12.5 45.3 0z"/></svg><svg fill="none" viewBox="0 0 20 20" id="facebook" xmlns="http://www.w3.org/2000/svg"><path d="M13.75 5h-2.5a.833.833 0 0 0-.833.833v2.5h3.333a.292.292 0 0 1 .283.384l-.616 1.833a.417.417 0 0 1-.392.283h-2.608v6.25c0 .23-.187.417-.417.417H7.917a.417.417 0 0 1-.417-.417v-6.25H6.25a.417.417 0 0 1-.417-.416V8.75c0-.23.187-.417.417-.417H7.5v-2.5A3.333 3.333 0 0 1 10.833 2.5h2.917c.23 0 .417.187.417.417v1.666c0 .23-.187.417-.417.417Z" fill="#fff"/></svg><svg fill="none" viewBox="0 0 20 20" id="linkedin" xmlns="http://www.w3.org/2000/svg"><path d="M4.153 5.997a1.823 1.823 0 1 0 0-3.646 1.823 1.823 0 0 0 0 3.646ZM7.698 7.379v10.116h3.141v-5.003c0-1.32.249-2.598 1.885-2.598 1.614 0 1.634 1.51 1.634 2.682v4.92h3.143v-5.548c0-2.725-.587-4.82-3.772-4.82-1.529 0-2.554.84-2.973 1.634h-.043V7.38H7.698Zm-5.118 0h3.146v10.116H2.58V7.379Z" fill="#fff"/></svg><svg fill="none" viewBox="0 0 20 20" id="location" xmlns="http://www.w3.org/2000/svg"><path d="M10 1.667A5.83 5.83 0 0 0 4.167 7.5C4.167 11.875 10 18.333 10 18.333s5.834-6.458 5.834-10.833A5.83 5.83 0 0 0 10 1.667Zm0 7.916a2.083 2.083 0 1 1 0-4.166 2.083 2.083 0 0 1 0 4.166Z" fill="#76FB92"/></svg><svg fill="none" viewBox="0 0 20 20" id="mail" xmlns="http://www.w3.org/2000/svg"><path d="M15.333 4.583H4.666c-.733 0-1.326.6-1.326 1.334l-.007 8c0 .733.6 1.333 1.333 1.333h10.667c.733 0 1.333-.6 1.333-1.333v-8c0-.733-.6-1.333-1.333-1.333Zm0 2.667L10 10.584 4.666 7.25V5.917L10 9.25l5.333-3.333V7.25Z" fill="#76FB92"/></svg><svg viewBox="0 0 25 24" id="phone" xmlns="http://www.w3.org/2000/svg"><path d="m15.749 16.111 1.68-1.68a1.626 1.626 0 0 1 1.753-.36l2.046.82a1.626 1.626 0 0 1 1.021 1.508v3.721a1.626 1.626 0 0 1-1.713 1.627C6.195 20.855 3.298 8.707 2.761 4.056A1.622 1.622 0 0 1 4.376 2.25h3.655A1.625 1.625 0 0 1 9.54 3.272l.818 2.046a1.626 1.626 0 0 1-.36 1.752l-1.68 1.68s.932 6.55 7.431 7.361Z"/><path d="M15.5 3v1.5h3.44L14 9.44l1.06 1.06L20 5.56V9h1.5V3h-6Z"/></svg><svg fill="none" viewBox="0 0 20 20" id="phone2" xmlns="http://www.w3.org/2000/svg"><path d="M6.513 8.8a9.819 9.819 0 0 0 4.272 4.27l1.425-1.426a.644.644 0 0 1 .662-.155c.726.24 1.51.37 2.313.37a.65.65 0 0 1 .649.648v2.261a.65.65 0 0 1-.649.649c-6.086 0-11.018-4.933-11.018-11.019a.65.65 0 0 1 .648-.648h2.269a.65.65 0 0 1 .648.648c0 .81.13 1.588.37 2.314a.65.65 0 0 1-.163.661L6.513 8.8Z" fill="#76FB92"/></svg><svg fill="none" viewBox="0 0 24 24" id="play" xmlns="http://www.w3.org/2000/svg"><path d="M8 5v14l11-7L8 5Z" fill="#183F37"/></svg><svg fill="none" viewBox="0 0 20 20" id="share" xmlns="http://www.w3.org/2000/svg"><path d="M7.055 9.41c.944-.943 2.59-.943 3.535 0l.59.59 1.177-1.178-.589-.59a4.137 4.137 0 0 0-2.946-1.22c-1.113 0-2.16.434-2.945 1.22L4.108 10a4.173 4.173 0 0 0 0 5.893 4.153 4.153 0 0 0 2.946 1.218 4.152 4.152 0 0 0 2.947-1.218l.589-.59-1.178-1.178-.59.59a2.506 2.506 0 0 1-3.535 0 2.504 2.504 0 0 1 0-3.537l1.768-1.767Z" fill="#fff"/><path d="m10 4.107-.59.59 1.178 1.178.59-.59a2.506 2.506 0 0 1 3.535 0 2.504 2.504 0 0 1 0 3.537l-1.768 1.767c-.944.944-2.59.944-3.535 0L8.82 10l-1.177 1.18.589.588a4.138 4.138 0 0 0 2.946 1.221c1.113 0 2.16-.434 2.945-1.22L15.892 10a4.173 4.173 0 0 0 0-5.893 4.172 4.172 0 0 0-5.893 0Z" fill="#fff"/></svg></svg>