<?xml version="1.0" encoding="utf-8"?><svg viewBox="0 0 25 24" xmlns="http://www.w3.org/2000/svg" xmlns:xlink="http://www.w3.org/1999/xlink"><style>:root>svg{display:none}:root>svg:target{display:block}</style><svg fill="none" viewBox="0 0 20 20" id="arrow" xmlns="http://www.w3.org/2000/svg"><path d="M5 10h10.417m0 0-5-5m5 5-5 5"/></svg><svg fill="none" viewBox="0 0 6 9" id="arrow2" xmlns="http://www.w3.org/2000/svg"><path d="m1 8.5 4-4-4-4" stroke="#161616" stroke-opacity=".7" stroke-width="1.1" stroke-linecap="round" stroke-linejoin="round"/></svg><svg viewBox="0 0 448 512" id="check" xmlns="http://www.w3.org/2000/svg"><!--!Font Awesome Free 6.5.1 by @fontawesome - https://fontawesome.com License - https://fontawesome.com/license/free Copyright 2023 Fonticons, Inc.--><path fill="#fff" d="M438.6 105.4c12.5 12.5 12.5 32.8 0 45.3l-256 256c-12.5 12.5-32.8 12.5-45.3 0l-128-128c-12.5-12.5-12.5-32.8 0-45.3s32.8-12.5 45.3 0L160 338.7l233.4-233.3c12.5-12.5 32.8-12.5 45.3 0z"/></svg><svg fill="none" viewBox="0 0 20 20" id="location" xmlns="http://www.w3.org/2000/svg"><path d="M10 1.667A5.83 5.83 0 0 0 4.167 7.5C4.167 11.875 10 18.333 10 18.333s5.834-6.458 5.834-10.833A5.83 5.83 0 0 0 10 1.667Zm0 7.916a2.083 2.083 0 1 1 0-4.166 2.083 2.083 0 0 1 0 4.166Z" fill="#76FB92"/></svg><svg fill="none" viewBox="0 0 20 20" id="mail" xmlns="http://www.w3.org/2000/svg"><path d="M15.333 4.583H4.666c-.733 0-1.326.6-1.326 1.334l-.007 8c0 .733.6 1.333 1.333 1.333h10.667c.733 0 1.333-.6 1.333-1.333v-8c0-.733-.6-1.333-1.333-1.333Zm0 2.667L10 10.584 4.666 7.25V5.917L10 9.25l5.333-3.333V7.25Z" fill="#76FB92"/></svg><svg viewBox="0 0 25 24" id="phone" xmlns="http://www.w3.org/2000/svg"><path d="m15.749 16.111 1.68-1.68a1.626 1.626 0 0 1 1.753-.36l2.046.82a1.626 1.626 0 0 1 1.021 1.508v3.721a1.626 1.626 0 0 1-1.713 1.627C6.195 20.855 3.298 8.707 2.761 4.056A1.622 1.622 0 0 1 4.376 2.25h3.655A1.625 1.625 0 0 1 9.54 3.272l.818 2.046a1.626 1.626 0 0 1-.36 1.752l-1.68 1.68s.932 6.55 7.431 7.361Z"/><path d="M15.5 3v1.5h3.44L14 9.44l1.06 1.06L20 5.56V9h1.5V3h-6Z"/></svg><svg fill="none" viewBox="0 0 20 20" id="phone2" xmlns="http://www.w3.org/2000/svg"><path d="M6.513 8.8a9.819 9.819 0 0 0 4.272 4.27l1.425-1.426a.644.644 0 0 1 .662-.155c.726.24 1.51.37 2.313.37a.65.65 0 0 1 .649.648v2.261a.65.65 0 0 1-.649.649c-6.086 0-11.018-4.933-11.018-11.019a.65.65 0 0 1 .648-.648h2.269a.65.65 0 0 1 .648.648c0 .81.13 1.588.37 2.314a.65.65 0 0 1-.163.661L6.513 8.8Z" fill="#76FB92"/></svg><svg fill="none" viewBox="0 0 24 24" id="play" xmlns="http://www.w3.org/2000/svg"><path d="M8 5v14l11-7L8 5Z" fill="#183F37"/></svg></svg>