<svg width="47" height="47" viewBox="0 0 47 47" fill="none" xmlns="http://www.w3.org/2000/svg">
<path d="M39.6208 13.2777H41.9755H42.8633C43.6583 13.2777 44.3028 13.9223 44.3028 14.7173V41.3952C44.3028 42.1903 43.6583 42.8348 42.8633 42.8348H6.51855C3.73582 42.8348 1.47998 40.579 1.47998 37.7962V9.28639C1.47998 6.4779 3.75671 4.20117 6.56519 4.20117V4.20117C6.71301 4.20117 6.83284 4.321 6.83284 4.46881V33.7582M10.1188 13.2777H6.83284" stroke="white" stroke-width="0.503857" stroke-linecap="round"/>
<path d="M6.70147 33.938C6.83502 33.977 6.97493 33.9004 7.01397 33.7669C7.05301 33.6333 6.97639 33.4934 6.84285 33.4544L6.70147 33.938ZM1.73191 37.6618C1.73191 35.5194 3.46864 33.7827 5.611 33.7827V33.2788C3.19036 33.2788 1.22805 35.2411 1.22805 37.6618H1.73191ZM5.611 33.7827C5.98998 33.7827 6.35585 33.837 6.70147 33.938L6.84285 33.4544C6.45177 33.3401 6.03832 33.2788 5.611 33.2788V33.7827Z" fill="white"/>
<path d="M39.6714 23.5017L36.8779 8.78233C36.8163 8.45724 36.5267 8.22119 36.1889 8.22119H13.6791C13.3419 8.22119 13.0516 8.45724 12.99 8.78233L10.1966 23.5017C10.1581 23.7031 10.213 23.9086 10.3466 24.0664C10.4801 24.2242 10.6765 24.3144 10.8856 24.3144H23.2814V35.2506H21.7515C21.6496 35.2506 21.549 35.2834 21.4679 35.3438L19.6026 36.7278C19.4861 36.8145 19.416 36.9519 19.416 37.0948V38.6342C19.416 38.7495 19.5117 38.8433 19.6294 38.8433H30.2379C30.3556 38.8433 30.4514 38.7495 30.4514 38.6342V37.0948C30.4514 36.9513 30.3818 36.8139 30.2648 36.7278L28.3994 35.3438C28.3183 35.2834 28.2177 35.2506 28.1159 35.2506H26.5865V25.1899C26.5865 25.0745 26.4908 24.9807 26.3731 24.9807C26.2554 24.9807 26.1597 25.0745 26.1597 25.1899V35.2506H23.7083V24.3138H38.9829C39.1921 24.3138 39.3884 24.2236 39.522 24.0658C39.6555 23.908 39.7098 23.7031 39.6714 23.5017ZM28.1421 35.6773L30.0074 37.0613C30.0178 37.0691 30.0245 37.0816 30.0245 37.0948V38.425H28.5689C28.8464 38.1764 28.9415 37.7497 28.7135 37.3941L27.6073 35.6689H28.1165C28.1256 35.6683 28.1348 35.6713 28.1421 35.6773ZM39.1933 23.7987C39.1409 23.8602 39.0646 23.8955 38.9829 23.8955H10.885C10.8033 23.8955 10.7265 23.8602 10.6746 23.7987C10.6228 23.7371 10.6009 23.657 10.6161 23.5782L13.4102 8.85882C13.4339 8.73213 13.5474 8.63951 13.6791 8.63951H36.1889C36.3206 8.63951 36.434 8.73154 36.4578 8.85882L39.2518 23.5782C39.2671 23.657 39.2457 23.7371 39.1933 23.7987Z" fill="white"/>
<path d="M23.4801 13.2289H26.3888C26.4638 13.2289 26.5223 13.1668 26.5175 13.0938L26.3132 10.0431C26.3089 9.9768 26.2522 9.9248 26.1845 9.9248H23.6844C23.6161 9.9248 23.56 9.9768 23.5557 10.0431L23.3514 13.0938C23.3459 13.1668 23.4051 13.2289 23.4801 13.2289Z" fill="white"/>
<path d="M23.1861 17.6149H26.6827C26.7577 17.6149 26.8162 17.5527 26.8113 17.4798L26.6144 14.5426C26.6101 14.4763 26.5534 14.4243 26.4857 14.4243H23.3825C23.3142 14.4243 23.2581 14.4763 23.2538 14.5426L23.0569 17.4798C23.0526 17.5527 23.1111 17.6149 23.1861 17.6149Z" fill="white"/>
<path d="M22.2032 9.9248H19.2914C19.2268 9.9248 19.1719 9.97201 19.1634 10.0348L18.7548 13.0855C18.7445 13.1614 18.8048 13.2289 18.8829 13.2289H21.9989C22.0672 13.2289 22.1233 13.1769 22.1276 13.1106L22.3319 10.0599C22.3367 9.98636 22.2782 9.9248 22.2032 9.9248Z" fill="white"/>
<path d="M28.1639 17.6149H31.5739C31.6519 17.6149 31.7123 17.5473 31.7019 17.4714L31.3086 14.5343C31.3001 14.4715 31.2452 14.4243 31.1806 14.4243H27.9676C27.8926 14.4243 27.834 14.4865 27.8389 14.5594L28.0359 17.4965C28.0395 17.5629 28.0956 17.6149 28.1639 17.6149Z" fill="white"/>
<path d="M32.4767 13.2289H35.7989C35.88 13.2289 35.941 13.1572 35.9257 13.0789L35.3464 10.0282C35.3348 9.96843 35.2818 9.9248 35.2196 9.9248H32.0682C31.9901 9.9248 31.9298 9.99233 31.9401 10.0682L32.3487 13.1189C32.3572 13.1817 32.4121 13.2289 32.4767 13.2289Z" fill="white"/>
<path d="M18.295 17.6149H21.7049C21.7732 17.6149 21.8293 17.5629 21.8336 17.4965L22.0306 14.5594C22.0355 14.4865 21.9763 14.4243 21.9019 14.4243H18.6889C18.6243 14.4243 18.5694 14.4715 18.5609 14.5343L18.1676 17.4714C18.1566 17.5473 18.2169 17.6149 18.295 17.6149Z" fill="white"/>
<path d="M27.8698 13.2289H30.9859C31.0639 13.2289 31.1243 13.1614 31.1139 13.0855L30.7054 10.0348C30.6968 9.97201 30.642 9.9248 30.5773 9.9248H27.6656C27.5912 9.9248 27.532 9.98695 27.5369 10.0599L27.7412 13.1106C27.7455 13.1769 27.8022 13.2289 27.8698 13.2289Z" fill="white"/>
<path d="M13.2373 17.6149H16.804C16.8686 17.6149 16.9235 17.5677 16.9321 17.5049L17.3254 14.5677C17.3357 14.4918 17.2754 14.4243 17.1973 14.4243H13.7947C13.7325 14.4243 13.6788 14.4679 13.6678 14.5277L13.1105 17.4649C13.0953 17.5426 13.1562 17.6149 13.2373 17.6149Z" fill="white"/>
<path d="M17.5199 13.1185L17.9284 10.0677C17.9388 9.99184 17.8784 9.92432 17.8004 9.92432H14.649C14.5868 9.92432 14.5331 9.96794 14.5222 10.0277L13.9429 13.0784C13.9282 13.1561 13.9892 13.2284 14.0697 13.2284H17.3918C17.4565 13.229 17.5113 13.1818 17.5199 13.1185Z" fill="white"/>
<path d="M16.6101 18.8101H12.9624C12.9002 18.8101 12.8465 18.8537 12.8355 18.9134L12.1623 22.4614C12.1477 22.539 12.2087 22.6114 12.2892 22.6114H16.1345C16.1991 22.6114 16.254 22.5641 16.2626 22.5014L16.7382 18.9535C16.7486 18.877 16.6882 18.8101 16.6101 18.8101Z" fill="white"/>
<path d="M33.1306 18.9525L33.6062 22.5004C33.6147 22.5632 33.6696 22.6104 33.7342 22.6104H37.5796C37.6607 22.6104 37.7217 22.5387 37.7064 22.4604L37.0332 18.9125C37.0216 18.8527 36.9686 18.8091 36.9064 18.8091H33.2586C33.1806 18.8097 33.1202 18.8766 33.1306 18.9525Z" fill="white"/>
<path d="M21.4987 22.4921L21.7365 18.9441C21.7414 18.8712 21.6822 18.8091 21.6079 18.8091H18.1009C18.0363 18.8091 17.9814 18.8563 17.9729 18.919L17.4973 22.467C17.4869 22.5429 17.5473 22.6104 17.6253 22.6104H21.37C21.4383 22.6104 21.4944 22.559 21.4987 22.4921Z" fill="white"/>
<path d="M26.7796 18.8101H23.0892C23.0209 18.8101 22.9648 18.862 22.9605 18.9284L22.7227 22.4763C22.7178 22.5492 22.777 22.6114 22.8514 22.6114H27.0174C27.0918 22.6114 27.151 22.5492 27.1461 22.4763L26.9083 18.9284C26.904 18.8615 26.8479 18.8101 26.7796 18.8101Z" fill="white"/>
<path d="M31.7682 18.8101H28.2613C28.1863 18.8101 28.1277 18.8722 28.1326 18.9451L28.3704 22.493C28.3747 22.5594 28.4314 22.6114 28.4991 22.6114H32.2438C32.3219 22.6114 32.3822 22.5438 32.3719 22.4679L31.8962 18.92C31.8877 18.8573 31.8328 18.8101 31.7682 18.8101Z" fill="white"/>
<path d="M36.0741 14.4243H32.6715C32.5934 14.4243 32.533 14.4918 32.5434 14.5677L32.9367 17.5049C32.9452 17.5677 33.0001 17.6149 33.0648 17.6149H36.6314C36.7125 17.6149 36.7735 17.5432 36.7583 17.4649L36.2009 14.5277C36.1893 14.4673 36.1363 14.4243 36.0741 14.4243Z" fill="white"/>
</svg>
