<svg width="46" height="47" viewBox="0 0 46 47" fill="none" xmlns="http://www.w3.org/2000/svg">
<g clip-path="url(#clip0_0_6010)">
<path d="M37.716 15.9905L34.9266 1.2925C34.8651 0.967885 34.5758 0.732178 34.2385 0.732178H11.7614C11.4247 0.732178 11.1348 0.967885 11.0733 1.2925L8.28395 15.9905C8.24559 16.1916 8.30039 16.3968 8.43374 16.5544C8.56709 16.7119 8.76316 16.802 8.97201 16.802H21.3498V27.7223H19.8221C19.7204 27.7223 19.6199 27.7551 19.5389 27.8154L17.6763 29.1974C17.56 29.284 17.49 29.4212 17.49 29.5638V31.101C17.49 31.2162 17.5856 31.3098 17.7031 31.3098H28.2962C28.4137 31.3098 28.5093 31.2162 28.5093 31.101V29.5638C28.5093 29.4206 28.4399 29.2834 28.323 29.1974L26.4604 27.8154C26.3794 27.7551 26.2789 27.7223 26.1772 27.7223H24.6501V17.6762C24.6501 17.5611 24.5545 17.4674 24.437 17.4674C24.3195 17.4674 24.2239 17.5611 24.2239 17.6762V27.7223H21.7761V16.8014H37.0285C37.2374 16.8014 37.4334 16.7113 37.5668 16.5538C37.7001 16.3962 37.7543 16.1916 37.716 15.9905ZM26.2034 28.1484L28.066 29.5304C28.0764 29.5382 28.0831 29.5507 28.0831 29.5638V30.8921H26.6296C26.9067 30.6439 27.0017 30.2178 26.7739 29.8628L25.6694 28.14H26.1778C26.187 28.1394 26.1961 28.1424 26.2034 28.1484ZM37.2386 16.287C37.1862 16.3485 37.1101 16.3837 37.0285 16.3837H8.9714C8.88981 16.3837 8.81309 16.3485 8.76133 16.287C8.70957 16.2256 8.68765 16.1456 8.70288 16.0669L11.4929 1.36888C11.5166 1.24238 11.6299 1.14989 11.7614 1.14989H34.2385C34.37 1.14989 34.4833 1.24178 34.507 1.36888L37.297 16.0669C37.3123 16.1456 37.2909 16.2256 37.2386 16.287Z" fill="white"/>
<path d="M21.548 5.73314H24.4525C24.5274 5.73314 24.5858 5.67108 24.581 5.59828L24.377 2.55199C24.3727 2.48575 24.3161 2.43384 24.2485 2.43384H21.752C21.6838 2.43384 21.6278 2.48575 21.6235 2.55199L21.4195 5.59828C21.4141 5.67108 21.4731 5.73314 21.548 5.73314Z" fill="white"/>
<path d="M21.2543 10.1121H24.7458C24.8207 10.1121 24.8791 10.05 24.8742 9.97721L24.6776 7.0443C24.6733 6.97806 24.6167 6.92615 24.5491 6.92615H21.4504C21.3822 6.92615 21.3262 6.97806 21.3219 7.0443L21.1252 9.97721C21.121 10.05 21.1794 10.1121 21.2543 10.1121Z" fill="white"/>
<path d="M20.2729 2.43384H17.3654C17.3008 2.43384 17.246 2.48098 17.2375 2.54364L16.8295 5.58992C16.8192 5.66571 16.8795 5.73314 16.9574 5.73314H20.0689C20.1371 5.73314 20.1931 5.68122 20.1974 5.61499L20.4014 2.5687C20.4062 2.4953 20.3478 2.43384 20.2729 2.43384Z" fill="white"/>
<path d="M26.225 10.1121H29.63C29.7079 10.1121 29.7682 10.0446 29.7578 9.96886L29.3651 7.03595C29.3566 6.97329 29.3018 6.92615 29.2372 6.92615H26.0289C25.954 6.92615 25.8956 6.98821 25.9004 7.06101L26.0971 9.99392C26.1008 10.0602 26.1568 10.1121 26.225 10.1121Z" fill="white"/>
<path d="M30.5316 5.73314H33.8489C33.9299 5.73314 33.9908 5.66153 33.9756 5.58336L33.3971 2.53707C33.3856 2.4774 33.3326 2.43384 33.2705 2.43384H30.1237C30.0457 2.43384 29.9854 2.50127 29.9958 2.57705L30.4038 5.62334C30.4123 5.686 30.4671 5.73314 30.5316 5.73314Z" fill="white"/>
<path d="M16.3705 10.1121H19.7755C19.8437 10.1121 19.8997 10.0602 19.904 9.99392L20.1006 7.06101C20.1055 6.98821 20.0465 6.92615 19.9722 6.92615H16.7638C16.6993 6.92615 16.6445 6.97329 16.636 7.03595L16.2432 9.96886C16.2323 10.0446 16.2926 10.1121 16.3705 10.1121Z" fill="white"/>
<path d="M25.9314 5.73314H29.0429C29.1208 5.73314 29.1811 5.66571 29.1707 5.58992L28.7628 2.54364C28.7543 2.48098 28.6995 2.43384 28.6349 2.43384H25.7274C25.6531 2.43384 25.594 2.4959 25.5989 2.5687L25.8029 5.61499C25.8072 5.68122 25.8638 5.73314 25.9314 5.73314Z" fill="white"/>
<path d="M11.3202 10.1121H14.8816C14.9462 10.1121 15.001 10.0649 15.0095 10.0023L15.4023 7.06936C15.4126 6.99358 15.3523 6.92615 15.2744 6.92615H11.8767C11.8146 6.92615 11.761 6.96971 11.75 7.02938L11.1935 9.96229C11.1783 10.0399 11.2392 10.1121 11.3202 10.1121Z" fill="white"/>
<path d="M15.5962 5.62236L16.0042 2.57608C16.0145 2.50029 15.9543 2.43286 15.8763 2.43286H12.7295C12.6674 2.43286 12.6138 2.47642 12.6029 2.5361L12.0244 5.58238C12.0098 5.65996 12.0707 5.73216 12.151 5.73216H15.4684C15.5329 5.73276 15.5877 5.68562 15.5962 5.62236Z" fill="white"/>
<path d="M14.6882 11.3055H11.0457C10.9836 11.3055 10.93 11.3491 10.919 11.4088L10.2468 14.9515C10.2322 15.0291 10.2931 15.1013 10.3735 15.1013H14.2132C14.2778 15.1013 14.3326 15.0542 14.3411 14.9915L14.816 11.4488C14.8264 11.3724 14.7661 11.3055 14.6882 11.3055Z" fill="white"/>
<path d="M31.1845 11.4481L31.6595 14.9909C31.668 15.0536 31.7228 15.1007 31.7873 15.1007H35.6271C35.7081 15.1007 35.769 15.0291 35.7537 14.9509L35.0815 11.4082C35.0699 11.3485 35.017 11.3049 34.9548 11.3049H31.3124C31.2344 11.3055 31.1742 11.3724 31.1845 11.4481Z" fill="white"/>
<path d="M19.5695 14.9826L19.807 11.4398C19.8119 11.367 19.7528 11.3049 19.6785 11.3049H16.1767C16.1122 11.3049 16.0574 11.3521 16.0489 11.4147L15.5739 14.9575C15.5636 15.0333 15.6238 15.1007 15.7018 15.1007H19.4411C19.5093 15.1007 19.5653 15.0494 19.5695 14.9826Z" fill="white"/>
<path d="M24.8428 11.3059H21.1577C21.0895 11.3059 21.0335 11.3578 21.0293 11.4241L20.7918 14.9668C20.7869 15.0396 20.846 15.1017 20.9203 15.1017H25.0803C25.1546 15.1017 25.2136 15.0396 25.2088 14.9668L24.9713 11.4241C24.967 11.3572 24.911 11.3059 24.8428 11.3059Z" fill="white"/>
<path d="M29.8242 11.3059H26.3224C26.2475 11.3059 26.189 11.368 26.1939 11.4408L26.4314 14.9835C26.4356 15.0498 26.4922 15.1017 26.5598 15.1017H30.2991C30.3771 15.1017 30.4373 15.0343 30.427 14.9585L29.952 11.4157C29.9435 11.3531 29.8887 11.3059 29.8242 11.3059Z" fill="white"/>
<path d="M34.1236 6.92615H30.726C30.648 6.92615 30.5877 6.99358 30.5981 7.06936L30.9908 10.0023C30.9994 10.0649 31.0542 10.1121 31.1187 10.1121H34.6802C34.7612 10.1121 34.8221 10.0405 34.8068 9.96229L34.2503 7.02938C34.2387 6.96911 34.1857 6.92615 34.1236 6.92615Z" fill="white"/>
<path d="M12.6186 42.1065H5.82275V34.7363V29.759H15.5858" stroke="white" stroke-width="0.575" stroke-linecap="round"/>
<path d="M33.3814 42.1065H40.1772V34.7363V29.759H30.4142" stroke="white" stroke-width="0.575" stroke-linecap="round"/>
<path d="M22.9996 40.8308C23.0906 40.8308 23.1803 40.8518 23.2619 40.8921C23.3434 40.9324 23.4146 40.991 23.4698 41.0633C23.5251 41.1355 23.563 41.2196 23.5805 41.3088C23.598 41.3981 23.5947 41.4902 23.5709 41.578L22.1707 46.7323L23.0168 45.7448L23.0209 45.7401L28.2273 39.6467H25.9598C25.8499 39.6467 25.7421 39.6161 25.6485 39.5583C25.555 39.5005 25.4794 39.4178 25.4303 39.3195C25.3811 39.2211 25.3603 39.111 25.3702 39.0015C25.38 38.892 25.4202 38.7874 25.4862 38.6995L28.3043 34.9104H24.2642L20.0098 40.8308H22.9996Z" fill="white"/>
<path d="M24.7253 45.5675H30.1041C30.4181 45.5675 30.7193 45.4428 30.9413 45.2207C31.1634 44.9987 31.2881 44.6975 31.2881 44.3835V38.463C31.2881 38.149 31.1634 37.8478 30.9413 37.6257C30.7193 37.4037 30.4181 37.2789 30.1041 37.2789H28.0183L27.1379 38.463H29.512C29.6251 38.4631 29.7358 38.4956 29.831 38.5566C29.9262 38.6176 30.0019 38.7046 30.0492 38.8073C30.0966 38.9099 30.1135 39.024 30.098 39.136C30.0826 39.248 30.0353 39.3533 29.962 39.4393L24.7253 45.5675Z" fill="white"/>
<path d="M15.895 45.5675H21.2613L22.2252 42.0153H18.8552C18.7464 42.0152 18.6396 41.9852 18.5467 41.9284C18.4539 41.8716 18.3784 41.7903 18.3287 41.6934C18.2791 41.5966 18.257 41.4879 18.2651 41.3793C18.2732 41.2708 18.311 41.1665 18.3745 41.0781L21.105 37.2789H15.895C15.581 37.2789 15.2798 37.4037 15.0577 37.6257C14.8357 37.8478 14.7109 38.149 14.7109 38.463V44.3835C14.7109 44.6975 14.8357 44.9987 15.0577 45.2207C15.2798 45.4428 15.581 45.5675 15.895 45.5675Z" fill="white"/>
</g>
<defs>
<clipPath id="clip0_0_6010">
<rect width="46" height="46" fill="white" transform="translate(0 0.732178)"/>
</clipPath>
</defs>
</svg>
