<svg width="46" height="47" viewBox="0 0 46 47" fill="none" xmlns="http://www.w3.org/2000/svg">
<g clip-path="url(#clip0_0_5858)">
<path d="M27.1198 21.3191L26.9001 19.5128C26.8583 19.1694 26.5668 18.9111 26.2208 18.9111H19.3654C19.0194 18.9111 18.7279 19.1694 18.6861 19.5128L18.4675 21.3106C18.418 21.718 18.7352 22.0772 19.1457 22.0775C20.27 22.0783 21.5081 22.0796 22.8722 22.0812C24.0707 22.0826 25.271 22.0843 26.44 22.086C26.8511 22.0867 27.1694 21.7272 27.1198 21.3191Z" fill="white"/>
<path d="M38.6092 28.691C36.0422 28.6875 33.058 28.6839 29.9542 28.6807C29.5432 28.6802 29.2243 29.0396 29.2739 29.4476L29.5797 31.9623C29.6215 32.3057 29.9131 32.564 30.259 32.564H38.4552C39.629 32.564 40.3854 31.3204 39.8457 30.2781L39.215 29.0603C39.0977 28.8338 38.8643 28.6914 38.6092 28.691Z" fill="white"/>
<path d="M9.19202 23.6121L7.68504 26.5221C7.44873 26.9785 7.78057 27.5227 8.29445 27.5211C9.79818 27.5166 12.1753 27.5134 15.9405 27.5133C16.2865 27.5133 16.5784 27.2551 16.6202 26.9116L16.9742 24.0008C17.0237 23.5932 16.7053 23.234 16.2946 23.2339C13.5688 23.2335 11.2524 23.2359 9.7966 23.2425C9.54196 23.2436 9.30912 23.386 9.19202 23.6121Z" fill="white"/>
<path d="M17.4988 29.2736L17.1919 31.7971C17.1423 32.2048 17.4605 32.564 17.8712 32.564H27.7144C28.1251 32.564 28.4433 32.2048 28.3937 31.7971L28.0875 29.2799C28.0458 28.9366 27.7549 28.6785 27.4091 28.6782C24.2696 28.6753 21.0933 28.673 18.178 28.6719C17.8319 28.6717 17.5405 28.93 17.4988 29.2736Z" fill="white"/>
<path d="M26.7492 23.2443C24.1038 23.2402 21.37 23.237 18.8397 23.2354C18.4936 23.2351 18.2021 23.4934 18.1603 23.8371L17.8064 26.7473C17.7568 27.1549 18.0743 27.514 18.4849 27.5142C20.879 27.515 23.7228 27.5168 27.1001 27.5201C27.5111 27.5205 27.8302 27.1611 27.7806 26.7532L27.427 23.846C27.3853 23.5029 27.0948 23.2448 26.7492 23.2443Z" fill="white"/>
<path d="M6.37625 29.0497L5.73997 30.2784C5.20024 31.3206 5.95669 32.5642 7.1304 32.5642H15.3266C15.6726 32.5642 15.9642 32.3059 16.0059 31.9625L16.3129 29.4384C16.3625 29.0307 16.0439 28.6715 15.6333 28.6714C11.7623 28.671 8.5955 28.6733 6.98072 28.68C6.72607 28.6811 6.49335 28.8235 6.37625 29.0497Z" fill="white"/>
<path d="M17.2814 21.4744L17.4998 19.6781C17.5494 19.2704 17.2312 18.9111 16.8205 18.9111H12.0427C11.787 18.9111 11.5526 19.0537 11.435 19.2808L10.5024 21.0816C10.2662 21.5379 10.5978 22.0821 11.1116 22.0806C12.3647 22.077 14.1246 22.0753 16.6018 22.0761C16.9479 22.0762 17.2396 21.8179 17.2814 21.4744Z" fill="white"/>
<path d="M35.0936 21.1016L34.1507 19.2808C34.0331 19.0537 33.7987 18.9111 33.543 18.9111H28.7652C28.3545 18.9111 28.0363 19.2704 28.0859 19.6781L28.3061 21.4885C28.3478 21.8315 28.6391 22.0896 28.9847 22.0902C31.103 22.0938 33.0147 22.0976 34.4851 22.1006C34.9987 22.1017 35.3298 21.5577 35.0936 21.1016Z" fill="white"/>
<path d="M35.7977 23.2607C33.9565 23.2567 31.7071 23.2522 29.294 23.248C28.8828 23.2473 28.5636 23.6068 28.6133 24.015L28.9666 26.9207C29.0084 27.2638 29.2989 27.522 29.6445 27.5224C31.9633 27.5249 34.507 27.528 37.2974 27.5318C37.8107 27.5325 38.1422 26.9886 37.9061 26.5328L36.4031 23.6304C36.2857 23.4038 36.0528 23.2613 35.7977 23.2607Z" fill="white"/>
<path d="M42.6408 29.5244L36.3554 17.387C35.9387 16.5824 35.1169 16.0825 34.2108 16.0825H11.3747C10.4687 16.0825 9.64691 16.5824 9.23017 17.387L2.94476 29.5244C2.29404 30.7811 2.34456 32.2531 3.07997 33.4622C3.81546 34.6712 5.09943 35.3931 6.5146 35.3931H20.6206C20.636 35.3931 20.6484 35.3996 20.6572 35.4123C20.666 35.4251 20.6676 35.439 20.662 35.4536L18.5395 41.0034H16.1713C15.7345 41.0034 15.3306 41.2405 15.1174 41.6223C15.0335 41.7725 15.0873 41.9624 15.2375 42.0463C15.3877 42.1303 15.5777 42.0765 15.6616 41.9262C15.7648 41.7414 15.9601 41.6266 16.1713 41.6266H29.4143C29.7359 41.6266 29.9975 41.8882 29.9975 42.2099V43.1865H13.1565C12.9844 43.1865 12.8449 43.326 12.8449 43.4981C12.8449 43.6702 12.9844 43.8097 13.1565 43.8097H32.4291C32.6012 43.8097 32.7407 43.6702 32.7407 43.4981C32.7407 43.326 32.6012 43.1865 32.4291 43.1865H30.6207V42.2099C30.6207 41.5446 30.0795 41.0034 29.4143 41.0034H27.046L25.1627 36.0788C25.1012 35.9182 24.9212 35.8377 24.7603 35.8991C24.5995 35.9606 24.519 36.1407 24.5805 36.3015L26.3787 41.0034H19.2069L21.2442 35.6762C21.3228 35.4709 21.2953 35.2401 21.1706 35.059C21.046 34.878 20.8404 34.7698 20.6206 34.7698H6.5146C5.3188 34.7698 4.23395 34.1599 3.61253 33.1383C2.99111 32.1167 2.94833 30.8729 3.49828 29.811L9.78368 17.6736C10.0928 17.0766 10.7025 16.7058 11.3747 16.7058H34.2108C34.8831 16.7058 35.4928 17.0766 35.8019 17.6736L42.0873 29.811C42.6373 30.8729 42.5945 32.1167 41.9731 33.1383C41.3516 34.1599 40.2668 34.7698 39.071 34.7698H22.48C22.3079 34.7698 22.1683 34.9093 22.1683 35.0815C22.1683 35.2536 22.3079 35.3931 22.48 35.3931H39.071C40.4862 35.3931 41.7701 34.6712 42.5056 33.4622C43.241 32.2531 43.2915 30.7811 42.6408 29.5244Z" fill="white"/>
<circle cx="34.6465" cy="13.1394" r="12.0398" fill="#183F37"/>
<path d="M29.4206 41.4077H18.7858C18.574 41.4077 18.3731 41.502 18.2378 41.665L17.7962 42.197C17.4108 42.6611 17.7409 43.3642 18.3442 43.3642H29.5519C29.9452 43.3642 30.2641 43.0453 30.2641 42.6519V42.2266C30.2641 42.0122 30.1675 41.8091 30.001 41.6738L29.8698 41.5672C29.7428 41.464 29.5842 41.4077 29.4206 41.4077Z" fill="white"/>
<g clip-path="url(#clip1_0_5858)">
<circle cx="33.934" cy="13.4833" r="9.48016" stroke="white" stroke-width="0.569824"/>
<path d="M40.9559 14.0815L40.3182 13.1483C40.1291 11.5154 39.6622 10.307 38.897 9.46458C38.0012 8.47839 36.7209 7.99902 34.9831 7.99902C34.7381 7.99902 34.48 8.0088 34.2158 8.02814C31.2543 8.24467 29.6687 11.6557 29.041 13.4288C29.0097 13.4422 28.9783 13.4558 28.9469 13.4696C27.5081 14.1017 26.8095 14.8056 26.811 15.6211C26.8116 15.9288 26.9925 16.2575 27.3973 16.6868C27.6914 16.9986 28.0928 17.3465 28.5274 17.6662C29.0388 18.0424 30.3446 18.922 31.4231 18.9646C31.4713 18.9665 31.5229 18.9675 31.5766 18.9675C31.5767 18.9675 31.5766 18.9675 31.5767 18.9675C33.2746 18.9675 38.6493 17.9661 40.9492 14.7427C41.09 14.5456 41.0926 14.2815 40.9559 14.0815ZM38.062 14.7594C37.9251 14.8515 37.7849 14.9386 37.6427 15.0223C37.3326 15.2047 37.0126 15.37 36.6858 15.5203C36.0639 15.8062 35.4135 16.0407 34.7454 16.1922C34.1374 16.3302 33.4902 16.4148 32.8705 16.3081C32.2744 16.2055 31.6879 16.0021 31.1555 15.7151C30.6256 15.4294 30.0825 15.0704 29.6977 14.5994C29.9381 14.7051 30.1805 14.8054 30.4252 14.9006C30.5824 14.3591 30.7645 13.8225 30.9834 13.3026C31.1964 12.797 31.4457 12.3109 31.8084 11.8959C32.2354 11.4071 32.7649 10.9991 33.3231 10.6713C33.7923 10.3958 34.2945 10.1793 34.8274 10.0645C34.6161 10.1426 34.4118 10.2347 34.2149 10.3447C33.6271 10.673 33.0984 11.1152 32.6523 11.6182C32.4563 11.8391 32.2495 12.0816 32.1123 12.3451C31.9606 12.6365 31.8626 12.9495 31.7821 13.2672C31.6236 13.898 31.5303 14.5467 31.4693 15.1938C31.4629 15.2613 31.4654 15.2553 31.5322 15.2735C31.5746 15.285 31.6169 15.2965 31.6592 15.308C31.7357 15.3305 31.8132 15.3491 31.8907 15.3677C32.0515 15.4064 32.2131 15.44 32.3751 15.4732C33.3485 15.6815 34.6447 15.4425 35.4471 15.264C36.2579 15.0838 37.0627 14.8769 37.8719 14.689C37.8714 14.6891 37.8786 14.6874 37.8974 14.683C38.0179 14.6557 37.9908 14.662 37.9464 14.6722C38.0596 14.6467 38.1729 14.6218 38.2868 14.5994C38.2867 14.6335 38.0869 14.7426 38.062 14.7594Z" fill="white"/>
</g>
</g>
<defs>
<clipPath id="clip0_0_5858">
<rect width="45.5859" height="45.5859" fill="white" transform="translate(0 0.76123)"/>
</clipPath>
<clipPath id="clip1_0_5858">
<rect x="24.1689" y="3.71826" width="19.5301" height="19.5301" rx="9.76507" fill="white"/>
</clipPath>
</defs>
</svg>
