<svg width="47" height="47" viewBox="0 0 47 47" fill="none" xmlns="http://www.w3.org/2000/svg">
<path d="M24.294 27.6863L23.8985 20.4579C23.8808 20.1335 23.6126 19.8796 23.2878 19.8796H17.2146C16.8898 19.8796 16.6217 20.1335 16.6039 20.4579L16.2085 27.6863C16.1893 28.0366 16.4682 28.3313 16.8192 28.3313H23.6833C24.0342 28.3313 24.3132 28.0366 24.294 27.6863Z" fill="white"/>
<path fill-rule="evenodd" clip-rule="evenodd" d="M26.9094 19.8796H25.1434C24.7925 19.8796 24.5135 20.1743 24.5327 20.5247L24.9281 27.7531C24.9459 28.0774 25.214 28.3313 25.5388 28.3313H32.0744C32.4498 28.3313 32.7366 27.9962 32.6787 27.6253L32.013 23.362C30.0284 22.6422 28.2785 21.4328 26.9094 19.8796Z" fill="white"/>
<path d="M17.316 19.2504H23.1865C23.5374 19.2504 23.8164 18.9557 23.7972 18.6053L23.4792 12.7926C23.4614 12.4682 23.1933 12.2144 22.8685 12.2144H17.634C17.3092 12.2144 17.041 12.4682 17.0233 12.7926L16.7053 18.6053C16.6861 18.9557 16.9651 19.2504 17.316 19.2504Z" fill="white"/>
<path d="M16.071 18.6722L16.3891 12.8594C16.4082 12.509 16.1293 12.2144 15.7784 12.2144H10.7532C10.4518 12.2144 10.1953 12.4339 10.1489 12.7317L9.24158 18.5444C9.18369 18.9153 9.47049 19.2504 9.84589 19.2504H15.4603C15.7851 19.2504 16.0533 18.9965 16.071 18.6722Z" fill="white"/>
<path fill-rule="evenodd" clip-rule="evenodd" d="M24.2236 14.8811L24.431 18.6721C24.4488 18.9964 24.7169 19.2503 25.0417 19.2503H26.3901C25.4008 17.9687 24.6554 16.4891 24.2236 14.8811Z" fill="white"/>
<path d="M15.3592 19.8796H9.55691C9.25554 19.8796 8.99909 20.0992 8.95261 20.3969L7.82435 27.6253C7.76645 27.9962 8.05326 28.3313 8.42865 28.3313H14.9637C15.2885 28.3313 15.5567 28.0774 15.5744 27.7531L15.9699 20.5247C15.989 20.1743 15.7101 19.8796 15.3592 19.8796Z" fill="white"/>
<path fill-rule="evenodd" clip-rule="evenodd" d="M23.9376 9.76782H8.21804C6.81691 9.76782 5.6207 10.7218 5.30909 12.0877L1.13168 30.393C1.12641 30.4159 1.12378 30.4394 1.12378 30.463V32.9119C1.12378 33.9001 1.92769 34.704 2.91581 34.704H17.2949L16.4478 42.0469H12.3406C11.9317 42.0469 11.5685 42.307 11.4368 42.694L10.9174 44.22C10.8468 44.4275 10.8522 44.6509 10.9253 44.8529H8.56661C8.39285 44.8529 8.25193 44.9937 8.25193 45.1675C8.25193 45.3413 8.39285 45.4822 8.56661 45.4822H31.9356C32.1094 45.4822 32.2503 45.3413 32.2503 45.1675C32.2503 44.9937 32.1094 44.8529 31.9356 44.8529H29.577C29.6501 44.6509 29.6555 44.4275 29.5849 44.22L29.0654 42.6939C28.9335 42.3069 28.5704 42.0469 28.1617 42.0469H24.0545L23.2073 34.704H37.586C38.5742 34.704 39.3781 33.9001 39.3781 32.9119V30.8366C39.3781 30.5653 39.3475 30.2935 39.2871 30.0287L37.9105 23.9975C37.702 24.025 37.4919 24.0474 37.2803 24.0645L38.6689 30.1485H3.45095C3.2772 30.1485 3.13627 30.2893 3.13627 30.4631C3.13627 30.6369 3.2772 30.7778 3.45095 30.7778H38.7471C38.7473 30.7871 38.7477 30.7963 38.748 30.8055C38.7484 30.8159 38.7488 30.8263 38.7488 30.8366V32.9119C38.7488 33.553 38.2271 34.0746 37.586 34.0746H2.91581C2.27468 34.0746 1.75314 33.553 1.75314 32.9119V30.4985L5.92265 12.2277C6.16858 11.15 7.11245 10.3972 8.21804 10.3972H23.8591C23.88 10.1858 23.9062 9.97597 23.9376 9.76782ZM11.5132 44.4228C11.479 44.5233 11.4949 44.6305 11.5567 44.7169C11.6185 44.8033 11.7149 44.8529 11.8211 44.8529H14.1132C14.0225 44.6999 13.9937 44.5092 14.0576 44.3214C14.3061 43.5914 14.827 43.0107 15.4836 42.6763H12.3406C12.2012 42.6763 12.0775 42.7649 12.0327 42.8967L11.5132 44.4228ZM17.0812 42.0469H23.421L22.5738 34.704H17.9283L17.0812 42.0469Z" fill="white"/>
<path d="M24.7516 32.7412C24.9254 32.7412 25.0663 32.6003 25.0663 32.4265C25.0663 32.2527 24.9254 32.1118 24.7516 32.1118H15.7502C15.5765 32.1118 15.4355 32.2527 15.4355 32.4265C15.4355 32.6003 15.5765 32.7412 15.7502 32.7412H24.7516Z" fill="white"/>
<g clip-path="url(#clip0_0_5884)">
<circle cx="35.1678" cy="12.2144" r="9.57318" stroke="white" stroke-width="0.575415"/>
<path d="M33.922 6.81626L35.5227 8.417C35.8911 8.78536 36.0374 9.32706 35.9047 9.82814L35.4821 11.4262C35.3467 11.9354 34.9458 12.3362 34.4366 12.4717L32.8386 12.8942C32.3375 13.0269 31.7958 12.8807 31.4275 12.5123L29.8132 10.898C29.6154 12.3417 30.0949 13.8124 31.1349 14.8525C32.3104 16.028 33.9762 16.4965 35.5932 16.1038C36.2866 15.9359 36.9962 16.1634 37.4485 16.7024L43.8 24.2673C44.2415 24.7955 44.8672 25.1015 45.5551 25.134C46.2458 25.1638 46.8931 24.9119 47.3807 24.4244C47.8682 23.9369 48.1201 23.2895 48.0876 22.6016C48.0578 21.9109 47.7518 21.2906 47.2209 20.8464L39.656 14.4949C39.1197 14.0453 38.8894 13.333 39.0601 12.6423C39.4528 11.0253 38.9842 9.35957 37.8087 8.18407C36.7795 7.15483 35.3386 6.65646 33.922 6.81626ZM46.8904 23.9342C46.2919 24.5327 45.3195 24.53 44.7236 23.9342C44.1277 23.3383 44.1277 22.3632 44.7236 21.7673C45.3195 21.1715 46.2946 21.1715 46.8904 21.7673C47.4863 22.3632 47.4863 23.3383 46.8904 23.9342Z" fill="white"/>
</g>
<defs>
<clipPath id="clip0_0_5884">
<rect x="25.3069" y="2.35352" width="19.7218" height="19.7218" rx="9.86088" fill="white"/>
</clipPath>
</defs>
</svg>
