<svg width="47" height="48" viewBox="0 0 47 48" fill="none" xmlns="http://www.w3.org/2000/svg">
<path d="M20.2792 6.9682H29.9152C30.2694 6.9682 30.5575 6.68009 30.5575 6.32592V4.4101C30.5575 4.05593 30.2694 3.76782 29.9152 3.76782H20.2792C19.9251 3.76782 19.637 4.05593 19.637 4.4101V6.32592C19.636 6.68009 19.9251 6.9682 20.2792 6.9682ZM29.1335 4.4101H29.9152V6.32684H27.8361C28.5334 5.93872 29.0298 5.23589 29.1335 4.4101Z" fill="white"/>
<path d="M10.4174 19.9275H7.56841C7.14175 19.9275 6.79492 20.2743 6.79492 20.701V23.5499C6.79492 23.9766 7.14175 24.3234 7.56841 24.3234H10.4174C10.844 24.3234 11.1909 23.9766 11.1909 23.5499V20.701C11.1918 20.2743 10.844 19.9275 10.4174 19.9275ZM10.5495 23.5499C10.5495 23.6224 10.4908 23.6811 10.4183 23.6811H7.56841C7.49592 23.6811 7.4372 23.6224 7.4372 23.5499V20.701C7.4372 20.6285 7.49592 20.5698 7.56841 20.5698H10.4174C10.4899 20.5698 10.5486 20.6285 10.5486 20.701V23.5499H10.5495Z" fill="white"/>
<path d="M16.6007 19.9275H13.7518C13.3251 19.9275 12.9783 20.2743 12.9783 20.701V23.5499C12.9783 23.9766 13.3251 24.3234 13.7518 24.3234H16.6007C17.0274 24.3234 17.3742 23.9766 17.3742 23.5499V20.701C17.3742 20.2743 17.0274 19.9275 16.6007 19.9275ZM16.7319 23.5499C16.7319 23.6224 16.6732 23.6811 16.6007 23.6811H13.7518C13.6793 23.6811 13.6205 23.6224 13.6205 23.5499V20.701C13.6205 20.6285 13.6793 20.5698 13.7518 20.5698H16.6007C16.6732 20.5698 16.7319 20.6285 16.7319 20.701V23.5499Z" fill="white"/>
<path d="M22.7831 19.9275H19.9341C19.5075 19.9275 19.1606 20.2743 19.1606 20.701V23.5499C19.1606 23.9766 19.5075 24.3234 19.9341 24.3234H22.7831C23.2097 24.3234 23.5566 23.9766 23.5566 23.5499V20.701C23.5575 20.2743 23.2097 19.9275 22.7831 19.9275ZM22.9152 23.5499C22.9152 23.6224 22.8565 23.6811 22.784 23.6811H19.935C19.8626 23.6811 19.8038 23.6224 19.8038 23.5499V20.701C19.8038 20.6285 19.8626 20.5698 19.935 20.5698H22.784C22.8565 20.5698 22.9152 20.6285 22.9152 20.701V23.5499Z" fill="white"/>
<path d="M10.4174 25.9558H7.56841C7.14175 25.9558 6.79492 26.3026 6.79492 26.7293V29.5783C6.79492 30.0049 7.14175 30.3517 7.56841 30.3517H10.4174C10.844 30.3517 11.1909 30.0049 11.1909 29.5783V26.7293C11.1918 26.3026 10.844 25.9558 10.4174 25.9558ZM10.5495 29.5792C10.5495 29.6517 10.4908 29.7104 10.4183 29.7104H7.56841C7.49592 29.7104 7.4372 29.6517 7.4372 29.5792V26.7302C7.4372 26.6577 7.49592 26.599 7.56841 26.599H10.4174C10.4899 26.599 10.5486 26.6577 10.5486 26.7302V29.5792H10.5495Z" fill="white"/>
<path d="M16.6007 25.9558H13.7518C13.3251 25.9558 12.9783 26.3026 12.9783 26.7293V29.5783C12.9783 30.0049 13.3251 30.3517 13.7518 30.3517H16.6007C17.0274 30.3517 17.3742 30.0049 17.3742 29.5783V26.7293C17.3742 26.3026 17.0274 25.9558 16.6007 25.9558ZM16.7319 29.5792C16.7319 29.6517 16.6732 29.7104 16.6007 29.7104H13.7518C13.6793 29.7104 13.6205 29.6517 13.6205 29.5792V26.7302C13.6205 26.6577 13.6793 26.599 13.7518 26.599H16.6007C16.6732 26.599 16.7319 26.6577 16.7319 26.7302V29.5792Z" fill="white"/>
<path d="M22.7831 25.9558H19.9341C19.5075 25.9558 19.1606 26.3026 19.1606 26.7293V29.5783C19.1606 30.0049 19.5075 30.3517 19.9341 30.3517H22.7831C23.2097 30.3517 23.5566 30.0049 23.5566 29.5783V26.7293C23.5575 26.3026 23.2097 25.9558 22.7831 25.9558ZM22.9152 29.5792C22.9152 29.6517 22.8565 29.7104 22.784 29.7104H19.935C19.8626 29.7104 19.8038 29.6517 19.8038 29.5792V26.7302C19.8038 26.6577 19.8626 26.599 19.935 26.599H22.784C22.8565 26.599 22.9152 26.6577 22.9152 26.7302V29.5792Z" fill="white"/>
<path d="M22.7831 31.9849H19.9341C19.5075 31.9849 19.1606 32.3317 19.1606 32.7584V35.6073C19.1606 36.034 19.5075 36.3808 19.9341 36.3808H22.7831C23.2097 36.3808 23.5566 36.034 23.5566 35.6073V32.7584C23.5575 32.3317 23.2097 31.9849 22.7831 31.9849ZM22.9152 35.6073C22.9152 35.6798 22.8565 35.7385 22.784 35.7385H19.935C19.8626 35.7385 19.8038 35.6798 19.8038 35.6073V32.7584C19.8038 32.6859 19.8626 32.6271 19.935 32.6271H22.784C22.8565 32.6271 22.9152 32.6859 22.9152 32.7584V35.6073Z" fill="white"/>
<path d="M22.7831 38.0132H19.9341C19.5075 38.0132 19.1606 38.36 19.1606 38.7867V41.6356C19.1606 42.0623 19.5075 42.4091 19.9341 42.4091H22.7831C23.2097 42.4091 23.5566 42.0623 23.5566 41.6356V38.7867C23.5575 38.36 23.2097 38.0132 22.7831 38.0132ZM22.9152 41.6365C22.9152 41.709 22.8565 41.7678 22.784 41.7678H19.935C19.8626 41.7678 19.8038 41.709 19.8038 41.6365V38.7876C19.8038 38.7151 19.8626 38.6564 19.935 38.6564H22.784C22.8565 38.6564 22.9152 38.7151 22.9152 38.7876V41.6365Z" fill="white"/>
<path d="M10.4174 31.9849H7.56841C7.14175 31.9849 6.79492 32.3317 6.79492 32.7584V35.6073C6.79492 36.034 7.14175 36.3808 7.56841 36.3808H10.4174C10.844 36.3808 11.1909 36.034 11.1909 35.6073V32.7584C11.1918 32.3317 10.844 31.9849 10.4174 31.9849ZM10.5495 35.6073C10.5495 35.6798 10.4908 35.7385 10.4183 35.7385H7.56841C7.49592 35.7385 7.4372 35.6798 7.4372 35.6073V32.7584C7.4372 32.6859 7.49592 32.6271 7.56841 32.6271H10.4174C10.4899 32.6271 10.5486 32.6859 10.5486 32.7584V35.6073H10.5495Z" fill="white"/>
<path d="M16.6007 31.9849H13.7518C13.3251 31.9849 12.9783 32.3317 12.9783 32.7584V35.6073C12.9783 36.034 13.3251 36.3808 13.7518 36.3808H16.6007C17.0274 36.3808 17.3742 36.034 17.3742 35.6073V32.7584C17.3742 32.3317 17.0274 31.9849 16.6007 31.9849ZM16.7319 35.6073C16.7319 35.6798 16.6732 35.7385 16.6007 35.7385H13.7518C13.6793 35.7385 13.6205 35.6798 13.6205 35.6073V32.7584C13.6205 32.6859 13.6793 32.6271 13.7518 32.6271H16.6007C16.6732 32.6271 16.7319 32.6859 16.7319 32.7584V35.6073Z" fill="white"/>
<path d="M10.4174 38.0132H7.56841C7.14175 38.0132 6.79492 38.36 6.79492 38.7867V41.6356C6.79492 42.0623 7.14175 42.4091 7.56841 42.4091H10.4174C10.844 42.4091 11.1909 42.0623 11.1909 41.6356V38.7867C11.1918 38.36 10.844 38.0132 10.4174 38.0132ZM10.5495 41.6365C10.5495 41.709 10.4908 41.7678 10.4183 41.7678H7.56841C7.49592 41.7678 7.4372 41.709 7.4372 41.6365V38.7876C7.4372 38.7151 7.49592 38.6564 7.56841 38.6564H10.4174C10.4899 38.6564 10.5486 38.7151 10.5486 38.7876V41.6365H10.5495Z" fill="white"/>
<path d="M16.6007 38.0132H13.7518C13.3251 38.0132 12.9783 38.36 12.9783 38.7867V41.6356C12.9783 42.0623 13.3251 42.4091 13.7518 42.4091H16.6007C17.0274 42.4091 17.3742 42.0623 17.3742 41.6356V38.7867C17.3742 38.36 17.0274 38.0132 16.6007 38.0132ZM16.7319 41.6365C16.7319 41.709 16.6732 41.7678 16.6007 41.7678H13.7518C13.6793 41.7678 13.6205 41.709 13.6205 41.6365V38.7876C13.6205 38.7151 13.6793 38.6564 13.7518 38.6564H16.6007C16.6732 38.6564 16.7319 38.7151 16.7319 38.7876V41.6365Z" fill="white"/>
<path d="M3.06909 3.8936V43.3579C3.06909 44.7975 4.23987 45.9683 5.67949 45.9683H26.927H27.2701H40.9855C42.5985 45.9683 43.9106 44.6562 43.9106 43.0432V41.0163C43.9106 35.4533 41.937 30.0848 38.3512 25.8549C38.4292 25.7577 38.4724 25.6365 38.4724 25.5081V24.2529C38.4724 24.0877 38.399 23.9363 38.2806 23.8336L40.2432 21.6939C40.613 21.2911 40.7258 20.7415 40.546 20.2258C40.3662 19.7092 39.9358 19.3505 39.3963 19.2642L38.6439 19.1449L38.7256 18.9669C38.8586 18.6752 38.8559 18.343 38.7164 18.054C38.577 17.765 38.3191 17.5558 38.0081 17.4787L37.4998 17.353C36.1831 17.0273 34.8233 16.8869 33.4699 16.9309V3.8936C33.4699 2.45398 32.2991 1.2832 30.8595 1.2832H5.67857C4.23987 1.2832 3.06909 2.45398 3.06909 3.8936ZM43.2665 41.0154V43.0423C43.2665 44.3011 42.2425 45.3251 40.9837 45.3251H27.2692H26.926C25.6672 45.3251 24.6432 44.3011 24.6432 43.0423V41.0154C24.6432 35.4955 26.6407 30.1729 30.2686 26.0155C32.6836 25.42 35.2261 25.42 37.6411 26.0155C41.269 30.1729 43.2665 35.4955 43.2665 41.0154ZM26.9068 29.7104H26.1177C26.0452 29.7104 25.9865 29.6517 25.9865 29.5792V26.7302C25.9865 26.6578 26.0452 26.599 26.1177 26.599H28.9575C28.1886 27.5845 27.5041 28.625 26.9068 29.7104ZM30.0824 25.3989V24.318C32.6175 23.6803 35.2931 23.6794 37.8292 24.318V25.3989C35.2922 24.7676 32.6185 24.7676 30.0824 25.3989ZM37.3429 17.9742L37.8512 18.0999C37.976 18.1311 38.0797 18.2146 38.1356 18.3311C38.1916 18.4467 38.1925 18.5807 38.1393 18.6972L36.4703 22.3417C36.3969 22.5031 36.4675 22.6931 36.629 22.7674C36.6721 22.7876 36.718 22.7968 36.763 22.7968C36.885 22.7968 37.0015 22.727 37.0548 22.6096L38.3641 19.7496L39.2936 19.8973C39.5963 19.945 39.8367 20.1469 39.9377 20.4359C40.0386 20.725 39.9753 21.0332 39.7679 21.259L37.6135 23.6069C35.2105 23.061 32.6992 23.0619 30.2962 23.6069L28.1418 21.259C27.9344 21.0332 27.8711 20.7259 27.972 20.4359C28.073 20.1469 28.3134 19.945 28.6161 19.8973L29.5465 19.7496L30.6733 22.2095C30.7467 22.371 30.9375 22.4417 31.099 22.3683C31.2605 22.2939 31.3311 22.104 31.2577 21.9425L29.7713 18.6963C29.7181 18.5797 29.719 18.4458 29.775 18.3302C29.831 18.2146 29.9347 18.1301 30.0585 18.099L30.5366 17.9797C32.7625 17.4255 35.116 17.4236 37.3429 17.9742ZM32.824 3.8936V16.9649C32.0009 17.0273 31.1834 17.1566 30.3815 17.3567L29.9035 17.4759C29.5924 17.553 29.3346 17.7631 29.196 18.0522C29.0575 18.3403 29.0538 18.6733 29.1869 18.9642L29.2694 19.144L28.5161 19.2642C28.0876 19.3321 27.728 19.5734 27.5087 19.9285H26.1177C25.691 19.9285 25.3442 20.2754 25.3442 20.702V23.551C25.3442 23.9776 25.691 24.3245 26.1177 24.3245H28.3996C28.5767 24.3245 28.7207 24.1804 28.7207 24.0033C28.7207 23.8262 28.5767 23.6822 28.3996 23.6822H26.1177C26.0452 23.6822 25.9865 23.6235 25.9865 23.551V20.702C25.9865 20.6295 26.0452 20.5708 26.1177 20.5708H27.2912C27.2508 20.9773 27.3821 21.3801 27.6702 21.6939L29.6328 23.8336C29.5144 23.9373 29.441 24.0877 29.441 24.2529V25.5081C29.441 25.6365 29.4841 25.7577 29.5621 25.8549C29.4997 25.9283 29.4392 26.0017 29.3786 26.076C29.2584 26.0008 29.1171 25.9568 28.9676 25.9568H26.1186C25.6919 25.9568 25.3451 26.3036 25.3451 26.7302V29.5792C25.3451 30.0059 25.6919 30.3527 26.1186 30.3527H26.5664C24.8937 33.6301 24.0028 37.2792 24.0028 41.0154V43.0423C24.0028 43.9644 24.4322 44.7883 25.102 45.3251H5.67857C4.59312 45.3251 3.71045 44.4424 3.71045 43.357V3.8936C3.71045 2.80815 4.59312 1.92548 5.67857 1.92548H30.8559C31.9413 1.92548 32.824 2.80815 32.824 3.8936Z" fill="white"/>
<path d="M6.45544 16.238H30.0784C30.4298 16.238 30.7143 15.9536 30.7143 15.6022V9.68957C30.7143 9.33815 30.4298 9.05371 30.0784 9.05371H6.45544C6.10402 9.05371 5.81958 9.33815 5.81958 9.68957V15.6022C5.81958 15.9527 6.10493 16.238 6.45544 16.238Z" fill="white"/>
<path d="M27.8984 36.512C27.8984 39.8564 30.6098 42.5687 33.9551 42.5687C37.3005 42.5687 40.0118 39.8574 40.0118 36.512C40.0118 33.1667 37.3005 30.4553 33.9551 30.4553C30.6107 30.4553 27.8984 33.1676 27.8984 36.512ZM34.4478 32.3555V33.1859C35.3947 33.219 36.1609 33.9796 36.1994 34.9256C36.2013 34.9669 36.1673 35.0008 36.126 35.0008H35.2865C35.2488 35.0008 35.2167 34.9724 35.214 34.9348C35.18 34.5072 34.8213 34.1695 34.3854 34.1695H33.6211C33.0954 34.1695 32.6706 34.6099 32.6972 35.1412C32.7219 35.6385 33.1504 36.0202 33.6487 36.0202H34.2515C35.303 36.0202 36.1875 36.8524 36.2013 37.903C36.215 38.915 35.4369 39.7518 34.4488 39.8326V40.6685C34.4488 40.7088 34.4157 40.7419 34.3753 40.7419H33.5367C33.4963 40.7419 33.4633 40.7088 33.4633 40.6685V39.8381C32.5164 39.806 31.7503 39.0444 31.7117 38.0984C31.7099 38.0571 31.7438 38.0232 31.7851 38.0232H32.6247C32.6623 38.0232 32.6944 38.0516 32.6972 38.0893C32.7311 38.5168 33.0899 38.8545 33.5257 38.8545H34.29C34.8158 38.8545 35.2406 38.4141 35.214 37.8828C35.1892 37.3855 34.7607 37.0038 34.2634 37.0038H33.6606C32.6091 37.0038 31.7246 36.1716 31.7108 35.121C31.6971 34.109 32.4751 33.2722 33.4633 33.1914V32.3555C33.4633 32.3152 33.4963 32.2821 33.5367 32.2821H34.3753C34.4148 32.2821 34.4478 32.3152 34.4478 32.3555Z" fill="white"/>
</svg>
