<svg width="47" height="47" viewBox="0 0 47 47" fill="none" xmlns="http://www.w3.org/2000/svg">
<g clip-path="url(#clip0_0_5934)">
<path d="M46.0726 15.3054L45.4723 15.0953L45.505 15.0017C45.7297 14.3605 45.5596 13.6592 45.0748 13.1908L45.5523 11.8275C45.7824 11.1708 45.4368 10.4523 44.7802 10.2222C44.1235 9.9921 43.405 10.3377 43.174 10.9944L42.6965 12.3568C42.0244 12.4196 41.4532 12.8616 41.2286 13.5037L39.1712 19.3736V3.0262C39.1712 2.19401 38.4946 1.51733 37.6624 1.51733H11.2376C10.4054 1.51733 9.72876 2.19401 9.72876 3.0262V36.6842C9.72876 36.7688 9.76241 36.8498 9.82153 36.9098L15.7942 42.8825C15.8515 42.9389 15.9298 42.9735 16.0162 42.9735H37.6633C38.4955 42.9735 39.1722 42.2968 39.1722 41.4646V35.4901C39.1722 35.3145 39.0294 35.1717 38.8538 35.1717C38.6783 35.1717 38.5355 35.3145 38.5355 35.4901V41.4646C38.5355 41.9457 38.1444 42.3368 37.6633 42.3368H16.3363V37.5355C16.3363 36.8907 15.8124 36.3668 15.1676 36.3668H12.4C12.2244 36.3668 12.0816 36.5096 12.0816 36.6852C12.0816 36.8607 12.2244 37.0035 12.4 37.0035H15.1676C15.4614 37.0035 15.6997 37.2418 15.6997 37.5355V41.8866L10.3663 36.5533V3.0262C10.3663 2.54507 10.7574 2.15399 11.2385 2.15399H37.6651C38.1462 2.15399 38.5373 2.54507 38.5373 3.0262V21.1908L35.2249 30.6424C34.8547 31.6974 34.8047 32.8289 35.0794 33.913L35.3386 34.9353C35.385 35.1181 35.485 35.2782 35.6224 35.3982L35.3013 36.3168C35.2431 36.4823 35.3304 36.6642 35.4969 36.7224C35.5314 36.7343 35.5669 36.7406 35.6014 36.7406C35.7333 36.7406 35.8561 36.6588 35.9016 36.5269L36.2163 35.6247H36.2235C36.4245 35.6247 36.6219 35.5583 36.7847 35.431L37.6224 34.777C38.4809 34.1067 39.1249 33.209 39.485 32.1804L43.6406 20.3232C43.6415 20.3204 43.6424 20.3186 43.6433 20.3168C43.6442 20.315 43.6442 20.3132 43.6442 20.3113L45.2613 15.6974L45.8616 15.9075C45.898 15.9203 45.9152 15.9484 45.9216 15.963C45.928 15.9785 45.9371 16.0094 45.9216 16.0449L43.9443 20.4796C43.9307 20.5096 43.9225 20.5414 43.9189 20.5742L43.5796 23.6283C43.5605 23.8029 43.686 23.9603 43.8607 23.9803C43.8725 23.9812 43.8843 23.9821 43.8961 23.9821C44.0562 23.9821 44.1945 23.8621 44.2117 23.6992L44.5455 20.6942L46.5028 16.305C46.5864 16.1167 46.5883 15.9002 46.5064 15.712C46.4246 15.5237 46.2672 15.3736 46.0726 15.3054ZM38.8857 31.9694C38.5655 32.8825 37.9934 33.6792 37.2313 34.2741L36.3936 34.928C36.2872 35.0117 36.1763 34.9862 36.1335 34.9717C36.129 34.9698 36.1235 34.968 36.1171 34.9653C36.1144 34.9644 36.1126 34.9626 36.1108 34.9626H36.1099C36.0607 34.9407 35.9825 34.8898 35.9543 34.7779L35.696 33.7566C35.4523 32.7943 35.4969 31.7902 35.8252 30.8534L39.8634 19.3291L42.9375 20.4059L38.8857 31.9694ZM44.9048 14.7916L44.7665 15.1854L43.1476 19.8047L40.0735 18.7279L41.8306 13.7147C41.978 13.2945 42.36 13.0089 42.8047 12.9871C42.8475 12.9853 42.8902 12.9844 42.9321 12.9844C43.5469 12.9844 44.1335 13.2063 44.5974 13.6156C44.9321 13.9093 45.0521 14.3714 44.9048 14.7916Z" fill="white"/>
<path d="M24.2218 38.8296L24.792 38.4622C25.697 37.8792 26.8721 37.9356 27.7161 38.6032L28.2354 39.0143C28.4992 39.2225 28.8402 39.3135 29.1722 39.2635C29.5042 39.2134 29.8043 39.027 29.9953 38.7505C30.1681 38.5004 30.5083 38.4249 30.7702 38.5795L31.7688 39.168C32.0262 39.3199 32.3091 39.3935 32.5892 39.3935C33.0203 39.3935 33.446 39.218 33.7606 38.8833C33.9435 38.6877 34.2027 38.5759 34.4701 38.5759C34.6456 38.5759 34.7884 38.4331 34.7884 38.2576C34.7884 38.082 34.6456 37.9392 34.4701 37.9392C34.0271 37.9392 33.5997 38.1248 33.2968 38.4476C32.983 38.7814 32.4882 38.8533 32.0935 38.6204L31.094 38.0311C30.5455 37.7082 29.8334 37.8646 29.4714 38.3885C29.3786 38.5222 29.2395 38.6095 29.0785 38.6341C28.9184 38.6577 28.7584 38.6159 28.631 38.5149L28.1117 38.1038C27.054 37.2671 25.5815 37.1962 24.4482 37.9265L23.878 38.2939C23.7306 38.3894 23.6879 38.5859 23.7825 38.7341C23.8771 38.8824 24.0744 38.9251 24.2218 38.8296Z" fill="white"/>
<path d="M33.2656 21.9265H15.6357C15.4602 21.9265 15.3174 22.0693 15.3174 22.2448C15.3174 22.4204 15.4602 22.5632 15.6357 22.5632H33.2656C33.4411 22.5632 33.5839 22.4204 33.5839 22.2448C33.5839 22.0693 33.442 21.9265 33.2656 21.9265Z" fill="white"/>
<path d="M33.2656 26.1331H15.6357C15.4602 26.1331 15.3174 26.2758 15.3174 26.4514C15.3174 26.6269 15.4602 26.7697 15.6357 26.7697H33.2656C33.4411 26.7697 33.5839 26.6269 33.5839 26.4514C33.5839 26.2758 33.442 26.1331 33.2656 26.1331Z" fill="white"/>
<path d="M15.5295 30.977H33.2658C33.4413 30.977 33.5841 30.8342 33.5841 30.6587C33.5841 30.4831 33.4413 30.3403 33.2658 30.3403H15.5295C15.354 30.3403 15.2112 30.4831 15.2112 30.6587C15.2112 30.8342 15.354 30.977 15.5295 30.977Z" fill="white"/>
<path d="M15.5295 35.1843H24.9847C25.1603 35.1843 25.303 35.0415 25.303 34.8659C25.303 34.6904 25.1603 34.5476 24.9847 34.5476H15.5295C15.354 34.5476 15.2112 34.6904 15.2112 34.8659C15.2112 35.0415 15.354 35.1843 15.5295 35.1843Z" fill="white"/>
<path d="M32.8921 12.9444L31.292 4.51355C31.2568 4.32734 31.0908 4.19214 30.8973 4.19214H18.0043C17.8111 4.19214 17.6449 4.32734 17.6096 4.51355L16.0096 12.9444C15.9876 13.0598 16.019 13.1775 16.0955 13.2679C16.172 13.3583 16.2844 13.41 16.4042 13.41H23.5043V16.8176H22.6279C22.5696 16.8176 22.512 16.8364 22.4655 16.871L21.3971 17.6637C21.3304 17.7133 21.2902 17.7921 21.2902 17.8739V18.7556C21.2902 18.8217 21.3451 18.8754 21.4125 18.8754H27.4888C27.5562 18.8754 27.611 18.8217 27.611 18.7556V17.8739C27.611 17.7917 27.5712 17.713 27.5042 17.6637L26.4357 16.871C26.3893 16.8364 26.3316 16.8176 26.2733 16.8176H25.3973V13.9114C25.3973 13.8453 25.3425 13.7916 25.2751 13.7916C25.2077 13.7916 25.1528 13.8453 25.1528 13.9114V16.8176H23.7488V13.4096H32.4977C32.6175 13.4096 32.73 13.3579 32.8065 13.2676C32.883 13.1772 32.9141 13.0598 32.8921 12.9444ZM26.2883 17.062L27.3568 17.8547C27.3627 17.8591 27.3665 17.8663 27.3665 17.8739V18.6358H26.5328C26.6917 18.4934 26.7462 18.249 26.6156 18.0454L25.982 17.0572H26.2737C26.2789 17.0568 26.2841 17.0585 26.2883 17.062ZM32.6182 13.1146C32.5882 13.1498 32.5445 13.17 32.4977 13.17H16.4039C16.3571 13.17 16.3131 13.1498 16.2834 13.1146C16.2537 13.0793 16.2411 13.0334 16.2499 12.9883L17.8502 4.55736C17.8638 4.4848 17.9288 4.43174 18.0043 4.43174H30.8973C30.9728 4.43174 31.0378 4.48445 31.0514 4.55736L32.6518 12.9883C32.6605 13.0334 32.6483 13.0793 32.6182 13.1146Z" fill="white"/>
<path d="M23.5466 7.04998H25.2126C25.2556 7.04998 25.2891 7.01438 25.2863 6.97263L25.1693 5.22524C25.1668 5.18725 25.1344 5.15747 25.0956 5.15747H23.6636C23.6244 5.15747 23.5923 5.18725 23.5899 5.22524L23.4729 6.97263C23.4697 7.01438 23.5036 7.04998 23.5466 7.04998Z" fill="white"/>
<path d="M23.3779 9.5621H25.3806C25.4236 9.5621 25.4571 9.5265 25.4543 9.48474L25.3415 7.80239C25.3391 7.7644 25.3066 7.73462 25.2678 7.73462H23.4903C23.4512 7.73462 23.4191 7.7644 23.4167 7.80239L23.3038 9.48474C23.3014 9.5265 23.3349 9.5621 23.3779 9.5621Z" fill="white"/>
<path d="M22.8152 5.15747H21.1474C21.1104 5.15747 21.0789 5.18451 21.074 5.22045L20.84 6.96783C20.8341 7.0113 20.8687 7.04998 20.9134 7.04998H22.6982C22.7373 7.04998 22.7694 7.0202 22.7719 6.98221L22.8889 5.23483C22.8917 5.19273 22.8581 5.15747 22.8152 5.15747Z" fill="white"/>
<path d="M26.2293 9.5621H28.1824C28.2271 9.5621 28.2617 9.52342 28.2558 9.47995L28.0305 7.7976C28.0256 7.76166 27.9942 7.73462 27.9572 7.73462H26.1168C26.0739 7.73462 26.0403 7.77022 26.0431 7.81198L26.1559 9.49432C26.158 9.53232 26.1902 9.5621 26.2293 9.5621Z" fill="white"/>
<path d="M28.6996 7.04998H30.6025C30.6489 7.04998 30.6839 7.00891 30.6751 6.96407L30.3433 5.21669C30.3367 5.18246 30.3063 5.15747 30.2707 5.15747H28.4656C28.4209 5.15747 28.3863 5.19615 28.3923 5.23962L28.6263 6.987C28.6312 7.02294 28.6626 7.04998 28.6996 7.04998Z" fill="white"/>
<path d="M20.5767 9.5621H22.5298C22.5689 9.5621 22.6011 9.53232 22.6035 9.49432L22.7163 7.81198C22.7191 7.77022 22.6852 7.73462 22.6426 7.73462H20.8023C20.7653 7.73462 20.7338 7.76166 20.729 7.7976L20.5037 9.47995C20.4974 9.52342 20.532 9.5621 20.5767 9.5621Z" fill="white"/>
<path d="M26.0607 7.04998H27.8455C27.8902 7.04998 27.9248 7.0113 27.9189 6.96783L27.6849 5.22045C27.68 5.18451 27.6485 5.15747 27.6115 5.15747H25.9437C25.9011 5.15747 25.8672 5.19307 25.87 5.23483L25.987 6.98221C25.9895 7.0202 26.022 7.04998 26.0607 7.04998Z" fill="white"/>
<path d="M17.6795 9.5621H19.7224C19.7594 9.5621 19.7908 9.53505 19.7957 9.49911L20.021 7.81677C20.0269 7.7733 19.9924 7.73462 19.9476 7.73462H17.9987C17.9631 7.73462 17.9323 7.75961 17.926 7.79384L17.6068 9.47618C17.5981 9.52068 17.633 9.5621 17.6795 9.5621Z" fill="white"/>
<path d="M20.1329 6.987L20.3669 5.23962C20.3728 5.19615 20.3382 5.15747 20.2935 5.15747H18.4885C18.4528 5.15747 18.4221 5.18246 18.4158 5.21669L18.084 6.96407C18.0756 7.00857 18.1106 7.04998 18.1567 7.04998H20.0595C20.0965 7.05032 20.128 7.02328 20.1329 6.987Z" fill="white"/>
<path d="M19.6116 10.2468H17.5222C17.4866 10.2468 17.4559 10.2718 17.4496 10.306L17.064 12.3382C17.0556 12.3827 17.0905 12.4241 17.1366 12.4241H19.3392C19.3762 12.4241 19.4076 12.3971 19.4125 12.3611L19.6849 10.329C19.6909 10.2852 19.6563 10.2468 19.6116 10.2468Z" fill="white"/>
<path d="M29.0742 10.3287L29.3466 12.3609C29.3515 12.3968 29.3829 12.4239 29.4199 12.4239H31.6225C31.6689 12.4239 31.7038 12.3828 31.6951 12.338L31.3095 10.3058C31.3029 10.2716 31.2725 10.2466 31.2369 10.2466H29.1475C29.1028 10.2469 29.0682 10.2853 29.0742 10.3287Z" fill="white"/>
<path d="M22.4117 12.3561L22.548 10.3239C22.5508 10.2822 22.5169 10.2466 22.4743 10.2466H20.4656C20.4286 10.2466 20.3971 10.2736 20.3922 10.3096L20.1198 12.3417C20.1139 12.3852 20.1484 12.4239 20.1932 12.4239H22.338C22.3772 12.4239 22.4093 12.3944 22.4117 12.3561Z" fill="white"/>
<path d="M25.4367 10.2468H23.3229C23.2837 10.2468 23.2516 10.2766 23.2492 10.3146L23.113 12.3468C23.1102 12.3885 23.144 12.4241 23.1867 12.4241H25.5729C25.6155 12.4241 25.6494 12.3885 25.6466 12.3468L25.5104 10.3146C25.5079 10.2763 25.4758 10.2468 25.4367 10.2468Z" fill="white"/>
<path d="M28.294 10.2468H26.2853C26.2423 10.2468 26.2088 10.2824 26.2116 10.3242L26.3478 12.3563C26.3502 12.3943 26.3827 12.4241 26.4215 12.4241H28.5664C28.6111 12.4241 28.6457 12.3854 28.6397 12.342L28.3673 10.3098C28.3624 10.2739 28.331 10.2468 28.294 10.2468Z" fill="white"/>
<path d="M30.76 7.73462H28.8111C28.7664 7.73462 28.7318 7.7733 28.7377 7.81677L28.963 9.49911C28.9679 9.53505 28.9993 9.5621 29.0364 9.5621H31.0793C31.1257 9.5621 31.1606 9.52102 31.1519 9.47618L30.8327 7.79384C30.826 7.75926 30.7956 7.73462 30.76 7.73462Z" fill="white"/>
<path d="M10.1816 36.9265L3.92967 8.39755C3.75763 7.61249 4.25458 6.83661 5.03964 6.66457L10.067 5.56286" stroke="white" stroke-width="0.727604"/>
</g>
<defs>
<clipPath id="clip0_0_5934">
<rect width="46.5667" height="46.5667" fill="white" transform="translate(0 0.377686)"/>
</clipPath>
</defs>
</svg>
