<svg width="47" height="47" viewBox="0 0 47 47" fill="none" xmlns="http://www.w3.org/2000/svg">
<path d="M24.5151 27.8305L24.116 20.5364C24.0981 20.2091 23.8275 19.9529 23.4997 19.9529H17.3712C17.0435 19.9529 16.7729 20.2091 16.755 20.5364L16.3559 27.8305C16.3366 28.1841 16.6181 28.4814 16.9722 28.4814H23.8988C24.2529 28.4814 24.5344 28.1841 24.5151 27.8305Z" fill="white"/>
<path fill-rule="evenodd" clip-rule="evenodd" d="M27.1544 19.9529H25.3721C25.018 19.9529 24.7365 20.2502 24.7558 20.6038L25.1549 27.898C25.1728 28.2252 25.4434 28.4814 25.7712 28.4814H32.3661C32.745 28.4814 33.0344 28.1433 32.9759 27.7691L32.3042 23.4668C30.3017 22.7405 28.5359 21.5201 27.1544 19.9529Z" fill="white"/>
<path d="M17.4737 19.3176H23.3976C23.7517 19.3176 24.0332 19.0202 24.0138 18.6667L23.6929 12.801C23.675 12.4737 23.4044 12.2175 23.0767 12.2175H17.7946C17.4668 12.2175 17.1962 12.4737 17.1783 12.801L16.8574 18.6667C16.838 19.0202 17.1195 19.3176 17.4737 19.3176Z" fill="white"/>
<path d="M16.2175 18.7343L16.5384 12.8687C16.5578 12.5151 16.2763 12.2178 15.9221 12.2178H10.8512C10.5471 12.2178 10.2883 12.4393 10.2414 12.7398L9.32588 18.6054C9.26746 18.9797 9.55687 19.3178 9.93568 19.3178H15.6012C15.929 19.3178 16.1996 19.0616 16.2175 18.7343Z" fill="white"/>
<path fill-rule="evenodd" clip-rule="evenodd" d="M24.4438 14.9087L24.6531 18.7342C24.671 19.0615 24.9416 19.3176 25.2694 19.3176H26.63C25.6317 18.0244 24.8796 16.5313 24.4438 14.9087Z" fill="white"/>
<path d="M15.4988 19.9529H9.64379C9.33968 19.9529 9.08089 20.1744 9.03399 20.4749L7.89546 27.7691C7.83704 28.1434 8.12645 28.4814 8.50527 28.4814H15.0998C15.4275 28.4814 15.6981 28.2252 15.716 27.898L16.1151 20.6038C16.1345 20.2502 15.853 19.9529 15.4988 19.9529Z" fill="white"/>
<path fill-rule="evenodd" clip-rule="evenodd" d="M24.1555 9.74902H8.29286C6.87897 9.74902 5.67188 10.7117 5.35744 12.09L1.14201 30.5619C1.13669 30.5851 1.13403 30.6088 1.13403 30.6325V33.1037C1.13403 34.1009 1.94526 34.9121 2.94237 34.9121H17.4523L16.5975 42.3219H12.4529C12.0403 42.3219 11.6739 42.5843 11.541 42.9748L11.0168 44.5148C10.9455 44.7242 10.951 44.9496 11.0247 45.1534H8.6446C8.46926 45.1534 8.32706 45.2955 8.32706 45.4709C8.32706 45.6463 8.46926 45.7885 8.6446 45.7885H32.2263C32.4017 45.7885 32.5439 45.6463 32.5439 45.4709C32.5439 45.2955 32.4017 45.1534 32.2263 45.1534H29.8462C29.92 44.9496 29.9254 44.7242 29.8541 44.5147L29.33 42.9748C29.1969 42.5843 28.8304 42.3219 28.418 42.3219H24.2734L23.4185 34.9121H37.9281C38.9253 34.9121 39.7365 34.1009 39.7365 33.1037V31.0096C39.7365 30.7358 39.7056 30.4615 39.6447 30.1943L38.2556 24.1082C38.0452 24.136 37.8332 24.1586 37.6196 24.1758L39.0209 30.3151H3.48239C3.30705 30.3151 3.16484 30.4573 3.16484 30.6327C3.16484 30.8081 3.30705 30.9502 3.48239 30.9502H39.0998C39.1002 30.97 39.1014 30.9898 39.1014 31.0096V33.1037C39.1014 33.7507 38.5751 34.277 37.9281 34.277H2.94237C2.29541 34.277 1.76912 33.7507 1.76912 33.1037V30.6683L5.97658 12.2313C6.22475 11.1437 7.1772 10.3841 8.29286 10.3841H24.0763C24.0974 10.1708 24.1238 9.95906 24.1555 9.74902ZM11.618 44.7194C11.5835 44.8208 11.5995 44.929 11.6619 45.0162C11.7243 45.1034 11.8215 45.1534 11.9288 45.1534H14.2416C14.1502 44.999 14.1211 44.8066 14.1856 44.6171C14.4363 43.8805 14.9619 43.2944 15.6245 42.957H12.4529C12.3123 42.957 12.1875 43.0464 12.1422 43.1794L11.618 44.7194ZM17.2367 42.3219H23.6342L22.7793 34.9121H18.0915L17.2367 42.3219Z" fill="white"/>
<path d="M24.9768 32.9315C25.1521 32.9315 25.2943 32.7893 25.2943 32.6139C25.2943 32.4385 25.1521 32.2964 24.9768 32.2964H15.8935C15.7181 32.2964 15.5759 32.4385 15.5759 32.6139C15.5759 32.7893 15.7181 32.9315 15.8935 32.9315H24.9768Z" fill="white"/>
<g clip-path="url(#clip0_0_5982)">
<circle cx="35.4877" cy="12.2177" r="9.6603" stroke="white" stroke-width="0.580652"/>
<path d="M40.8165 10.5368C40.5812 10.5026 40.3565 10.4157 40.1593 10.2827C39.9622 10.1496 39.7975 9.97379 39.6777 9.76831C39.5579 9.56282 39.486 9.33295 39.4674 9.09582C39.4487 8.85869 39.4838 8.62041 39.57 8.39871C39.6248 8.25378 39.6329 8.09533 39.5931 7.94558C39.5533 7.79583 39.4677 7.66229 39.3482 7.56367C38.8205 7.1206 38.2199 6.77253 37.5732 6.53499C37.4259 6.48028 37.2651 6.47345 37.1137 6.51546C36.9624 6.55747 36.8281 6.64618 36.7301 6.76896C36.5825 6.95762 36.394 7.1102 36.1787 7.21513C35.9634 7.32007 35.7271 7.37461 35.4876 7.37461C35.2481 7.37461 35.0117 7.32007 34.7965 7.21513C34.5812 7.1102 34.3926 6.95762 34.2451 6.76896C34.1471 6.64618 34.0128 6.55747 33.8614 6.51546C33.71 6.47345 33.5493 6.48028 33.402 6.53499C32.8048 6.7543 32.2465 7.06751 31.748 7.46282C31.6224 7.56228 31.5319 7.69936 31.4898 7.85398C31.4477 8.0086 31.4562 8.17263 31.5141 8.32207C31.6071 8.54962 31.6456 8.79583 31.6264 9.04093C31.6071 9.28604 31.5307 9.52322 31.4032 9.73345C31.2757 9.94368 31.1008 10.1211 30.8923 10.2515C30.6839 10.3819 30.4478 10.4616 30.203 10.4843C30.0441 10.5013 29.8948 10.5689 29.7771 10.6771C29.6595 10.7853 29.5797 10.9284 29.5495 11.0854C29.4744 11.4572 29.4365 11.8356 29.4365 12.2149C29.436 12.5325 29.4616 12.8496 29.5132 13.1629C29.5388 13.3249 29.6172 13.4739 29.736 13.587C29.8549 13.7 30.0076 13.7707 30.1707 13.7882C30.4209 13.8117 30.6618 13.8947 30.8733 14.0304C31.0848 14.1661 31.2607 14.3505 31.3864 14.5682C31.512 14.7858 31.5836 15.0304 31.5953 15.2814C31.607 15.5324 31.5584 15.7826 31.4535 16.0109C31.3849 16.1595 31.3679 16.3267 31.4052 16.486C31.4425 16.6453 31.5319 16.7877 31.6593 16.8904C32.1838 17.3254 32.7786 17.6678 33.4181 17.9029C33.4999 17.9312 33.5857 17.9462 33.6723 17.9473C33.7909 17.947 33.9078 17.9183 34.0131 17.8636C34.1184 17.8088 34.209 17.7296 34.2774 17.6326C34.4212 17.4231 34.6139 17.2519 34.8388 17.1338C35.0638 17.0157 35.3142 16.9543 35.5683 16.9549C35.8144 16.9552 36.0571 17.013 36.2771 17.1237C36.497 17.2343 36.688 17.3948 36.835 17.5923C36.9327 17.7237 37.0712 17.8191 37.2288 17.8636C37.3864 17.9081 37.5543 17.8992 37.7063 17.8384C38.2911 17.603 38.8356 17.2777 39.3199 16.8742C39.4416 16.7736 39.5282 16.637 39.5674 16.4841C39.6065 16.3311 39.5961 16.1697 39.5378 16.023C39.4429 15.7984 39.4015 15.5548 39.4169 15.3115C39.4323 15.0681 39.5041 14.8317 39.6265 14.6208C39.749 14.4099 39.9188 14.2304 40.1225 14.0964C40.3262 13.9624 40.5583 13.8776 40.8004 13.8487C40.9574 13.827 41.1034 13.7559 41.2173 13.6456C41.3312 13.5354 41.407 13.3917 41.4338 13.2355C41.4985 12.899 41.5336 12.5575 41.5386 12.2149C41.5387 11.8535 41.5049 11.4929 41.4378 11.1378C41.4105 10.9851 41.3359 10.8448 41.2243 10.7369C41.1128 10.629 40.9701 10.5589 40.8165 10.5368ZM37.5046 12.2149C37.5046 12.6138 37.3863 13.0038 37.1647 13.3355C36.943 13.6672 36.628 13.9257 36.2595 14.0784C35.8909 14.2311 35.4853 14.271 35.0941 14.1932C34.7028 14.1153 34.3434 13.9232 34.0613 13.6412C33.7793 13.3591 33.5872 12.9997 33.5093 12.6084C33.4315 12.2171 33.4714 11.8116 33.6241 11.443C33.7768 11.0745 34.0353 10.7595 34.367 10.5378C34.6987 10.3162 35.0887 10.1979 35.4876 10.1979C36.0225 10.1979 36.5356 10.4104 36.9138 10.7887C37.2921 11.1669 37.5046 11.68 37.5046 12.2149Z" fill="white"/>
</g>
<defs>
<clipPath id="clip0_0_5982">
<rect x="25.5371" y="2.26709" width="19.9013" height="19.9013" rx="9.95063" fill="white"/>
</clipPath>
</defs>
</svg>
