<svg width="47" height="47" viewBox="0 0 47 47" fill="none" xmlns="http://www.w3.org/2000/svg">
<path d="M44.9871 34.231C43.5989 32.8926 42.4472 31.344 41.5637 29.6278C41.484 29.4719 41.2928 29.4103 41.1369 29.491C40.9811 29.5707 40.9203 29.7628 41.0001 29.9177C41.9153 31.6956 43.1087 33.3004 44.5467 34.6877C44.67 34.8064 44.6183 34.9432 44.5993 34.9822C44.5802 35.0211 44.505 35.1471 44.3356 35.1253C41.532 34.7647 38.9286 33.5867 36.8065 31.7183C36.6941 31.6195 36.5283 31.6122 36.4078 31.7019C33.5915 33.7915 30.1663 35.0664 26.5018 35.3863C16.836 36.2317 8.37721 30.1262 7.64686 21.7761C7.29346 17.7392 8.77863 13.783 11.8296 10.6351C14.8915 7.47445 19.1612 5.50813 23.8523 5.09855C28.5434 4.68807 33.0895 5.88327 36.6542 8.46396C40.2045 11.0347 42.3548 14.6728 42.7073 18.7097C42.951 21.4997 42.2922 24.3287 40.8433 26.7907C40.6458 27.1441 40.5071 27.338 40.3422 27.5799C39.7659 28.371 39.1688 28.8449 38.896 29.0379C38.7529 29.1394 38.7193 29.3369 38.8199 29.4801C38.8815 29.568 38.9794 29.6142 39.0791 29.6142C39.1425 29.6142 39.2059 29.5952 39.2621 29.5562C39.5965 29.3197 40.2353 28.7969 40.818 28.0085C41.0037 27.7566 41.1877 27.4739 41.3616 27.1613C42.8975 24.5751 43.5971 21.5957 43.3406 18.6553C42.9709 14.4327 40.7292 10.6314 37.0276 7.95108C33.3396 5.28159 28.6412 4.0438 23.7988 4.46788C18.9564 4.89104 14.5444 6.92533 11.3756 10.1956C10.0518 11.5621 9.01151 13.0762 8.27391 14.6828C5.95237 16.168 4.06941 18.1415 2.82528 20.3978C1.52316 22.7592 0.955914 25.3807 1.18245 27.9786C1.44885 31.0214 2.80625 33.9175 5.00999 36.1475C5.00636 37.8873 3.27745 41.3424 2.21998 42.4406C2.21001 42.4515 2.20095 42.4624 2.19189 42.4741C1.9726 42.775 1.97079 43.1655 2.18827 43.4691C2.35228 43.6983 2.60418 43.8252 2.8715 43.8252C2.95758 43.8252 3.04457 43.8125 3.13156 43.7853C5.67238 42.9925 7.9042 41.4964 9.6014 39.4522C12.56 40.8793 15.9254 41.4738 19.3524 41.1747C22.9797 40.8576 26.3505 39.5709 29.1006 37.455C29.2393 37.3481 29.2656 37.1488 29.1586 37.0101C29.0517 36.8715 28.8533 36.8452 28.7137 36.9521C26.0596 38.9946 22.8039 40.236 19.2971 40.5422C15.8991 40.8395 12.5645 40.2278 9.65668 38.7726C9.52257 38.7055 9.36037 38.7417 9.26704 38.8577C7.63055 40.9047 5.44312 42.3989 2.94218 43.18C2.80807 43.2217 2.73104 43.1383 2.70386 43.1003C2.67758 43.064 2.62684 42.9698 2.6948 42.8629C3.8755 41.6187 5.72856 37.8601 5.64066 35.9998C5.63704 35.9209 5.60351 35.8457 5.54733 35.7895C3.39706 33.6529 2.07047 30.8601 1.81403 27.9251C1.59746 25.4532 2.13933 22.9568 3.37984 20.7059C4.43006 18.8003 5.95872 17.1031 7.83352 15.7493C7.11858 17.6957 6.83405 19.7536 7.01618 21.8341C7.73022 29.9957 15.4904 36.1022 24.7176 36.1022C25.3248 36.1022 25.94 36.0759 26.558 36.0215C30.2505 35.6989 33.7102 34.4349 36.5808 32.3643C38.7628 34.2192 41.4106 35.3908 44.2549 35.7569C44.6428 35.8068 45.0025 35.6119 45.1711 35.2594C45.3414 34.9051 45.2689 34.5019 44.9871 34.231Z" fill="white"/>
<path d="M29.173 13.5984L29.0182 12.3254C28.9888 12.0834 28.7833 11.9014 28.5395 11.9014H23.7082C23.4644 11.9014 23.2589 12.0834 23.2294 12.3254L23.0754 13.5923C23.0405 13.8795 23.264 14.1326 23.5533 14.1328C24.3457 14.1334 25.2182 14.1343 26.1796 14.1354C27.0242 14.1364 27.8701 14.1376 28.6939 14.1389C28.9837 14.1393 29.208 13.886 29.173 13.5984Z" fill="white"/>
<path d="M37.2701 18.7939C35.461 18.7914 33.3579 18.7889 31.1705 18.7866C30.8809 18.7863 30.6561 19.0396 30.6911 19.3271L30.9066 21.0993C30.9361 21.3414 31.1415 21.5234 31.3854 21.5234H37.1616C37.9888 21.5234 38.5219 20.647 38.1415 19.9124L37.6971 19.0542C37.6144 18.8945 37.4499 18.7942 37.2701 18.7939Z" fill="white"/>
<path d="M16.5381 15.2148L15.4761 17.2656C15.3096 17.5872 15.5434 17.9707 15.9056 17.9697C16.9653 17.9664 18.6406 17.9642 21.2941 17.9642C21.5379 17.9642 21.7437 17.7822 21.7731 17.5401L22.0226 15.4888C22.0575 15.2015 21.833 14.9483 21.5436 14.9483C19.6226 14.948 17.9902 14.9497 16.9642 14.9543C16.7847 14.9551 16.6206 15.0554 16.5381 15.2148Z" fill="white"/>
<path d="M22.3925 19.2043L22.1762 20.9827C22.1413 21.2701 22.3655 21.5232 22.6549 21.5232H29.5919C29.8813 21.5232 30.1056 21.2701 30.0706 20.9827L29.8549 19.2087C29.8255 18.9669 29.6204 18.7849 29.3768 18.7847C27.1642 18.7827 24.9257 18.7811 22.8712 18.7803C22.6273 18.7802 22.4219 18.9622 22.3925 19.2043Z" fill="white"/>
<path d="M28.9115 14.955C27.0471 14.9522 25.1205 14.9499 23.3373 14.9487C23.0934 14.9486 22.8879 15.1306 22.8585 15.3728L22.6091 17.4237C22.5741 17.711 22.7979 17.9641 23.0872 17.9642C24.7745 17.9648 26.7787 17.9661 29.1588 17.9684C29.4484 17.9686 29.6733 17.7154 29.6383 17.4279L29.3892 15.3791C29.3598 15.1373 29.155 14.9554 28.9115 14.955Z" fill="white"/>
<path d="M14.554 19.0464L14.1055 19.9123C13.7252 20.6468 14.2583 21.5232 15.0854 21.5232H20.8617C21.1055 21.5232 21.311 21.3412 21.3404 21.0992L21.5568 19.3203C21.5917 19.033 21.3672 18.7799 21.0778 18.7798C18.3497 18.7795 16.118 18.7811 14.9799 18.7859C14.8005 18.7866 14.6365 18.887 14.554 19.0464Z" fill="white"/>
<path d="M22.2394 13.7078L22.3933 12.4419C22.4282 12.1545 22.204 11.9014 21.9146 11.9014H18.5474C18.3672 11.9014 18.202 12.0018 18.1192 12.1619L17.4619 13.431C17.2954 13.7526 17.5291 14.1361 17.8913 14.135C18.7744 14.1325 20.0146 14.1313 21.7605 14.1318C22.0043 14.1319 22.2099 13.9499 22.2394 13.7078Z" fill="white"/>
<path d="M34.7923 13.4451L34.1278 12.1619C34.0449 12.0018 33.8798 11.9014 33.6996 11.9014H30.3324C30.043 11.9014 29.8188 12.1545 29.8537 12.4419L30.0089 13.7177C30.0383 13.9595 30.2436 14.1414 30.4871 14.1418C31.98 14.1443 33.3272 14.147 34.3635 14.1492C34.7255 14.1499 34.9588 13.7665 34.7923 13.4451Z" fill="white"/>
<path d="M35.2887 14.9669C33.9912 14.9641 32.4059 14.9609 30.7053 14.958C30.4155 14.9575 30.1905 15.2108 30.2255 15.4985L30.4746 17.5463C30.504 17.7881 30.7087 17.97 30.9523 17.9703C32.5865 17.9721 34.3791 17.9743 36.3456 17.9769C36.7074 17.9774 36.941 17.5942 36.7746 17.2729L35.7154 15.2274C35.6327 15.0678 35.4685 14.9673 35.2887 14.9669Z" fill="white"/>
<path d="M40.1116 19.3808L35.682 10.8271C35.3883 10.26 34.8092 9.90771 34.1706 9.90771H18.077C17.4384 9.90771 16.8593 10.26 16.5656 10.8271L12.136 19.3808C11.6774 20.2665 11.713 21.3039 12.2313 22.1559C12.7496 23.008 13.6545 23.5167 14.6518 23.5167H24.5929C24.6039 23.5167 24.6126 23.5213 24.6187 23.5303C24.625 23.5393 24.6261 23.5491 24.6222 23.5594L23.1264 27.4706H21.4574C21.1495 27.4706 20.8649 27.6377 20.7146 27.9067C20.6555 28.0126 20.6934 28.1464 20.7993 28.2056C20.9051 28.2647 21.039 28.2268 21.0981 28.1209C21.1708 27.9907 21.3085 27.9098 21.4574 27.9098H30.7903C31.0169 27.9098 31.2013 28.0942 31.2013 28.3208V29.0091H19.3327C19.2114 29.0091 19.1131 29.1074 19.1131 29.2287C19.1131 29.35 19.2114 29.4483 19.3327 29.4483H32.915C33.0362 29.4483 33.1346 29.35 33.1346 29.2287C33.1346 29.1074 33.0362 29.0091 32.915 29.0091H31.6405V28.3208C31.6405 27.852 31.2591 27.4706 30.7903 27.4706H29.1213L27.794 24C27.7506 23.8868 27.6238 23.8301 27.5104 23.8734C27.3971 23.9167 27.3403 24.0437 27.3837 24.157L28.6509 27.4706H23.5967L25.0324 23.7163C25.0878 23.5716 25.0684 23.409 24.9806 23.2813C24.8928 23.1537 24.7479 23.0775 24.5929 23.0775H14.6518C13.8091 23.0775 13.0445 22.6477 12.6066 21.9277C12.1687 21.2077 12.1385 20.3311 12.5261 19.5828L16.9557 11.029C17.1735 10.6083 17.6032 10.3469 18.077 10.3469H34.1706C34.6444 10.3469 35.0741 10.6083 35.2919 11.029L39.7215 19.5828C40.1091 20.3311 40.079 21.2077 39.641 21.9277C39.2031 22.6477 38.4385 23.0775 37.5958 23.0775H25.9033C25.7821 23.0775 25.6837 23.1758 25.6837 23.2971C25.6837 23.4184 25.7821 23.5167 25.9033 23.5167H37.5958C38.5931 23.5167 39.498 23.008 40.0163 22.1559C40.5346 21.3039 40.5702 20.2665 40.1116 19.3808Z" fill="white"/>
<path d="M30.7432 27.7554H23.3873C23.1823 27.7554 22.9878 27.8467 22.8569 28.0044C22.4839 28.4537 22.8034 29.1342 23.3873 29.1342H30.6836C31.0729 29.1342 31.3886 28.8185 31.3886 28.4292V28.4008C31.3886 28.2064 31.301 28.0224 31.1502 27.8999C31.0352 27.8064 30.8914 27.7554 30.7432 27.7554Z" fill="white"/>
</svg>
