<svg width="64" height="64" viewBox="0 0 64 64" fill="none" xmlns="http://www.w3.org/2000/svg">
<path d="M27.6279 9.30727H40.7554C41.2379 9.30727 41.6304 8.91477 41.6304 8.43227V5.82227C41.6304 5.33977 41.2379 4.94727 40.7554 4.94727H27.6279C27.1454 4.94727 26.7529 5.33977 26.7529 5.82227V8.43227C26.7517 8.91477 27.1454 9.30727 27.6279 9.30727ZM39.6904 5.82227H40.7554V8.43352H37.9229C38.8729 7.90477 39.5492 6.94727 39.6904 5.82227Z" fill="#004037"/>
<path d="M14.1928 26.9624H10.3116C9.73031 26.9624 9.25781 27.4349 9.25781 28.0162V31.8974C9.25781 32.4787 9.73031 32.9512 10.3116 32.9512H14.1928C14.7741 32.9512 15.2466 32.4787 15.2466 31.8974V28.0162C15.2478 27.4349 14.7741 26.9624 14.1928 26.9624ZM14.3728 31.8974C14.3728 31.9962 14.2928 32.0762 14.1941 32.0762H10.3116C10.2128 32.0762 10.1328 31.9962 10.1328 31.8974V28.0162C10.1328 27.9174 10.2128 27.8374 10.3116 27.8374H14.1928C14.2916 27.8374 14.3716 27.9174 14.3716 28.0162V31.8974H14.3728Z" fill="#004037"/>
<path d="M22.6166 26.9624H18.7354C18.1541 26.9624 17.6816 27.4349 17.6816 28.0162V31.8974C17.6816 32.4787 18.1541 32.9512 18.7354 32.9512H22.6166C23.1979 32.9512 23.6704 32.4787 23.6704 31.8974V28.0162C23.6704 27.4349 23.1979 26.9624 22.6166 26.9624ZM22.7954 31.8974C22.7954 31.9962 22.7154 32.0762 22.6166 32.0762H18.7354C18.6366 32.0762 18.5566 31.9962 18.5566 31.8974V28.0162C18.5566 27.9174 18.6366 27.8374 18.7354 27.8374H22.6166C22.7154 27.8374 22.7954 27.9174 22.7954 28.0162V31.8974Z" fill="#004037"/>
<path d="M31.0395 26.9624H27.1582C26.577 26.9624 26.1045 27.4349 26.1045 28.0162V31.8974C26.1045 32.4787 26.577 32.9512 27.1582 32.9512H31.0395C31.6207 32.9512 32.0932 32.4787 32.0932 31.8974V28.0162C32.0945 27.4349 31.6207 26.9624 31.0395 26.9624ZM31.2195 31.8974C31.2195 31.9962 31.1395 32.0762 31.0407 32.0762H27.1595C27.0607 32.0762 26.9807 31.9962 26.9807 31.8974V28.0162C26.9807 27.9174 27.0607 27.8374 27.1595 27.8374H31.0407C31.1395 27.8374 31.2195 27.9174 31.2195 28.0162V31.8974Z" fill="#004037"/>
<path d="M14.1928 35.175H10.3116C9.73031 35.175 9.25781 35.6475 9.25781 36.2288V40.1101C9.25781 40.6913 9.73031 41.1638 10.3116 41.1638H14.1928C14.7741 41.1638 15.2466 40.6913 15.2466 40.1101V36.2288C15.2478 35.6475 14.7741 35.175 14.1928 35.175ZM14.3728 40.1113C14.3728 40.2101 14.2928 40.2901 14.1941 40.2901H10.3116C10.2128 40.2901 10.1328 40.2101 10.1328 40.1113V36.23C10.1328 36.1313 10.2128 36.0513 10.3116 36.0513H14.1928C14.2916 36.0513 14.3716 36.1313 14.3716 36.23V40.1113H14.3728Z" fill="#004037"/>
<path d="M22.6166 35.175H18.7354C18.1541 35.175 17.6816 35.6475 17.6816 36.2288V40.1101C17.6816 40.6913 18.1541 41.1638 18.7354 41.1638H22.6166C23.1979 41.1638 23.6704 40.6913 23.6704 40.1101V36.2288C23.6704 35.6475 23.1979 35.175 22.6166 35.175ZM22.7954 40.1113C22.7954 40.2101 22.7154 40.2901 22.6166 40.2901H18.7354C18.6366 40.2901 18.5566 40.2101 18.5566 40.1113V36.23C18.5566 36.1313 18.6366 36.0513 18.7354 36.0513H22.6166C22.7154 36.0513 22.7954 36.1313 22.7954 36.23V40.1113Z" fill="#004037"/>
<path d="M31.0395 35.175H27.1582C26.577 35.175 26.1045 35.6475 26.1045 36.2288V40.1101C26.1045 40.6913 26.577 41.1638 27.1582 41.1638H31.0395C31.6207 41.1638 32.0932 40.6913 32.0932 40.1101V36.2288C32.0945 35.6475 31.6207 35.175 31.0395 35.175ZM31.2195 40.1113C31.2195 40.2101 31.1395 40.2901 31.0407 40.2901H27.1595C27.0607 40.2901 26.9807 40.2101 26.9807 40.1113V36.23C26.9807 36.1313 27.0607 36.0513 27.1595 36.0513H31.0407C31.1395 36.0513 31.2195 36.1313 31.2195 36.23V40.1113Z" fill="#004037"/>
<path d="M31.0395 43.3887H27.1582C26.577 43.3887 26.1045 43.8612 26.1045 44.4424V48.3237C26.1045 48.9049 26.577 49.3774 27.1582 49.3774H31.0395C31.6207 49.3774 32.0932 48.9049 32.0932 48.3237V44.4424C32.0945 43.8612 31.6207 43.3887 31.0395 43.3887ZM31.2195 48.3237C31.2195 48.4224 31.1395 48.5024 31.0407 48.5024H27.1595C27.0607 48.5024 26.9807 48.4224 26.9807 48.3237V44.4424C26.9807 44.3437 27.0607 44.2637 27.1595 44.2637H31.0407C31.1395 44.2637 31.2195 44.3437 31.2195 44.4424V48.3237Z" fill="#004037"/>
<path d="M31.0395 51.6013H27.1582C26.577 51.6013 26.1045 52.0738 26.1045 52.6551V56.5363C26.1045 57.1176 26.577 57.5901 27.1582 57.5901H31.0395C31.6207 57.5901 32.0932 57.1176 32.0932 56.5363V52.6551C32.0945 52.0738 31.6207 51.6013 31.0395 51.6013ZM31.2195 56.5376C31.2195 56.6363 31.1395 56.7163 31.0407 56.7163H27.1595C27.0607 56.7163 26.9807 56.6363 26.9807 56.5376V52.6563C26.9807 52.5576 27.0607 52.4776 27.1595 52.4776H31.0407C31.1395 52.4776 31.2195 52.5576 31.2195 52.6563V56.5376Z" fill="#004037"/>
<path d="M14.1928 43.3887H10.3116C9.73031 43.3887 9.25781 43.8612 9.25781 44.4424V48.3237C9.25781 48.9049 9.73031 49.3774 10.3116 49.3774H14.1928C14.7741 49.3774 15.2466 48.9049 15.2466 48.3237V44.4424C15.2478 43.8612 14.7741 43.3887 14.1928 43.3887ZM14.3728 48.3237C14.3728 48.4224 14.2928 48.5024 14.1941 48.5024H10.3116C10.2128 48.5024 10.1328 48.4224 10.1328 48.3237V44.4424C10.1328 44.3437 10.2128 44.2637 10.3116 44.2637H14.1928C14.2916 44.2637 14.3716 44.3437 14.3716 44.4424V48.3237H14.3728Z" fill="#004037"/>
<path d="M22.6166 43.3887H18.7354C18.1541 43.3887 17.6816 43.8612 17.6816 44.4424V48.3237C17.6816 48.9049 18.1541 49.3774 18.7354 49.3774H22.6166C23.1979 49.3774 23.6704 48.9049 23.6704 48.3237V44.4424C23.6704 43.8612 23.1979 43.3887 22.6166 43.3887ZM22.7954 48.3237C22.7954 48.4224 22.7154 48.5024 22.6166 48.5024H18.7354C18.6366 48.5024 18.5566 48.4224 18.5566 48.3237V44.4424C18.5566 44.3437 18.6366 44.2637 18.7354 44.2637H22.6166C22.7154 44.2637 22.7954 44.3437 22.7954 44.4424V48.3237Z" fill="#004037"/>
<path d="M14.1928 51.6013H10.3116C9.73031 51.6013 9.25781 52.0738 9.25781 52.6551V56.5363C9.25781 57.1176 9.73031 57.5901 10.3116 57.5901H14.1928C14.7741 57.5901 15.2466 57.1176 15.2466 56.5363V52.6551C15.2478 52.0738 14.7741 51.6013 14.1928 51.6013ZM14.3728 56.5376C14.3728 56.6363 14.2928 56.7163 14.1941 56.7163H10.3116C10.2128 56.7163 10.1328 56.6363 10.1328 56.5376V52.6563C10.1328 52.5576 10.2128 52.4776 10.3116 52.4776H14.1928C14.2916 52.4776 14.3716 52.5576 14.3716 52.6563V56.5376H14.3728Z" fill="#004037"/>
<path d="M22.6166 51.6013H18.7354C18.1541 51.6013 17.6816 52.0738 17.6816 52.6551V56.5363C17.6816 57.1176 18.1541 57.5901 18.7354 57.5901H22.6166C23.1979 57.5901 23.6704 57.1176 23.6704 56.5363V52.6551C23.6704 52.0738 23.1979 51.6013 22.6166 51.6013ZM22.7954 56.5376C22.7954 56.6363 22.7154 56.7163 22.6166 56.7163H18.7354C18.6366 56.7163 18.5566 56.6363 18.5566 56.5376V52.6563C18.5566 52.5576 18.6366 52.4776 18.7354 52.4776H22.6166C22.7154 52.4776 22.7954 52.5576 22.7954 52.6563V56.5376Z" fill="#004037"/>
<path d="M4.18164 5.11875V58.8825C4.18164 60.8438 5.77664 62.4388 7.73789 62.4388H36.6841H37.1516H55.8366C58.0341 62.4388 59.8216 60.6512 59.8216 58.4538V55.6925C59.8216 48.1138 57.1329 40.8 52.2479 35.0375C52.3541 34.905 52.4129 34.74 52.4129 34.565V32.855C52.4129 32.63 52.3129 32.4237 52.1516 32.2837L54.8254 29.3687C55.3291 28.82 55.4829 28.0712 55.2379 27.3687C54.9929 26.665 54.4066 26.1763 53.6716 26.0588L52.6466 25.8962L52.7579 25.6537C52.9391 25.2563 52.9354 24.8037 52.7454 24.41C52.5554 24.0163 52.2041 23.7312 51.7804 23.6262L51.0879 23.455C49.2941 23.0112 47.4416 22.82 45.5979 22.88V5.11875C45.5979 3.1575 44.0029 1.5625 42.0416 1.5625H7.73664C5.77664 1.5625 4.18164 3.1575 4.18164 5.11875ZM58.9441 55.6912V58.4525C58.9441 60.1675 57.5491 61.5625 55.8341 61.5625H37.1504H36.6829C34.9679 61.5625 33.5729 60.1675 33.5729 58.4525V55.6912C33.5729 48.1712 36.2941 40.92 41.2366 35.2562C44.5266 34.445 47.9904 34.445 51.2804 35.2562C56.2229 40.92 58.9441 48.1712 58.9441 55.6912ZM36.6566 40.29H35.5816C35.4829 40.29 35.4029 40.21 35.4029 40.1113V36.23C35.4029 36.1312 35.4829 36.0513 35.5816 36.0513H39.4504C38.4029 37.3937 37.4704 38.8113 36.6566 40.29ZM40.9829 34.4162V32.9437C44.4366 32.075 48.0816 32.0737 51.5366 32.9437V34.4162C48.0804 33.5562 44.4379 33.5562 40.9829 34.4162ZM50.8741 24.3013L51.5666 24.4725C51.7366 24.515 51.8779 24.6287 51.9541 24.7875C52.0304 24.945 52.0316 25.1275 51.9591 25.2862L49.6854 30.2512C49.5854 30.4712 49.6816 30.73 49.9016 30.8312C49.9604 30.8587 50.0229 30.8713 50.0841 30.8713C50.2504 30.8713 50.4091 30.7762 50.4816 30.6162L52.2654 26.72L53.5316 26.9212C53.9441 26.9862 54.2716 27.2613 54.4091 27.655C54.5466 28.0487 54.4604 28.4688 54.1779 28.7763L51.2429 31.975C47.9691 31.2313 44.5479 31.2325 41.2741 31.975L38.3391 28.7763C38.0566 28.4688 37.9704 28.05 38.1079 27.655C38.2454 27.2613 38.5729 26.9862 38.9854 26.9212L40.2529 26.72L41.7879 30.0713C41.8879 30.2913 42.1479 30.3875 42.3679 30.2875C42.5879 30.1863 42.6841 29.9275 42.5841 29.7075L40.5591 25.285C40.4866 25.1262 40.4879 24.9437 40.5641 24.7862C40.6404 24.6287 40.7816 24.5138 40.9504 24.4713L41.6016 24.3088C44.6341 23.5538 47.8404 23.5513 50.8741 24.3013ZM44.7179 5.11875V22.9263C43.5966 23.0112 42.4829 23.1875 41.3904 23.46L40.7391 23.6225C40.3154 23.7275 39.9641 24.0138 39.7754 24.4075C39.5866 24.8 39.5816 25.2537 39.7629 25.65L39.8754 25.895L38.8491 26.0588C38.2654 26.1513 37.7754 26.48 37.4766 26.9638H35.5816C35.0004 26.9638 34.5279 27.4363 34.5279 28.0175V31.8988C34.5279 32.48 35.0004 32.9525 35.5816 32.9525H38.6904C38.9316 32.9525 39.1279 32.7562 39.1279 32.515C39.1279 32.2738 38.9316 32.0775 38.6904 32.0775H35.5816C35.4829 32.0775 35.4029 31.9975 35.4029 31.8988V28.0175C35.4029 27.9188 35.4829 27.8388 35.5816 27.8388H37.1804C37.1254 28.3925 37.3041 28.9412 37.6966 29.3687L40.3704 32.2837C40.2091 32.425 40.1091 32.63 40.1091 32.855V34.565C40.1091 34.74 40.1679 34.905 40.2741 35.0375C40.1891 35.1375 40.1066 35.2375 40.0241 35.3387C39.8604 35.2362 39.6679 35.1763 39.4641 35.1763H35.5829C35.0016 35.1763 34.5291 35.6488 34.5291 36.23V40.1113C34.5291 40.6925 35.0016 41.165 35.5829 41.165H36.1929C33.9141 45.63 32.7004 50.6012 32.7004 55.6912V58.4525C32.7004 59.7087 33.2854 60.8312 34.1979 61.5625H7.73664C6.25789 61.5625 5.05539 60.36 5.05539 58.8812V5.11875C5.05539 3.64 6.25789 2.4375 7.73664 2.4375H42.0366C43.5154 2.4375 44.7179 3.64 44.7179 5.11875Z" fill="#004037"/>
<path d="M8.79496 21.9364H40.9775C41.4562 21.9364 41.8437 21.5489 41.8437 21.0702V13.0152C41.8437 12.5364 41.4562 12.1489 40.9775 12.1489H8.79496C8.31621 12.1489 7.92871 12.5364 7.92871 13.0152V21.0702C7.92871 21.5477 8.31746 21.9364 8.79496 21.9364Z" fill="#F18F29"/>
<path d="M38.0078 49.5562C38.0078 54.1124 41.7016 57.8074 46.2591 57.8074C50.8166 57.8074 54.5103 54.1137 54.5103 49.5562C54.5103 44.9987 50.8166 41.3049 46.2591 41.3049C41.7028 41.3049 38.0078 44.9999 38.0078 49.5562ZM46.9303 43.8937V45.0249C48.2203 45.0699 49.2641 46.1062 49.3166 47.3949C49.3191 47.4512 49.2728 47.4974 49.2166 47.4974H48.0728C48.0216 47.4974 47.9778 47.4587 47.9741 47.4074C47.9278 46.8249 47.4391 46.3649 46.8453 46.3649H45.8041C45.0878 46.3649 44.5091 46.9649 44.5453 47.6887C44.5791 48.3662 45.1628 48.8862 45.8416 48.8862H46.6628C48.0953 48.8862 49.3003 50.0199 49.3191 51.4512C49.3378 52.8299 48.2778 53.9699 46.9316 54.0799V55.2187C46.9316 55.2737 46.8866 55.3187 46.8316 55.3187H45.6891C45.6341 55.3187 45.5891 55.2737 45.5891 55.2187V54.0874C44.2991 54.0437 43.2553 53.0062 43.2028 51.7174C43.2003 51.6612 43.2466 51.6149 43.3028 51.6149H44.4466C44.4978 51.6149 44.5416 51.6537 44.5453 51.7049C44.5916 52.2874 45.0803 52.7474 45.6741 52.7474H46.7153C47.4316 52.7474 48.0103 52.1474 47.9741 51.4237C47.9403 50.7462 47.3566 50.2262 46.6791 50.2262H45.8578C44.4253 50.2262 43.2203 49.0924 43.2016 47.6612C43.1828 46.2824 44.2428 45.1424 45.5891 45.0324V43.8937C45.5891 43.8387 45.6341 43.7937 45.6891 43.7937H46.8316C46.8853 43.7937 46.9303 43.8387 46.9303 43.8937Z" fill="#F18F29"/>
</svg>
