<svg width="64" height="64" viewBox="0 0 64 64" fill="none" xmlns="http://www.w3.org/2000/svg">
<g clip-path="url(#clip0_0_630)">
<path d="M52.4743 21.2289L48.5934 0.779584C48.5079 0.32794 48.1055 0 47.6361 0H16.3637C15.8952 0 15.4919 0.32794 15.4063 0.779584L11.5255 21.2289C11.4721 21.5087 11.5483 21.7943 11.7339 22.0135C11.9194 22.2327 12.1922 22.358 12.4828 22.358H29.7041V37.5515H27.5785C27.437 37.5515 27.2972 37.5972 27.1846 37.681L24.5931 39.6038C24.4313 39.7242 24.3338 39.9152 24.3338 40.1136V42.2523C24.3338 42.4125 24.4668 42.5428 24.6304 42.5428H39.3686C39.5321 42.5428 39.6651 42.4125 39.6651 42.2523V40.1136C39.6651 39.9143 39.5685 39.7234 39.4059 39.6038L36.8144 37.681C36.7017 37.5972 36.5619 37.5515 36.4204 37.5515H34.2957V23.5743C34.2957 23.4141 34.1627 23.2837 33.9992 23.2837C33.8357 23.2837 33.7027 23.4141 33.7027 23.5743V37.5515H30.2971V22.3572H51.5179C51.8085 22.3572 52.0813 22.2318 52.2668 22.0127C52.4523 21.7935 52.5277 21.5087 52.4743 21.2289ZM36.4569 38.1443L39.0484 40.0671C39.0628 40.0779 39.0721 40.0953 39.0721 40.1136V41.9617H37.0499C37.4354 41.6163 37.5675 41.0235 37.2507 40.5295L35.7139 38.1327H36.4213C36.434 38.1318 36.4467 38.136 36.4569 38.1443ZM51.8102 21.6416C51.7373 21.7271 51.6314 21.7761 51.5179 21.7761H12.4819C12.3684 21.7761 12.2616 21.7271 12.1896 21.6416C12.1176 21.556 12.0871 21.4448 12.1083 21.3352L15.99 0.885853C16.0231 0.709845 16.1807 0.58116 16.3637 0.58116H47.6361C47.8191 0.58116 47.9767 0.709015 48.0097 0.885853L51.8915 21.3352C51.9127 21.4448 51.883 21.556 51.8102 21.6416Z" fill="#004037"/>
<path d="M29.979 6.95752H34.0201C34.1243 6.95752 34.2056 6.87118 34.1988 6.76989L33.915 2.53157C33.9091 2.43942 33.8303 2.36719 33.7363 2.36719H30.2629C30.168 2.36719 30.09 2.43942 30.0841 2.53157L29.8003 6.76989C29.7927 6.87118 29.8748 6.95752 29.979 6.95752Z" fill="#F18F29"/>
<path d="M29.5715 13.0503H34.4292C34.5334 13.0503 34.6147 12.9639 34.6079 12.8626L34.3343 8.78206C34.3284 8.68991 34.2496 8.61768 34.1556 8.61768H29.8443C29.7494 8.61768 29.6715 8.68991 29.6655 8.78206L29.3919 12.8626C29.386 12.9639 29.4673 13.0503 29.5715 13.0503Z" fill="#F18F29"/>
<path d="M28.2055 2.36719H24.1602C24.0704 2.36719 23.9942 2.43278 23.9823 2.51995L23.4147 6.75826C23.4003 6.8637 23.4842 6.95752 23.5926 6.95752H27.9217C28.0165 6.95752 28.0945 6.88529 28.1004 6.79313L28.3842 2.55482C28.391 2.4527 28.3097 2.36719 28.2055 2.36719Z" fill="#F18F29"/>
<path d="M36.4861 13.0503H41.2235C41.3319 13.0503 41.4158 12.9564 41.4014 12.851L40.855 8.77044C40.8431 8.68326 40.7669 8.61768 40.6771 8.61768H36.2133C36.1091 8.61768 36.0278 8.70402 36.0346 8.80531L36.3082 12.8859C36.3133 12.978 36.3912 13.0503 36.4861 13.0503Z" fill="#F18F29"/>
<path d="M42.4786 6.95752H47.094C47.2066 6.95752 47.2913 6.85789 47.2702 6.74913L46.4654 2.51082C46.4493 2.42779 46.3756 2.36719 46.2891 2.36719H41.911C41.8025 2.36719 41.7187 2.461 41.7331 2.56644L42.3007 6.80476C42.3125 6.89193 42.3888 6.95752 42.4786 6.95752Z" fill="#F18F29"/>
<path d="M22.7755 13.0503H27.5129C27.6078 13.0503 27.6857 12.978 27.6917 12.8859L27.9653 8.80531C27.9721 8.70402 27.8899 8.61768 27.7866 8.61768H23.3228C23.233 8.61768 23.1568 8.68326 23.1449 8.77044L22.5985 12.851C22.5832 12.9564 22.6671 13.0503 22.7755 13.0503Z" fill="#F18F29"/>
<path d="M36.0782 6.95752H40.4072C40.5157 6.95752 40.5995 6.8637 40.5851 6.75826L40.0175 2.51995C40.0057 2.43278 39.9294 2.36719 39.8396 2.36719H35.7944C35.691 2.36719 35.6088 2.45353 35.6156 2.55482L35.8994 6.79313C35.9054 6.88529 35.9841 6.95752 36.0782 6.95752Z" fill="#F18F29"/>
<path d="M15.7498 13.0503H20.7049C20.7947 13.0503 20.8709 12.9847 20.8828 12.8975L21.4292 8.81693C21.4436 8.71149 21.3598 8.61768 21.2513 8.61768H16.5241C16.4377 8.61768 16.3631 8.67828 16.3479 8.76131L15.5736 12.8419C15.5524 12.9498 15.6371 13.0503 15.7498 13.0503Z" fill="#F18F29"/>
<path d="M21.6991 6.80378L22.2667 2.56547C22.2811 2.46003 22.1972 2.36621 22.0888 2.36621H17.7106C17.6242 2.36621 17.5497 2.42682 17.5344 2.50984L16.7296 6.74815C16.7093 6.85608 16.794 6.95654 16.9058 6.95654H21.5212C21.611 6.95737 21.6872 6.89178 21.6991 6.80378Z" fill="#F18F29"/>
<path d="M20.4352 14.7109H15.3674C15.281 14.7109 15.2065 14.7715 15.1912 14.8546L14.256 19.7836C14.2356 19.8916 14.3203 19.992 14.4322 19.992H19.7744C19.8642 19.992 19.9405 19.9264 19.9523 19.8393L20.6131 14.9102C20.6275 14.8039 20.5437 14.7109 20.4352 14.7109Z" fill="#F18F29"/>
<path d="M43.3864 14.9092L44.0472 19.8383C44.059 19.9255 44.1353 19.991 44.2251 19.991H49.5673C49.68 19.991 49.7647 19.8914 49.7436 19.7827L48.8083 14.8536C48.7922 14.7706 48.7185 14.71 48.6321 14.71H43.5643C43.4558 14.7108 43.372 14.8038 43.3864 14.9092Z" fill="#F18F29"/>
<path d="M27.2268 19.8267L27.5572 14.8976C27.5639 14.7963 27.4818 14.71 27.3784 14.71H22.5063C22.4165 14.71 22.3403 14.7755 22.3284 14.8627L21.6676 19.7918C21.6532 19.8972 21.7371 19.991 21.8455 19.991H27.048C27.1429 19.991 27.2208 19.9196 27.2268 19.8267Z" fill="#F18F29"/>
<path d="M34.5634 14.7109H29.4363C29.3414 14.7109 29.2635 14.7832 29.2575 14.8753L28.9271 19.8044C28.9204 19.9057 29.0025 19.992 29.1059 19.992H34.8938C34.9971 19.992 35.0793 19.9057 35.0725 19.8044L34.7421 14.8753C34.7362 14.7823 34.6583 14.7109 34.5634 14.7109Z" fill="#F18F29"/>
<path d="M41.4946 14.7109H36.6225C36.5183 14.7109 36.437 14.7973 36.4438 14.8986L36.7742 19.8276C36.7801 19.9198 36.8589 19.992 36.9529 19.992H42.1554C42.2638 19.992 42.3477 19.8982 42.3333 19.7928L41.6725 14.8637C41.6606 14.7765 41.5844 14.7109 41.4946 14.7109Z" fill="#F18F29"/>
<path d="M47.4761 8.61768H42.7489C42.6404 8.61768 42.5565 8.71149 42.5709 8.81693L43.1174 12.8975C43.1292 12.9847 43.2055 13.0503 43.2953 13.0503H48.2504C48.3631 13.0503 48.4478 12.9506 48.4266 12.8419L47.6523 8.76131C47.6362 8.67745 47.5625 8.61768 47.4761 8.61768Z" fill="#F18F29"/>
<path d="M17.5567 57.5643H8.10156V47.3102V40.3853H21.6849" stroke="#004037" stroke-width="0.8" stroke-linecap="round"/>
<path d="M46.4433 57.5643H55.8984V47.3102V40.3853H42.3151" stroke="#004037" stroke-width="0.8" stroke-linecap="round"/>
<path d="M31.9996 55.7894C32.1262 55.7894 32.251 55.8186 32.3645 55.8746C32.478 55.9307 32.577 56.0122 32.6539 56.1127C32.7308 56.2133 32.7834 56.3302 32.8078 56.4544C32.8322 56.5786 32.8276 56.7067 32.7945 56.8289L30.8464 64.0001L32.0235 62.6262L32.0292 62.6196L39.273 54.1419H36.1182C35.9652 54.1419 35.8152 54.0993 35.6851 54.0189C35.555 53.9385 35.4498 53.8234 35.3814 53.6866C35.313 53.5498 35.284 53.3966 35.2978 53.2443C35.3115 53.0919 35.3674 52.9464 35.4592 52.824L39.3801 47.5522H33.759L27.8398 55.7894H31.9996Z" fill="#F18F29"/>
<path d="M34.4004 62.3796H41.8838C42.3207 62.3796 42.7398 62.2061 43.0487 61.8971C43.3577 61.5882 43.5312 61.1691 43.5312 60.7322V52.4951C43.5312 52.0582 43.3577 51.6391 43.0487 51.3302C42.7398 51.0212 42.3207 50.8477 41.8838 50.8477H38.9819L37.757 52.4951H41.0601C41.2174 52.4952 41.3714 52.5404 41.5039 52.6252C41.6363 52.7101 41.7417 52.8311 41.8075 52.974C41.8734 53.1169 41.8969 53.2756 41.8754 53.4315C41.8539 53.5873 41.7882 53.7337 41.6861 53.8534L34.4004 62.3796Z" fill="#F18F29"/>
<path d="M22.1152 62.3796H29.5813L30.9223 57.4374H26.2338C26.0823 57.4373 25.9338 57.3955 25.8045 57.3165C25.6753 57.2375 25.5704 57.1244 25.5012 56.9896C25.4321 56.8548 25.4015 56.7036 25.4127 56.5526C25.4239 56.4015 25.4766 56.2565 25.5649 56.1334L29.3639 50.8477H22.1152C21.6783 50.8477 21.2592 51.0212 20.9503 51.3302C20.6413 51.6391 20.4678 52.0582 20.4678 52.4951V60.7322C20.4678 61.1691 20.6413 61.5882 20.9503 61.8971C21.2592 62.2061 21.6783 62.3796 22.1152 62.3796Z" fill="#F18F29"/>
</g>
<defs>
<clipPath id="clip0_0_630">
<rect width="64" height="64" fill="white"/>
</clipPath>
</defs>
</svg>
