<svg width="64" height="64" viewBox="0 0 64 64" fill="none" xmlns="http://www.w3.org/2000/svg">
<path d="M62.0591 46.8274C60.1441 44.9811 58.5553 42.8449 57.3366 40.4774C57.2266 40.2624 56.9628 40.1774 56.7478 40.2886C56.5328 40.3986 56.4491 40.6636 56.5591 40.8774C57.8216 43.3299 59.4678 45.5436 61.4516 47.4574C61.6216 47.6211 61.5503 47.8099 61.5241 47.8636C61.4978 47.9174 61.3941 48.0911 61.1603 48.0611C57.2928 47.5636 53.7016 45.9386 50.7741 43.3611C50.6191 43.2249 50.3903 43.2149 50.2241 43.3386C46.3391 46.2211 41.6141 47.9799 36.5591 48.4211C23.2253 49.5874 11.5566 41.1649 10.5491 29.6461C10.0616 24.0774 12.1103 18.6199 16.3191 14.2774C20.5428 9.91736 26.4328 7.20485 32.9041 6.63986C39.3753 6.07361 45.6466 7.72236 50.5641 11.2824C55.4616 14.8286 58.4278 19.8474 58.9141 25.4161C59.2503 29.2649 58.3416 33.1674 56.3428 36.5636C56.0703 37.0511 55.8791 37.3186 55.6516 37.6524C54.8566 38.7436 54.0328 39.3974 53.6566 39.6636C53.4591 39.8036 53.4128 40.0761 53.5516 40.2736C53.6366 40.3949 53.7716 40.4586 53.9091 40.4586C53.9966 40.4586 54.0841 40.4324 54.1616 40.3786C54.6228 40.0524 55.5041 39.3311 56.3078 38.2436C56.5641 37.8961 56.8178 37.5061 57.0578 37.0749C59.1766 33.5074 60.1416 29.3974 59.7878 25.3411C59.2778 19.5161 56.1853 14.2724 51.0791 10.5749C45.9916 6.89235 39.5103 5.18486 32.8303 5.76986C26.1503 6.35361 20.0641 9.15986 15.6928 13.6711C13.8666 15.5561 12.4316 17.6449 11.4141 19.8611C8.21158 21.9099 5.61408 24.6324 3.89783 27.7449C2.10158 31.0024 1.31908 34.6186 1.63158 38.2024C1.99908 42.3999 3.87158 46.3949 6.91158 49.4711C6.90658 51.8711 4.52158 56.6374 3.06283 58.1524C3.04908 58.1674 3.03658 58.1824 3.02408 58.1986C2.72158 58.6136 2.71908 59.1524 3.01908 59.5711C3.24533 59.8874 3.59283 60.0624 3.96158 60.0624C4.08033 60.0624 4.20033 60.0449 4.32033 60.0074C7.82533 58.9136 10.9041 56.8499 13.2453 54.0299C17.3266 55.9986 21.9691 56.8186 26.6966 56.4061C31.7003 55.9686 36.3503 54.1936 40.1441 51.2749C40.3353 51.1274 40.3716 50.8524 40.2241 50.6611C40.0766 50.4699 39.8028 50.4336 39.6103 50.5811C35.9491 53.3986 31.4578 55.1111 26.6203 55.5336C21.9328 55.9436 17.3328 55.0999 13.3216 53.0924C13.1366 52.9999 12.9128 53.0499 12.7841 53.2099C10.5266 56.0336 7.50908 58.0949 4.05908 59.1724C3.87408 59.2299 3.76783 59.1149 3.73033 59.0624C3.69408 59.0124 3.62408 58.8824 3.71783 58.7349C5.34658 57.0186 7.90283 51.8336 7.78158 49.2674C7.77658 49.1586 7.73033 49.0549 7.65283 48.9774C4.68658 46.0299 2.85658 42.1774 2.50283 38.1286C2.20408 34.7186 2.95158 31.2749 4.66283 28.1699C6.11158 25.5411 8.22033 23.1999 10.8066 21.3324C9.82033 24.0174 9.42783 26.8561 9.67908 29.7261C10.6641 40.9849 21.3691 49.4086 34.0978 49.4086C34.9353 49.4086 35.7841 49.3724 36.6366 49.2974C41.7303 48.8524 46.5028 47.1086 50.4628 44.2524C53.4728 46.8111 57.1253 48.4274 61.0491 48.9324C61.5841 49.0011 62.0803 48.7324 62.3128 48.2461C62.5478 47.7574 62.4478 47.2011 62.0591 46.8274Z" fill="#004037"/>
<path d="M40.2437 18.3654L40.0301 16.6094C39.9895 16.2755 39.706 16.0244 39.3697 16.0244H32.7051C32.3687 16.0244 32.0853 16.2755 32.0447 16.6094L31.8321 18.3571C31.7839 18.7532 32.0924 19.1024 32.4914 19.1027C33.5844 19.1035 34.7881 19.1047 36.1143 19.1063C37.2794 19.1077 38.4463 19.1093 39.5828 19.111C39.9824 19.1116 40.2919 18.7622 40.2437 18.3654Z" fill="#F18F29"/>
<path d="M51.4135 25.5325C48.918 25.5291 46.0168 25.5256 42.9994 25.5225C42.5998 25.5221 42.2897 25.8714 42.338 26.2681L42.6353 28.7128C42.6759 29.0467 42.9593 29.2978 43.2957 29.2978H51.2639C52.4049 29.2978 53.1403 28.0888 52.6156 27.0755L52.0025 25.8916C51.8885 25.6713 51.6616 25.5329 51.4135 25.5325Z" fill="#F18F29"/>
<path d="M22.8149 20.5947L21.3499 23.4238C21.1201 23.8675 21.4427 24.3965 21.9423 24.395C23.4042 24.3906 25.7153 24.3875 29.3757 24.3875C29.712 24.3875 29.9958 24.1364 30.0364 23.8025L30.3806 20.9727C30.4288 20.5764 30.1192 20.2271 29.7199 20.2271C27.0699 20.2267 24.818 20.229 23.4027 20.2354C23.1551 20.2365 22.9288 20.3749 22.8149 20.5947Z" fill="#F18F29"/>
<path d="M30.8902 26.0986L30.5919 28.5519C30.5437 28.9483 30.853 29.2975 31.2523 29.2975H40.8216C41.2209 29.2975 41.5303 28.9483 41.4821 28.5519L41.1844 26.1047C41.1439 25.7711 40.861 25.5201 40.5249 25.5198C37.4727 25.517 34.3848 25.5147 31.5506 25.5137C31.2141 25.5135 30.9308 25.7646 30.8902 26.0986Z" fill="#F18F29"/>
<path d="M39.8836 20.2367C37.3117 20.2328 34.6541 20.2296 32.1942 20.228C31.8576 20.2278 31.5742 20.4789 31.5336 20.813L31.1895 23.6422C31.1413 24.0385 31.45 24.3877 31.8492 24.3878C34.1767 24.3886 36.9414 24.3904 40.2247 24.3935C40.6243 24.3939 40.9345 24.0446 40.8863 23.648L40.5426 20.8216C40.502 20.4881 40.2196 20.2372 39.8836 20.2367Z" fill="#F18F29"/>
<path d="M20.0772 25.8809L19.4587 27.0754C18.934 28.0887 19.6694 29.2977 20.8104 29.2977H28.7786C29.115 29.2977 29.3984 29.0466 29.439 28.7127L29.7375 26.2588C29.7857 25.8625 29.476 25.5133 29.0767 25.5132C25.3134 25.5128 22.2348 25.515 20.6649 25.5216C20.4173 25.5226 20.1911 25.6611 20.0772 25.8809Z" fill="#F18F29"/>
<path d="M30.6795 18.5163L30.8919 16.77C30.9401 16.3736 30.6307 16.0244 30.2314 16.0244H25.5865C25.3379 16.0244 25.1101 16.163 24.9958 16.3838L24.0891 18.1345C23.8594 18.5781 24.1818 19.1071 24.6814 19.1057C25.8996 19.1022 27.6105 19.1006 30.0189 19.1013C30.3553 19.1014 30.6389 18.8503 30.6795 18.5163Z" fill="#F18F29"/>
<path d="M47.9954 18.154L47.0787 16.3838C46.9644 16.163 46.7366 16.0244 46.488 16.0244H41.8431C41.4438 16.0244 41.1345 16.3737 41.1827 16.77L41.3967 18.53C41.4373 18.8635 41.7205 19.1144 42.0564 19.115C44.1159 19.1185 45.9744 19.1222 47.4039 19.1252C47.9032 19.1262 48.225 18.5973 47.9954 18.154Z" fill="#F18F29"/>
<path d="M48.6799 20.2531C46.89 20.2491 44.7032 20.2448 42.3572 20.2407C41.9575 20.24 41.6471 20.5895 41.6954 20.9863L42.0389 23.8112C42.0795 24.1448 42.3619 24.3958 42.698 24.3961C44.9523 24.3986 47.4252 24.4016 50.1379 24.4053C50.637 24.4059 50.9592 23.8772 50.7297 23.4341L49.2685 20.6124C49.1544 20.3921 48.928 20.2536 48.6799 20.2531Z" fill="#F18F29"/>
<path d="M55.3324 26.3424L49.2219 14.5427C48.8167 13.7604 48.0178 13.2744 47.137 13.2744H24.9362C24.0553 13.2744 23.2564 13.7604 22.8513 14.5427L16.7407 26.3424C16.1081 27.5641 16.1572 28.9951 16.8722 30.1706C17.5872 31.346 18.8354 32.0478 20.2112 32.0478H33.9248C33.9398 32.0478 33.9518 32.054 33.9604 32.0665C33.969 32.0789 33.9705 32.0924 33.9651 32.1065L31.9016 37.502H29.5993C29.1746 37.502 28.782 37.7325 28.5747 38.1036C28.4932 38.2497 28.5454 38.4343 28.6915 38.5159C28.8375 38.5975 29.0222 38.5452 29.1037 38.3991C29.2041 38.2194 29.394 38.1079 29.5993 38.1079H42.4738C42.7865 38.1079 43.0408 38.3622 43.0408 38.6749V39.6243H26.6683C26.5011 39.6243 26.3654 39.76 26.3654 39.9273C26.3654 40.0946 26.5011 40.2302 26.6683 40.2302H45.4048C45.5721 40.2302 45.7077 40.0946 45.7077 39.9273C45.7077 39.76 45.5721 39.6243 45.4048 39.6243H43.6467V38.6749C43.6467 38.0281 43.1206 37.502 42.4738 37.502H40.1715L38.3405 32.7144C38.2807 32.5582 38.1058 32.48 37.9493 32.5397C37.793 32.5995 37.7147 32.7746 37.7745 32.9309L39.5227 37.502H32.5504L34.531 32.323C34.6074 32.1234 34.5807 31.8991 34.4595 31.723C34.3384 31.547 34.1385 31.4418 33.9248 31.4418H20.2112C19.0487 31.4418 17.994 30.8489 17.3899 29.8557C16.7858 28.8625 16.7442 27.6533 17.2788 26.621L23.3894 14.8213C23.6899 14.2409 24.2826 13.8803 24.9362 13.8803H47.137C47.7905 13.8803 48.3833 14.2409 48.6838 14.8213L54.7943 26.621C55.329 27.6533 55.2874 28.8625 54.6832 29.8557C54.0791 30.8489 53.0244 31.4418 51.8619 31.4418H35.7324C35.5651 31.4418 35.4295 31.5775 35.4295 31.7448C35.4295 31.9121 35.5651 32.0478 35.7324 32.0478H51.8619C53.2377 32.0478 54.4859 31.346 55.201 30.1706C55.9159 28.9951 55.965 27.5641 55.3324 26.3424Z" fill="#004037"/>
<path d="M42.4092 37.8945H32.2619C31.979 37.8945 31.7109 38.0204 31.5302 38.2381C31.0157 38.8579 31.4564 39.7966 32.2619 39.7966H42.3269C42.8641 39.7966 43.2995 39.3612 43.2995 38.824V38.7848C43.2995 38.5168 43.1787 38.2629 42.9706 38.0939C42.8119 37.9649 42.6137 37.8945 42.4092 37.8945Z" fill="#004037"/>
</svg>
