<svg width="64" height="64" viewBox="0 0 64 64" fill="none" xmlns="http://www.w3.org/2000/svg">
<path d="M33.7758 37.6958L33.226 27.6462C33.2014 27.1953 32.8286 26.8423 32.377 26.8423H23.9334C23.4818 26.8423 23.109 27.1953 23.0843 27.6462L22.5345 37.6958C22.5078 38.183 22.8957 38.5926 23.3836 38.5926H32.9268C33.4147 38.5926 33.8025 38.183 33.7758 37.6958Z" fill="#F18F29"/>
<path fill-rule="evenodd" clip-rule="evenodd" d="M37.4124 26.8423H34.9568C34.4689 26.8423 34.0811 27.2519 34.1077 27.7391L34.6575 37.7887C34.6822 38.2396 35.055 38.5926 35.5066 38.5926H44.593C45.1149 38.5926 45.5136 38.1268 45.4331 37.6111L44.5077 31.6837C41.7486 30.683 39.3159 29.0015 37.4124 26.8423Z" fill="#F18F29"/>
<path d="M24.074 25.9672H32.2357C32.7236 25.9672 33.1115 25.5576 33.0848 25.0704L32.6427 16.9889C32.618 16.538 32.2452 16.1851 31.7936 16.1851H24.5161C24.0646 16.1851 23.6917 16.538 23.6671 16.9889L23.2249 25.0704C23.1983 25.5576 23.5861 25.9672 24.074 25.9672Z" fill="#F18F29"/>
<path d="M22.3442 25.1633L22.7864 17.0819C22.813 16.5947 22.4252 16.1851 21.9373 16.1851H14.9508C14.5318 16.1851 14.1752 16.4903 14.1106 16.9043L12.8492 24.9857C12.7687 25.5014 13.1675 25.9672 13.6894 25.9672H21.4952C21.9467 25.9672 22.3196 25.6142 22.3442 25.1633Z" fill="#F18F29"/>
<path fill-rule="evenodd" clip-rule="evenodd" d="M33.6787 19.8936L33.967 25.1635C33.9917 25.6144 34.3645 25.9673 34.8161 25.9673H36.6906C35.3153 24.1857 34.2791 22.1289 33.6787 19.8936Z" fill="#F18F29"/>
<path d="M21.3542 26.8423H13.2873C12.8683 26.8423 12.5118 27.1475 12.4471 27.5615L10.8785 37.6111C10.798 38.1268 11.1968 38.5926 11.7187 38.5926H20.8044C21.2559 38.5926 21.6288 38.2396 21.6534 37.7887L22.2032 27.7391C22.2299 27.2519 21.8421 26.8423 21.3542 26.8423Z" fill="#F18F29"/>
<path fill-rule="evenodd" clip-rule="evenodd" d="M33.2807 12.7837H11.4257C9.47766 12.7837 7.81458 14.11 7.38135 16.009L1.57349 41.4589C1.56616 41.4908 1.5625 41.5234 1.5625 41.5562V44.9609C1.5625 46.3348 2.68018 47.4525 4.05396 47.4525H24.0452L22.8675 57.6614H17.1572C16.5887 57.6614 16.0839 58.0229 15.9008 58.5609L15.1786 60.6826C15.0804 60.9711 15.0879 61.2817 15.1895 61.5624H11.9103C11.6687 61.5624 11.4728 61.7583 11.4728 61.9999C11.4728 62.2416 11.6687 62.4374 11.9103 62.4374H44.4003C44.6418 62.4374 44.8378 62.2416 44.8378 61.9999C44.8378 61.7583 44.6418 61.5624 44.4003 61.5624H41.121C41.2227 61.2817 41.2301 60.9711 41.132 60.6826L40.4098 58.5609C40.2264 58.0228 39.7216 57.6614 39.1533 57.6614H33.4431L32.2652 47.4525H52.256C53.6299 47.4525 54.7476 46.3348 54.7476 44.9609V42.0757C54.7476 41.6984 54.705 41.3205 54.621 40.9524L52.7072 32.5672C52.4173 32.6055 52.1252 32.6366 51.831 32.6604L53.7615 41.1189H4.79797C4.5564 41.1189 4.36047 41.3148 4.36047 41.5564C4.36047 41.798 4.5564 41.9939 4.79797 41.9939H53.8703C53.8705 42.0052 53.8709 42.0165 53.8713 42.0278C53.872 42.0437 53.8726 42.0597 53.8726 42.0757V44.9609C53.8726 45.8523 53.1473 46.5775 52.256 46.5775H4.05396C3.1626 46.5775 2.4375 45.8523 2.4375 44.9609V41.6055L8.23438 16.2037C8.57629 14.7053 9.88855 13.6587 11.4257 13.6587H33.1716C33.2007 13.3648 33.2371 13.0731 33.2807 12.7837ZM16.007 60.9645C15.9594 61.1043 15.9814 61.2534 16.0674 61.3735C16.1533 61.4936 16.2874 61.5624 16.4351 61.5624H19.6217C19.4956 61.3498 19.4556 61.0847 19.5445 60.8236C19.8899 59.8087 20.6141 59.0013 21.5269 58.5364H17.1572C16.9635 58.5364 16.7915 58.6595 16.7291 58.8428L16.007 60.9645ZM23.7482 57.6614H32.5623L31.3845 47.4525H24.9259L23.7482 57.6614Z" fill="#004037"/>
<path d="M34.4121 44.7231C34.6537 44.7231 34.8496 44.5273 34.8496 44.2856C34.8496 44.044 34.6537 43.8481 34.4121 43.8481H21.8975C21.6559 43.8481 21.46 44.044 21.46 44.2856C21.46 44.5273 21.6559 44.7231 21.8975 44.7231H34.4121Z" fill="#004037"/>
<g clip-path="url(#clip0_0_509)">
<circle cx="48.8942" cy="16.1852" r="13.3096" stroke="#004037" stroke-width="0.8"/>
<path d="M47.1618 8.68008L49.3873 10.9056C49.8994 11.4177 50.1028 12.1709 49.9182 12.8675L49.3308 15.0892C49.1425 15.7972 48.5852 16.3545 47.8773 16.5428L45.6555 17.1302C44.9589 17.3148 44.2057 17.1114 43.6936 16.5993L41.4493 14.3549C41.1744 16.362 41.8409 18.4068 43.2869 19.8528C44.9212 21.4871 47.2371 22.1386 49.4852 21.5926C50.4492 21.3591 51.4358 21.6754 52.0647 22.4248L60.8952 32.9423C61.509 33.6766 62.3788 34.1021 63.3353 34.1473C64.2956 34.1887 65.1956 33.8385 65.8734 33.1607C66.5512 32.4829 66.9014 31.5829 66.8562 30.6264C66.8148 29.6662 66.3893 28.8038 65.6512 28.1862L55.1337 19.3558C54.3881 18.7307 54.068 17.7403 54.3052 16.78C54.8513 14.5319 54.1998 12.216 52.5655 10.5817C51.1346 9.15079 49.1312 8.45791 47.1618 8.68008ZM65.1918 32.4791C64.3596 33.3113 63.0077 33.3076 62.1793 32.4791C61.3508 31.6507 61.3508 30.295 62.1793 29.4666C63.0077 28.6381 64.3633 28.6381 65.1918 29.4666C66.0202 30.295 66.0202 31.6507 65.1918 32.4791Z" fill="#004037"/>
</g>
<defs>
<clipPath id="clip0_0_509">
<rect x="35.1846" y="2.47559" width="27.4192" height="27.4192" rx="13.7096" fill="white"/>
</clipPath>
</defs>
</svg>
