<svg width="64" height="64" viewBox="0 0 64 64" fill="none" xmlns="http://www.w3.org/2000/svg">
<path d="M55.044 17.7735H58.3155H59.5488C60.6534 17.7735 61.5488 18.6689 61.5488 19.7735V56.8367C61.5488 57.9412 60.6534 58.8367 59.5488 58.8367H9.05566C5.18967 58.8367 2.05566 55.7027 2.05566 51.8367V12.2284C2.05566 8.3266 5.21869 5.16357 9.12047 5.16357V5.16357C9.32583 5.16357 9.4923 5.33005 9.4923 5.53541V46.2267M14.0574 17.7735H9.4923" stroke="#004037" stroke-width="0.7" stroke-linecap="round"/>
<path d="M9.3098 46.4764C9.49534 46.5306 9.68971 46.4242 9.74395 46.2387C9.79818 46.0531 9.69174 45.8588 9.50621 45.8045L9.3098 46.4764ZM2.40566 51.6498C2.40566 48.6735 4.81847 46.2606 7.79482 46.2606V45.5606C4.43187 45.5606 1.70566 48.2869 1.70566 51.6498H2.40566ZM7.79482 46.2606C8.32133 46.2606 8.82963 46.336 9.3098 46.4764L9.50621 45.8045C8.96289 45.6457 8.38849 45.5606 7.79482 45.5606V46.2606Z" fill="#004037"/>
<path d="M55.115 31.9775L51.2341 11.5281C51.1485 11.0765 50.7461 10.7485 50.2768 10.7485H19.0043C18.5358 10.7485 18.1325 11.0765 18.047 11.5281L14.1661 31.9775C14.1127 32.2573 14.189 32.5429 14.3745 32.762C14.56 32.9812 14.8328 33.1066 15.1234 33.1066H32.3447V48.3H30.2191C30.0777 48.3 29.9379 48.3457 29.8252 48.4296L27.2337 50.3524C27.0719 50.4727 26.9745 50.6637 26.9745 50.8621V53.0008C26.9745 53.161 27.1075 53.2914 27.271 53.2914H42.0092C42.1727 53.2914 42.3057 53.161 42.3057 53.0008V50.8621C42.3057 50.6629 42.2092 50.4719 42.0465 50.3524L39.455 48.4296C39.3423 48.3457 39.2025 48.3 39.0611 48.3H36.9364V34.3229C36.9364 34.1626 36.8034 34.0323 36.6398 34.0323C36.4763 34.0323 36.3433 34.1626 36.3433 34.3229V48.3H32.9377V33.1057H54.1585C54.4491 33.1057 54.7219 32.9804 54.9074 32.7612C55.0929 32.542 55.1683 32.2573 55.115 31.9775ZM39.0975 48.8928L41.689 50.8156C41.7034 50.8264 41.7127 50.8439 41.7127 50.8621V52.7102H39.6905C40.076 52.3648 40.2081 51.772 39.8913 51.2781L38.3545 48.8812H39.0619C39.0746 48.8804 39.0873 48.8845 39.0975 48.8928ZM54.4508 32.3901C54.3779 32.4756 54.272 32.5246 54.1585 32.5246H15.1225C15.009 32.5246 14.9023 32.4756 14.8303 32.3901C14.7583 32.3046 14.7278 32.1933 14.7489 32.0837L18.6307 11.6344C18.6637 11.4584 18.8213 11.3297 19.0043 11.3297H50.2768C50.4598 11.3297 50.6173 11.4575 50.6504 11.6344L54.5321 32.0837C54.5533 32.1933 54.5236 32.3046 54.4508 32.3901Z" fill="#004037"/>
<path d="M32.6197 17.7061H36.6607C36.7649 17.7061 36.8462 17.6197 36.8394 17.5184L36.5556 13.2801C36.5497 13.188 36.4709 13.1157 36.3769 13.1157H32.9035C32.8086 13.1157 32.7307 13.188 32.7247 13.2801L32.4409 17.5184C32.4333 17.6197 32.5155 17.7061 32.6197 17.7061Z" fill="#F18F29"/>
<path d="M32.2121 23.7988H37.0698C37.174 23.7988 37.2553 23.7125 37.2486 23.6112L36.9749 19.5306C36.969 19.4384 36.8902 19.3662 36.7962 19.3662H32.4849C32.39 19.3662 32.3121 19.4384 32.3062 19.5306L32.0325 23.6112C32.0266 23.7125 32.1079 23.7988 32.2121 23.7988Z" fill="#F18F29"/>
<path d="M30.8461 13.1157H26.8008C26.711 13.1157 26.6348 13.1813 26.6229 13.2685L26.0553 17.5068C26.0409 17.6122 26.1248 17.7061 26.2332 17.7061H30.5623C30.6572 17.7061 30.7351 17.6338 30.741 17.5417L31.0248 13.3034C31.0316 13.2012 30.9503 13.1157 30.8461 13.1157Z" fill="#F18F29"/>
<path d="M39.1267 23.7988H43.8641C43.9726 23.7988 44.0564 23.705 44.042 23.5995L43.4956 19.519C43.4837 19.4318 43.4075 19.3662 43.3177 19.3662H38.854C38.7497 19.3662 38.6684 19.4526 38.6752 19.5538L38.9488 23.6344C38.9539 23.7266 39.0319 23.7988 39.1267 23.7988Z" fill="#F18F29"/>
<path d="M45.1192 17.7061H49.7346C49.8473 17.7061 49.932 17.6064 49.9108 17.4977L49.106 13.2594C49.0899 13.1763 49.0162 13.1157 48.9298 13.1157H44.5516C44.4431 13.1157 44.3593 13.2095 44.3737 13.315L44.9413 17.5533C44.9531 17.6405 45.0294 17.7061 45.1192 17.7061Z" fill="#F18F29"/>
<path d="M25.4162 23.7988H30.1535C30.2484 23.7988 30.3264 23.7266 30.3323 23.6344L30.6059 19.5538C30.6127 19.4526 30.5305 19.3662 30.4272 19.3662H25.9634C25.8736 19.3662 25.7974 19.4318 25.7855 19.519L25.2391 23.5995C25.2239 23.705 25.3077 23.7988 25.4162 23.7988Z" fill="#F18F29"/>
<path d="M38.7188 17.7061H43.0479C43.1563 17.7061 43.2402 17.6122 43.2258 17.5068L42.6582 13.2685C42.6463 13.1813 42.57 13.1157 42.4802 13.1157H38.435C38.3317 13.1157 38.2495 13.2021 38.2563 13.3034L38.5401 17.5417C38.546 17.6338 38.6248 17.7061 38.7188 17.7061Z" fill="#F18F29"/>
<path d="M18.3904 23.7988H23.3455C23.4353 23.7988 23.5116 23.7332 23.5234 23.646L24.0698 19.5655C24.0842 19.46 24.0004 19.3662 23.8919 19.3662H19.1647C19.0783 19.3662 19.0038 19.4268 18.9885 19.5098L18.2142 23.5904C18.193 23.6983 18.2777 23.7988 18.3904 23.7988Z" fill="#F18F29"/>
<path d="M24.3397 17.5523L24.9073 13.314C24.9217 13.2086 24.8379 13.1147 24.7294 13.1147H20.3512C20.2648 13.1147 20.1903 13.1754 20.175 13.2584L19.3702 17.4967C19.3499 17.6046 19.4346 17.7051 19.5464 17.7051H24.1618C24.2516 17.7059 24.3279 17.6403 24.3397 17.5523Z" fill="#F18F29"/>
<path d="M23.0759 25.4595H18.0081C17.9217 25.4595 17.8471 25.5201 17.8319 25.6031L16.8966 30.5322C16.8762 30.6401 16.961 30.7406 17.0728 30.7406H22.4151C22.5049 30.7406 22.5811 30.675 22.593 30.5878L23.2538 25.6587C23.2682 25.5525 23.1843 25.4595 23.0759 25.4595Z" fill="#F18F29"/>
<path d="M46.027 25.6578L46.6878 30.5868C46.6997 30.674 46.7759 30.7396 46.8657 30.7396H52.208C52.3206 30.7396 52.4054 30.64 52.3842 30.5312L51.4489 25.6021C51.4328 25.5191 51.3591 25.4585 51.2727 25.4585H46.2049C46.0965 25.4593 46.0126 25.5523 46.027 25.6578Z" fill="#F18F29"/>
<path d="M29.8674 30.5752L30.1978 25.6461C30.2046 25.5448 30.1224 25.4585 30.019 25.4585H25.147C25.0572 25.4585 24.9809 25.5241 24.969 25.6113L24.3083 30.5403C24.2939 30.6458 24.3777 30.7396 24.4862 30.7396H29.6886C29.7835 30.7396 29.8615 30.6682 29.8674 30.5752Z" fill="#F18F29"/>
<path d="M37.204 25.4595H32.0769C31.982 25.4595 31.9041 25.5317 31.8982 25.6239L31.5678 30.5529C31.561 30.6542 31.6432 30.7406 31.7465 30.7406H37.5344C37.6378 30.7406 37.7199 30.6542 37.7132 30.5529L37.3828 25.6239C37.3768 25.5309 37.2989 25.4595 37.204 25.4595Z" fill="#F18F29"/>
<path d="M44.1352 25.4595H39.2631C39.1589 25.4595 39.0776 25.5458 39.0844 25.6471L39.4148 30.5762C39.4207 30.6683 39.4995 30.7406 39.5935 30.7406H44.796C44.9044 30.7406 44.9883 30.6467 44.9739 30.5413L44.3131 25.6122C44.3013 25.5251 44.225 25.4595 44.1352 25.4595Z" fill="#F18F29"/>
<path d="M50.1167 19.3662H45.3895C45.281 19.3662 45.1972 19.46 45.2116 19.5655L45.758 23.646C45.7699 23.7332 45.8461 23.7988 45.9359 23.7988H50.891C51.0037 23.7988 51.0884 23.6992 51.0672 23.5904L50.2929 19.5098C50.2768 19.426 50.2031 19.3662 50.1167 19.3662Z" fill="#F18F29"/>
</svg>
