<svg width="64" height="64" viewBox="0 0 64 64" fill="none" xmlns="http://www.w3.org/2000/svg">
<path d="M33.7758 37.6956L33.226 27.6459C33.2014 27.195 32.8286 26.842 32.377 26.842H23.9334C23.4818 26.842 23.109 27.195 23.0843 27.6459L22.5345 37.6956C22.5078 38.1827 22.8957 38.5924 23.3836 38.5924H32.9268C33.4147 38.5924 33.8025 38.1827 33.7758 37.6956Z" fill="#F18F29"/>
<path fill-rule="evenodd" clip-rule="evenodd" d="M37.4124 26.842H34.9568C34.4689 26.842 34.0811 27.2517 34.1077 27.7388L34.6575 37.7885C34.6822 38.2394 35.055 38.5924 35.5066 38.5924H44.593C45.1149 38.5924 45.5136 38.1265 45.4331 37.6109L44.5077 31.6835C41.7486 30.6827 39.3159 29.0013 37.4124 26.842Z" fill="#F18F29"/>
<path d="M24.074 25.9672H32.2357C32.7236 25.9672 33.1115 25.5576 33.0848 25.0704L32.6427 16.9889C32.618 16.538 32.2452 16.1851 31.7936 16.1851H24.5161C24.0646 16.1851 23.6917 16.538 23.6671 16.9889L23.2249 25.0704C23.1983 25.5576 23.5861 25.9672 24.074 25.9672Z" fill="#F18F29"/>
<path d="M22.3442 25.1633L22.7864 17.0819C22.813 16.5947 22.4252 16.1851 21.9373 16.1851H14.9508C14.5318 16.1851 14.1752 16.4903 14.1106 16.9043L12.8492 24.9857C12.7687 25.5014 13.1675 25.9672 13.6894 25.9672H21.4952C21.9467 25.9672 22.3196 25.6142 22.3442 25.1633Z" fill="#F18F29"/>
<path fill-rule="evenodd" clip-rule="evenodd" d="M33.6787 19.8936L33.967 25.1635C33.9917 25.6144 34.3645 25.9673 34.8161 25.9673H36.6906C35.3153 24.1857 34.2791 22.1289 33.6787 19.8936Z" fill="#F18F29"/>
<path d="M21.3542 26.842H13.2873C12.8683 26.842 12.5118 27.1473 12.4471 27.5612L10.8785 37.6109C10.798 38.1266 11.1968 38.5924 11.7187 38.5924H20.8044C21.2559 38.5924 21.6288 38.2394 21.6534 37.7885L22.2032 27.7388C22.2299 27.2517 21.8421 26.842 21.3542 26.842Z" fill="#F18F29"/>
<path fill-rule="evenodd" clip-rule="evenodd" d="M33.2807 12.7837H11.4257C9.47766 12.7837 7.81458 14.11 7.38135 16.009L1.57349 41.4589C1.56616 41.4908 1.5625 41.5234 1.5625 41.5562V44.9609C1.5625 46.3348 2.68018 47.4525 4.05396 47.4525H24.0452L22.8675 57.6614H17.1572C16.5887 57.6614 16.0839 58.0229 15.9008 58.5609L15.1786 60.6826C15.0804 60.9711 15.0879 61.2817 15.1895 61.5624H11.9103C11.6687 61.5624 11.4728 61.7583 11.4728 61.9999C11.4728 62.2416 11.6687 62.4374 11.9103 62.4374H44.4003C44.6418 62.4374 44.8378 62.2416 44.8378 61.9999C44.8378 61.7583 44.6418 61.5624 44.4003 61.5624H41.121C41.2227 61.2817 41.2301 60.9711 41.132 60.6826L40.4098 58.5609C40.2264 58.0228 39.7216 57.6614 39.1533 57.6614H33.4431L32.2652 47.4525H52.256C53.6299 47.4525 54.7476 46.3348 54.7476 44.9609V42.0757C54.7476 41.6984 54.705 41.3205 54.621 40.9524L52.7072 32.5672C52.4173 32.6055 52.1252 32.6366 51.831 32.6604L53.7615 41.1189H4.79797C4.5564 41.1189 4.36047 41.3148 4.36047 41.5564C4.36047 41.798 4.5564 41.9939 4.79797 41.9939H53.8703C53.8705 42.0052 53.8709 42.0165 53.8713 42.0278C53.872 42.0437 53.8726 42.0597 53.8726 42.0757V44.9609C53.8726 45.8523 53.1473 46.5775 52.256 46.5775H4.05396C3.1626 46.5775 2.4375 45.8523 2.4375 44.9609V41.6055L8.23438 16.2037C8.57629 14.7053 9.88855 13.6587 11.4257 13.6587H33.1716C33.2007 13.3648 33.2371 13.0731 33.2807 12.7837ZM16.007 60.9645C15.9594 61.1043 15.9814 61.2534 16.0674 61.3735C16.1533 61.4936 16.2874 61.5624 16.4351 61.5624H19.6217C19.4956 61.3498 19.4556 61.0847 19.5445 60.8236C19.8899 59.8087 20.6141 59.0013 21.5269 58.5364H17.1572C16.9635 58.5364 16.7915 58.6595 16.7291 58.8428L16.007 60.9645ZM23.7482 57.6614H32.5623L31.3845 47.4525H24.9259L23.7482 57.6614Z" fill="#004037"/>
<path d="M34.4121 44.7234C34.6537 44.7234 34.8496 44.5275 34.8496 44.2859C34.8496 44.0442 34.6537 43.8484 34.4121 43.8484H21.8975C21.6559 43.8484 21.46 44.0442 21.46 44.2859C21.46 44.5275 21.6559 44.7234 21.8975 44.7234H34.4121Z" fill="#004037"/>
<g clip-path="url(#clip0_0_606)">
<circle cx="48.8942" cy="16.1852" r="13.3096" stroke="#004037" stroke-width="0.8"/>
<path d="M56.2366 13.8693C55.9123 13.8222 55.6027 13.7026 55.3311 13.5193C55.0594 13.3359 54.8326 13.0937 54.6676 12.8106C54.5025 12.5275 54.4034 12.2108 54.3778 11.8841C54.3521 11.5574 54.4004 11.2291 54.5192 10.9236C54.5947 10.7239 54.6058 10.5056 54.551 10.2993C54.4962 10.093 54.3781 9.909 54.2135 9.77313C53.4865 9.16268 52.6591 8.68313 51.768 8.35586C51.5651 8.28048 51.3436 8.27107 51.135 8.32895C50.9264 8.38683 50.7414 8.50906 50.6064 8.67822C50.4031 8.93814 50.1433 9.14836 49.8467 9.29293C49.5501 9.43751 49.2245 9.51265 48.8945 9.51265C48.5646 9.51265 48.2389 9.43751 47.9423 9.29293C47.6457 9.14836 47.386 8.93814 47.1827 8.67822C47.0476 8.50906 46.8627 8.38683 46.6541 8.32895C46.4455 8.27107 46.224 8.28048 46.0211 8.35586C45.1983 8.65801 44.4291 9.08955 43.7423 9.63418C43.5692 9.77122 43.4445 9.96008 43.3865 10.1731C43.3285 10.3861 43.3402 10.6121 43.42 10.818C43.5482 11.1315 43.6012 11.4708 43.5747 11.8084C43.5482 12.1461 43.4429 12.4729 43.2672 12.7626C43.0916 13.0522 42.8505 13.2967 42.5634 13.4763C42.2762 13.656 41.9509 13.7658 41.6136 13.7971C41.3947 13.8205 41.189 13.9136 41.0269 14.0627C40.8648 14.2118 40.7549 14.409 40.7133 14.6252C40.6098 15.1375 40.5576 15.6588 40.5576 16.1814C40.5569 16.619 40.5922 17.0558 40.6632 17.4876C40.6986 17.7107 40.8065 17.9161 40.9702 18.0718C41.134 18.2275 41.3445 18.3249 41.5692 18.349C41.9139 18.3814 42.2458 18.4958 42.5372 18.6828C42.8286 18.8698 43.071 19.1238 43.244 19.4237C43.4171 19.7235 43.5158 20.0605 43.5319 20.4063C43.548 20.7521 43.481 21.0968 43.3366 21.4115C43.2421 21.6161 43.2186 21.8465 43.27 22.066C43.3213 22.2855 43.4445 22.4816 43.6201 22.6231C44.3426 23.2224 45.1621 23.6942 46.0433 24.0181C46.156 24.0572 46.2742 24.0778 46.3935 24.0793C46.557 24.0789 46.718 24.0394 46.863 23.9639C47.0081 23.8885 47.133 23.7794 47.2272 23.6457C47.4252 23.3571 47.6908 23.1212 48.0007 22.9585C48.3107 22.7958 48.6556 22.7112 49.0057 22.712C49.3449 22.7124 49.6793 22.7921 49.9822 22.9445C50.2852 23.097 50.5484 23.3181 50.7509 23.5902C50.8856 23.7712 51.0763 23.9026 51.2935 23.9639C51.5106 24.0253 51.7419 24.013 51.9514 23.9292C52.7571 23.6049 53.5072 23.1567 54.1746 22.6009C54.3422 22.4623 54.4616 22.2741 54.5155 22.0633C54.5694 21.8526 54.5552 21.6302 54.4747 21.4281C54.344 21.1187 54.287 20.783 54.3082 20.4477C54.3294 20.1125 54.4283 19.7867 54.597 19.4962C54.7657 19.2057 54.9996 18.9583 55.2803 18.7737C55.561 18.5891 55.8808 18.4723 56.2143 18.4324C56.4306 18.4025 56.6318 18.3045 56.7887 18.1526C56.9456 18.0007 57.05 17.8028 57.0869 17.5876C57.1762 17.124 57.2246 16.6535 57.2314 16.1814C57.2316 15.6835 57.185 15.1867 57.0925 14.6975C57.055 14.487 56.9521 14.2937 56.7984 14.145C56.6448 13.9964 56.4482 13.8999 56.2366 13.8693ZM51.6735 16.1814C51.6735 16.7311 51.5105 17.2684 51.2052 17.7253C50.8998 18.1823 50.4658 18.5385 49.958 18.7489C49.4502 18.9592 48.8915 19.0142 48.3524 18.907C47.8133 18.7998 47.3182 18.5351 46.9295 18.1465C46.5409 17.7578 46.2762 17.2627 46.169 16.7236C46.0617 16.1845 46.1168 15.6258 46.3271 15.118C46.5374 14.6102 46.8936 14.1762 47.3506 13.8708C47.8076 13.5655 48.3449 13.4025 48.8945 13.4025C49.6316 13.4025 50.3384 13.6953 50.8596 14.2164C51.3807 14.7376 51.6735 15.4444 51.6735 16.1814Z" fill="#004037"/>
</g>
<defs>
<clipPath id="clip0_0_606">
<rect x="35.1846" y="2.47559" width="27.4192" height="27.4192" rx="13.7096" fill="white"/>
</clipPath>
</defs>
</svg>
