<svg width="64" height="64" viewBox="0 0 64 64" fill="none" xmlns="http://www.w3.org/2000/svg">
<g clip-path="url(#clip0_0_484)">
<path d="M38.0743 28.8621L37.7659 26.3262C37.7073 25.844 37.298 25.4814 36.8122 25.4814H27.1877C26.702 25.4814 26.2927 25.844 26.234 26.3262L25.9271 28.8501C25.8575 29.4222 26.3029 29.9264 26.8792 29.9268C28.4577 29.928 30.1959 29.9297 32.1111 29.932C33.7936 29.934 35.4788 29.9363 37.12 29.9388C37.6971 29.9397 38.144 29.4351 38.0743 28.8621Z" fill="#F18F29"/>
<path d="M54.2051 39.2118C50.6012 39.2069 46.4116 39.2018 42.0541 39.1973C41.4771 39.1967 41.0293 39.7012 41.099 40.274L41.5283 43.8045C41.587 44.2867 41.9963 44.6492 42.482 44.6492H53.989C55.6369 44.6492 56.6989 42.9033 55.9411 41.44L55.0557 39.7303C54.891 39.4122 54.5633 39.2123 54.2051 39.2118Z" fill="#F18F29"/>
<path d="M12.9054 32.0818L10.7896 36.1673C10.4579 36.808 10.9238 37.572 11.6452 37.5698C13.7564 37.5634 17.0938 37.5589 22.3798 37.5589C22.8656 37.5589 23.2754 37.1963 23.3341 36.7141L23.831 32.6275C23.9006 32.0552 23.4535 31.5509 22.877 31.5508C19.0501 31.5503 15.798 31.5536 13.7541 31.5628C13.3966 31.5644 13.0697 31.7643 12.9054 32.0818Z" fill="#F18F29"/>
<path d="M24.5679 40.0298L24.137 43.5726C24.0674 44.145 24.5142 44.6494 25.0907 44.6494H38.91C39.4866 44.6494 39.9334 44.145 39.8637 43.5726L39.4339 40.0386C39.3753 39.5568 38.9669 39.1943 38.4815 39.1939C34.0738 39.1898 29.6144 39.1866 25.5216 39.1851C25.0357 39.1849 24.6265 39.5475 24.5679 40.0298Z" fill="#F18F29"/>
<path d="M37.5546 31.5647C33.8405 31.5591 30.0025 31.5545 26.4501 31.5522C25.9642 31.5519 25.5549 31.9146 25.4962 32.397L24.9994 36.4828C24.9298 37.055 25.3755 37.5593 25.9519 37.5595C29.3132 37.5606 33.3057 37.5632 38.0472 37.5677C38.6242 37.5683 39.0722 37.0638 39.0026 36.491L38.5062 32.4095C38.4476 31.9279 38.0398 31.5655 37.5546 31.5647Z" fill="#F18F29"/>
<path d="M8.95203 39.7152L8.05873 41.4402C7.30098 42.9034 8.36299 44.6494 10.0108 44.6494H21.5179C22.0036 44.6494 22.4129 44.2868 22.4716 43.8046L22.9025 40.2609C22.9721 39.6885 22.5249 39.1842 21.9484 39.1842C16.5137 39.1835 12.0677 39.1868 9.80066 39.1962C9.44316 39.1977 9.11643 39.3977 8.95203 39.7152Z" fill="#F18F29"/>
<path d="M24.2619 29.0801L24.5686 26.5582C24.6382 25.9858 24.1915 25.4814 23.6149 25.4814H16.9071C16.5481 25.4814 16.2191 25.6816 16.054 26.0004L14.7447 28.5287C14.413 29.1693 14.8786 29.9333 15.6 29.9312C17.3593 29.9261 19.83 29.9238 23.3079 29.9248C23.7938 29.925 24.2033 29.5624 24.2619 29.0801Z" fill="#F18F29"/>
<path d="M49.2694 28.5568L47.9455 26.0004C47.7805 25.6816 47.4514 25.4814 47.0924 25.4814H40.3847C39.8081 25.4814 39.3614 25.9858 39.431 26.5582L39.7401 29.0999C39.7987 29.5814 40.2077 29.9438 40.6928 29.9446C43.6669 29.9497 46.3507 29.955 48.4151 29.9593C49.1362 29.9608 49.601 29.1971 49.2694 28.5568Z" fill="#F18F29"/>
<path d="M50.2577 31.5881C47.6729 31.5824 44.5148 31.5761 41.1269 31.5703C40.5497 31.5693 40.1015 32.074 40.1712 32.647L40.6673 36.7264C40.7259 37.2082 41.1338 37.5707 41.6191 37.5712C44.8746 37.5747 48.4457 37.5791 52.3632 37.5844C53.084 37.5854 53.5493 36.8219 53.2178 36.1819L51.1077 32.1071C50.9429 31.7889 50.6159 31.5889 50.2577 31.5881Z" fill="#F18F29"/>
<path d="M59.8652 40.3819L51.0408 23.3417C50.4558 22.212 49.3021 21.5103 48.03 21.5103H15.9694C14.6973 21.5103 13.5436 22.212 12.9586 23.3417L4.13423 40.3819C3.22065 42.1462 3.29157 44.2128 4.32404 45.9103C5.35664 47.6077 7.15925 48.6212 9.14607 48.6212H28.95C28.9718 48.6212 28.9891 48.6302 29.0014 48.6482C29.0139 48.6661 29.0161 48.6856 29.0083 48.7061L26.0284 56.4977H22.7036C22.0903 56.4977 21.5233 56.8306 21.2239 57.3666C21.1062 57.5775 21.1816 57.8441 21.3925 57.9619C21.6033 58.0798 21.8701 58.0043 21.9879 57.7932C22.1328 57.5338 22.4071 57.3727 22.7036 57.3727H41.2958C41.7474 57.3727 42.1147 57.74 42.1147 58.1915V59.5626H18.4709C18.2293 59.5626 18.0334 59.7585 18.0334 60.0001C18.0334 60.2418 18.2293 60.4376 18.4709 60.4376H45.5285C45.7701 60.4376 45.966 60.2418 45.966 60.0001C45.966 59.7585 45.7701 59.5626 45.5285 59.5626H42.9897V58.1915C42.9897 57.2575 42.2298 56.4977 41.2958 56.4977H37.971L35.3269 49.5839C35.2406 49.3583 34.9879 49.2454 34.7619 49.3316C34.5362 49.4179 34.4232 49.6708 34.5095 49.8965L37.0341 56.4977H26.9653L29.8255 49.0186C29.9359 48.7303 29.8973 48.4064 29.7222 48.1522C29.5473 47.8979 29.2586 47.7462 28.95 47.7462H9.14607C7.46723 47.7462 5.94416 46.8898 5.07173 45.4556C4.19929 44.0213 4.13923 42.275 4.91132 40.7842L13.7357 23.7441C14.1696 22.9059 15.0256 22.3853 15.9694 22.3853H48.03C48.9738 22.3853 49.8298 22.9059 50.2637 23.7441L59.0881 40.7842C59.8602 42.275 59.8001 44.0213 58.9277 45.4556C58.0553 46.8898 56.5322 47.7462 54.8533 47.7462H31.5605C31.3189 47.7462 31.123 47.942 31.123 48.1837C31.123 48.4253 31.3189 48.6212 31.5605 48.6212H54.8533C56.8402 48.6212 58.6428 47.6077 59.6754 45.9103C60.7078 44.2128 60.7788 42.1462 59.8652 40.3819Z" fill="#004037"/>
<circle cx="48.6414" cy="17.3787" r="16.9031" fill="white"/>
<path d="M41.3045 57.0649H26.3739C26.0765 57.0649 25.7945 57.1973 25.6045 57.4262L24.9845 58.173C24.4435 58.8247 24.9069 59.8118 25.7539 59.8118H41.4888C42.0411 59.8118 42.4888 59.364 42.4888 58.8118V58.2147C42.4888 57.9135 42.3531 57.6285 42.1194 57.4386L41.9351 57.2888C41.7569 57.144 41.5342 57.0649 41.3045 57.0649Z" fill="#004037"/>
<g clip-path="url(#clip1_0_484)">
<circle cx="47.6412" cy="17.861" r="13.3096" stroke="#004037" stroke-width="0.8"/>
<path d="M57.5002 18.701L56.6049 17.391C56.3394 15.0984 55.6839 13.4018 54.6096 12.2192C53.3519 10.8346 51.5545 10.1616 49.1146 10.1616C48.7708 10.1616 48.4084 10.1753 48.0375 10.2025C43.8797 10.5065 41.6535 15.2954 40.7723 17.7847C40.7284 17.8035 40.6844 17.8226 40.6403 17.8419C38.6203 18.7295 37.6394 19.7176 37.6416 20.8626C37.6425 21.2946 37.8963 21.756 38.4647 22.3587C38.8776 22.7966 39.4411 23.2849 40.0512 23.7337C40.7692 24.2619 42.6025 25.4968 44.1167 25.5567C44.1843 25.5594 44.2568 25.5607 44.3322 25.5607C44.3323 25.5607 44.3321 25.5607 44.3323 25.5607C46.7161 25.5607 54.2618 24.1548 57.4908 19.6293C57.6884 19.3526 57.6921 18.9818 57.5002 18.701ZM53.4373 19.6528C53.2451 19.7821 53.0483 19.9044 52.8487 20.0219C52.4133 20.278 51.9641 20.51 51.5052 20.721C50.6321 21.1225 49.7189 21.4517 48.781 21.6644C47.9274 21.8581 47.0188 21.9769 46.1488 21.8271C45.3119 21.6831 44.4885 21.3975 43.741 20.9945C42.9971 20.5935 42.2346 20.0894 41.6943 19.4282C42.0318 19.5766 42.3721 19.7174 42.7157 19.851C42.9364 19.0908 43.192 18.3374 43.4994 17.6076C43.7984 16.8977 44.1485 16.2152 44.6576 15.6326C45.2571 14.9464 46.0005 14.3735 46.7842 13.9133C47.4429 13.5265 48.1479 13.2226 48.8961 13.0614C48.5994 13.1711 48.3126 13.3004 48.0362 13.4548C47.211 13.9158 46.4688 14.5366 45.8424 15.2427C45.5673 15.5529 45.2768 15.8934 45.0843 16.2632C44.8713 16.6723 44.7337 17.1118 44.6207 17.5578C44.3981 18.4434 44.2672 19.3542 44.1816 20.2626C44.1726 20.3574 44.1761 20.349 44.2699 20.3745C44.3293 20.3907 44.3887 20.4069 44.4481 20.423C44.5555 20.4546 44.6644 20.4807 44.7732 20.5069C44.9989 20.5611 45.2258 20.6083 45.4532 20.655C46.8198 20.9474 48.6395 20.6118 49.7661 20.3613C50.9045 20.1082 52.0344 19.8178 53.1704 19.554C53.1697 19.5541 53.1798 19.5517 53.2062 19.5456C53.3754 19.5072 53.3373 19.516 53.2749 19.5303C53.4339 19.4946 53.593 19.4596 53.7529 19.4282C53.7528 19.476 53.4722 19.6292 53.4373 19.6528Z" fill="#004037"/>
</g>
</g>
<defs>
<clipPath id="clip0_0_484">
<rect width="64" height="64" fill="white"/>
</clipPath>
<clipPath id="clip1_0_484">
<rect x="33.9316" y="4.15137" width="27.4192" height="27.4192" rx="13.7096" fill="white"/>
</clipPath>
</defs>
</svg>
