<svg width="64" height="64" viewBox="0 0 64 64" fill="none" xmlns="http://www.w3.org/2000/svg">
<g clip-path="url(#clip0_0_557)">
<path d="M63.3211 20.5164L62.4961 20.2277L62.5411 20.0989C62.8498 19.2177 62.6161 18.2539 61.9498 17.6102L62.6061 15.7364C62.9223 14.8339 62.4473 13.8464 61.5448 13.5302C60.6423 13.2139 59.6548 13.6889 59.3373 14.5914L58.6811 16.4639C57.7573 16.5502 56.9723 17.1577 56.6636 18.0402L53.8361 26.1077V3.64016C53.8361 2.49641 52.9061 1.56641 51.7623 1.56641H15.4448C14.3011 1.56641 13.3711 2.49641 13.3711 3.64016V49.8989C13.3711 50.0152 13.4173 50.1264 13.4986 50.2089L21.7073 58.4177C21.7861 58.4952 21.8936 58.5427 22.0123 58.5427H51.7636C52.9073 58.5427 53.8373 57.6127 53.8373 56.4689V48.2577C53.8373 48.0164 53.6411 47.8202 53.3998 47.8202C53.1586 47.8202 52.9623 48.0164 52.9623 48.2577V56.4689C52.9623 57.1302 52.4248 57.6677 51.7636 57.6677H22.4523V51.0689C22.4523 50.1827 21.7323 49.4627 20.8461 49.4627H17.0423C16.8011 49.4627 16.6048 49.6589 16.6048 49.9002C16.6048 50.1414 16.8011 50.3377 17.0423 50.3377H20.8461C21.2498 50.3377 21.5773 50.6652 21.5773 51.0689V57.0489L14.2473 49.7189V3.64016C14.2473 2.97891 14.7848 2.44141 15.4461 2.44141H51.7661C52.4273 2.44141 52.9648 2.97891 52.9648 3.64016V28.6052L48.4123 41.5952C47.9036 43.0452 47.8348 44.6002 48.2123 46.0902L48.5686 47.4952C48.6323 47.7464 48.7698 47.9664 48.9586 48.1314L48.5173 49.3939C48.4373 49.6214 48.5573 49.8714 48.7861 49.9514C48.8336 49.9677 48.8823 49.9764 48.9298 49.9764C49.1111 49.9764 49.2798 49.8639 49.3423 49.6827L49.7748 48.4427H49.7848C50.0611 48.4427 50.3323 48.3514 50.5561 48.1764L51.7073 47.2777C52.8873 46.3564 53.7723 45.1227 54.2673 43.7089L59.9786 27.4127C59.9798 27.4089 59.9811 27.4064 59.9823 27.4039C59.9836 27.4014 59.9836 27.3989 59.9836 27.3964L62.2061 21.0552L63.0311 21.3439C63.0811 21.3614 63.1048 21.4002 63.1136 21.4202C63.1223 21.4414 63.1348 21.4839 63.1136 21.5327L60.3961 27.6277C60.3773 27.6689 60.3661 27.7127 60.3611 27.7577L59.8948 31.9552C59.8686 32.1952 60.0411 32.4114 60.2811 32.4389C60.2973 32.4402 60.3136 32.4414 60.3298 32.4414C60.5498 32.4414 60.7398 32.2764 60.7636 32.0527L61.2223 27.9227L63.9123 21.8902C64.0273 21.6314 64.0298 21.3339 63.9173 21.0752C63.8048 20.8164 63.5886 20.6102 63.3211 20.5164ZM53.4436 43.4189C53.0036 44.6739 52.2173 45.7689 51.1698 46.5864L50.0186 47.4852C49.8723 47.6002 49.7198 47.5652 49.6611 47.5452C49.6548 47.5427 49.6473 47.5402 49.6386 47.5364C49.6348 47.5352 49.6323 47.5327 49.6298 47.5327H49.6286C49.5611 47.5027 49.4536 47.4327 49.4148 47.2789L49.0598 45.8752C48.7248 44.5527 48.7861 43.1727 49.2373 41.8852L54.7873 26.0464L59.0123 27.5264L53.4436 43.4189ZM61.7161 19.8102L61.5261 20.3514L59.3011 26.7002L55.0761 25.2202L57.4911 18.3302C57.6936 17.7527 58.2186 17.3602 58.8298 17.3302C58.8886 17.3277 58.9473 17.3264 59.0048 17.3264C59.8498 17.3264 60.6561 17.6314 61.2936 18.1939C61.7536 18.5977 61.9186 19.2327 61.7161 19.8102Z" fill="#004037"/>
<path d="M33.2901 52.8476L34.0738 52.3426C35.3176 51.5414 36.9326 51.6189 38.0926 52.5364L38.8063 53.1014C39.1688 53.3876 39.6376 53.5126 40.0938 53.4439C40.5501 53.3751 40.9626 53.1189 41.2251 52.7389C41.4626 52.3951 41.93 52.2914 42.29 52.5039L43.6626 53.3126C44.0163 53.5214 44.405 53.6226 44.79 53.6226C45.3825 53.6226 45.9676 53.3814 46.4001 52.9214C46.6513 52.6526 47.0076 52.4989 47.3751 52.4989C47.6163 52.4989 47.8126 52.3026 47.8126 52.0614C47.8126 51.8201 47.6163 51.6239 47.3751 51.6239C46.7663 51.6239 46.1788 51.8789 45.7625 52.3226C45.3313 52.7814 44.6513 52.8801 44.1088 52.5601L42.735 51.7501C41.9813 51.3064 41.0026 51.5214 40.5051 52.2414C40.3776 52.4251 40.1863 52.5451 39.965 52.5789C39.745 52.6114 39.5251 52.5539 39.3501 52.4151L38.6363 51.8501C37.1826 50.7001 35.1588 50.6026 33.6013 51.6064L32.8175 52.1114C32.615 52.2426 32.5563 52.5126 32.6863 52.7164C32.8163 52.9201 33.0876 52.9789 33.2901 52.8476Z" fill="#004037"/>
<path d="M45.7202 29.6165H21.4902C21.249 29.6165 21.0527 29.8127 21.0527 30.054C21.0527 30.2952 21.249 30.4915 21.4902 30.4915H45.7202C45.9615 30.4915 46.1577 30.2952 46.1577 30.054C46.1577 29.8127 45.9627 29.6165 45.7202 29.6165Z" fill="#004037"/>
<path d="M45.7202 35.3977H21.4902C21.249 35.3977 21.0527 35.594 21.0527 35.8352C21.0527 36.0765 21.249 36.2727 21.4902 36.2727H45.7202C45.9615 36.2727 46.1577 36.0765 46.1577 35.8352C46.1577 35.594 45.9627 35.3977 45.7202 35.3977Z" fill="#004037"/>
<path d="M21.3438 42.0552H45.72C45.9612 42.0552 46.1575 41.8589 46.1575 41.6177C46.1575 41.3764 45.9612 41.1802 45.72 41.1802H21.3438C21.1025 41.1802 20.9062 41.3764 20.9062 41.6177C20.9062 41.8589 21.1025 42.0552 21.3438 42.0552Z" fill="#004037"/>
<path d="M21.3438 47.8376H34.3388C34.58 47.8376 34.7763 47.6414 34.7763 47.4001C34.7763 47.1589 34.58 46.9626 34.3388 46.9626H21.3438C21.1025 46.9626 20.9062 47.1589 20.9062 47.4001C20.9062 47.6414 21.1025 47.8376 21.3438 47.8376Z" fill="#004037"/>
<path d="M45.2064 17.2711L43.0074 5.68392C42.9589 5.42801 42.7309 5.24219 42.465 5.24219H24.745C24.4796 5.24219 24.2511 5.42801 24.2026 5.68392L22.0036 17.2711C21.9733 17.4297 22.0165 17.5915 22.1217 17.7157C22.2268 17.8399 22.3814 17.9109 22.546 17.9109H32.3041V22.5943H31.0997C31.0196 22.5943 30.9404 22.6201 30.8765 22.6676L29.4081 23.7572C29.3164 23.8254 29.2612 23.9336 29.2612 24.046V25.2578C29.2612 25.3486 29.3366 25.4225 29.4292 25.4225H37.7803C37.873 25.4225 37.9484 25.3486 37.9484 25.2578V24.046C37.9484 23.9331 37.8936 23.8249 37.8015 23.7572L36.333 22.6676C36.2692 22.6201 36.19 22.5943 36.1098 22.5943H34.9059V18.6001C34.9059 18.5093 34.8305 18.4355 34.7379 18.4355C34.6452 18.4355 34.5699 18.5093 34.5699 18.6001V22.5943H32.6401V17.9105H44.6645C44.8291 17.9105 44.9837 17.8394 45.0888 17.7152C45.194 17.591 45.2367 17.4297 45.2064 17.2711ZM36.1305 22.9301L37.5989 24.0197C37.607 24.0258 37.6123 24.0357 37.6123 24.046V25.0932H36.4665C36.6849 24.8975 36.7598 24.5616 36.5803 24.2817L35.7095 22.9236H36.1103C36.1175 22.9231 36.1247 22.9254 36.1305 22.9301ZM44.8301 17.5049C44.7888 17.5534 44.7288 17.5811 44.6645 17.5811H22.5455C22.4812 17.5811 22.4207 17.5534 22.3799 17.5049C22.3391 17.4565 22.3218 17.3934 22.3338 17.3313L24.5334 5.74414C24.5521 5.64441 24.6414 5.57149 24.745 5.57149H42.465C42.5687 5.57149 42.658 5.64394 42.6767 5.74414L44.8762 17.3313C44.8882 17.3934 44.8714 17.4565 44.8301 17.5049Z" fill="#004037"/>
<path d="M32.3613 9.17035H34.6511C34.7101 9.17035 34.7562 9.12143 34.7524 9.06404L34.5916 6.66248C34.5882 6.61026 34.5436 6.56934 34.4903 6.56934H32.5221C32.4684 6.56934 32.4242 6.61026 32.4209 6.66248L32.26 9.06404C32.2557 9.12143 32.3023 9.17035 32.3613 9.17035Z" fill="#F18F29"/>
<path d="M32.1303 12.623H34.8828C34.9418 12.623 34.9879 12.574 34.9841 12.5166L34.829 10.2045C34.8256 10.1523 34.781 10.1113 34.7277 10.1113H32.2848C32.2311 10.1113 32.1869 10.1523 32.1835 10.2045L32.0285 12.5166C32.0251 12.574 32.0712 12.623 32.1303 12.623Z" fill="#F18F29"/>
<path d="M31.3561 6.56934H29.064C29.0131 6.56934 28.9699 6.6065 28.9632 6.6559L28.6415 9.05745C28.6334 9.1172 28.6809 9.17035 28.7423 9.17035H31.1953C31.2491 9.17035 31.2932 9.12943 31.2966 9.07721L31.4574 6.67565C31.4613 6.61779 31.4152 6.56934 31.3561 6.56934Z" fill="#F18F29"/>
<path d="M36.0481 12.623H38.7324C38.7939 12.623 38.8414 12.5698 38.8332 12.5101L38.5236 10.1979C38.5169 10.1485 38.4737 10.1113 38.4228 10.1113H35.8935C35.8345 10.1113 35.7884 10.1603 35.7922 10.2176L35.9473 12.5298C35.9501 12.582 35.9943 12.623 36.0481 12.623Z" fill="#F18F29"/>
<path d="M39.4439 9.17035H42.0591C42.1229 9.17035 42.1709 9.1139 42.1589 9.05228L41.7029 6.65072C41.6938 6.60368 41.652 6.56934 41.603 6.56934H39.1222C39.0608 6.56934 39.0133 6.62249 39.0214 6.68224L39.343 9.0838C39.3498 9.13319 39.393 9.17035 39.4439 9.17035Z" fill="#F18F29"/>
<path d="M28.2801 12.623H30.9644C31.0182 12.623 31.0623 12.582 31.0657 12.5298L31.2207 10.2176C31.2246 10.1603 31.178 10.1113 31.1194 10.1113H28.5902C28.5393 10.1113 28.4961 10.1485 28.4893 10.1979L28.1797 12.5101C28.1711 12.5698 28.2186 12.623 28.2801 12.623Z" fill="#F18F29"/>
<path d="M35.817 9.17035H38.27C38.3314 9.17035 38.3789 9.1172 38.3708 9.05745L38.0492 6.6559C38.0424 6.6065 37.9992 6.56934 37.9484 6.56934H35.6562C35.5976 6.56934 35.5511 6.61826 35.5549 6.67565L35.7157 9.07721C35.7191 9.12943 35.7637 9.17035 35.817 9.17035Z" fill="#F18F29"/>
<path d="M24.298 12.623H27.1057C27.1566 12.623 27.1998 12.5858 27.2065 12.5364L27.5161 10.2242C27.5243 10.1645 27.4768 10.1113 27.4153 10.1113H24.7367C24.6878 10.1113 24.6455 10.1457 24.6369 10.1927L24.1981 12.5049C24.1861 12.566 24.2341 12.623 24.298 12.623Z" fill="#F18F29"/>
<path d="M27.6691 9.08331L27.9908 6.68175C27.9989 6.62201 27.9514 6.56885 27.89 6.56885H25.4092C25.3602 6.56885 25.3179 6.60319 25.3093 6.65023L24.8533 9.05179C24.8418 9.11294 24.8898 9.16987 24.9531 9.16987H27.5683C27.6192 9.17034 27.6624 9.13317 27.6691 9.08331Z" fill="#F18F29"/>
<path d="M26.9533 13.5635H24.0817C24.0327 13.5635 23.9905 13.5978 23.9819 13.6449L23.4519 16.4378C23.4404 16.499 23.4884 16.5559 23.5518 16.5559H26.5788C26.6297 16.5559 26.6729 16.5187 26.6796 16.4693L27.0541 13.6764C27.0622 13.6162 27.0147 13.5635 26.9533 13.5635Z" fill="#F18F29"/>
<path d="M39.9579 13.6759L40.3324 16.4688C40.3391 16.5182 40.3823 16.5554 40.4332 16.5554H43.4603C43.5241 16.5554 43.5721 16.499 43.5601 16.4373L43.0302 13.6444C43.021 13.5973 42.9793 13.563 42.9303 13.563H40.0588C39.9973 13.5635 39.9498 13.6161 39.9579 13.6759Z" fill="#F18F29"/>
<path d="M30.8013 16.4623L30.9885 13.6693C30.9923 13.6119 30.9458 13.563 30.8872 13.563H28.1265C28.0757 13.563 28.0325 13.6002 28.0257 13.6495L27.6513 16.4425C27.6431 16.5022 27.6907 16.5554 27.7521 16.5554H30.7C30.7538 16.5554 30.7979 16.5149 30.8013 16.4623Z" fill="#F18F29"/>
<path d="M34.9585 13.5635H32.0534C31.9996 13.5635 31.9554 13.6044 31.9521 13.6566L31.7649 16.4496C31.761 16.507 31.8076 16.5559 31.8662 16.5559H35.1457C35.2043 16.5559 35.2509 16.507 35.247 16.4496L35.0598 13.6566C35.0565 13.6039 35.0123 13.5635 34.9585 13.5635Z" fill="#F18F29"/>
<path d="M38.8856 13.5635H36.1249C36.0659 13.5635 36.0198 13.6124 36.0237 13.6698L36.2109 16.4627C36.2142 16.515 36.2589 16.5559 36.3122 16.5559H39.26C39.3215 16.5559 39.369 16.5027 39.3608 16.443L38.9864 13.65C38.9797 13.6006 38.9365 13.5635 38.8856 13.5635Z" fill="#F18F29"/>
<path d="M42.2754 10.1113H39.5968C39.5354 10.1113 39.4879 10.1645 39.496 10.2242L39.8057 12.5364C39.8124 12.5858 39.8556 12.623 39.9065 12.623H42.7142C42.778 12.623 42.826 12.5665 42.814 12.5049L42.3753 10.1927C42.3661 10.1452 42.3244 10.1113 42.2754 10.1113Z" fill="#F18F29"/>
<path d="M13.9932 50.2319L5.40078 11.0225C5.16433 9.94352 5.84733 8.87717 6.9263 8.64072L13.8358 7.12656" stroke="#004037"/>
</g>
<defs>
<clipPath id="clip0_0_557">
<rect width="64" height="64" fill="white"/>
</clipPath>
</defs>
</svg>
