<svg width="190" height="31" viewBox="0 0 190 31" fill="none" xmlns="http://www.w3.org/2000/svg">
<path d="M44.0489 7.67525C44.0902 8.13896 44.1067 8.59452 44.1067 9.03383C44.1067 10.3843 43.8923 11.6452 43.4552 12.8004C42.911 14.2729 41.9544 15.3061 40.5856 15.9162C39.662 16.3311 38.4993 16.5345 37.0892 16.5345H30.3604C28.9503 16.5345 27.7794 16.3311 26.8476 15.9162C25.4787 15.3061 24.5139 14.2729 23.9614 12.8004C23.4749 11.5069 23.2275 10.0833 23.2275 8.52131C23.2275 6.96749 23.4749 5.53569 23.9614 4.23406C24.5139 2.76159 25.4787 1.72028 26.8476 1.11827C27.7794 0.703379 28.9503 0.5 30.3604 0.5H37.0315C38.4828 0.5 39.662 0.703379 40.5856 1.11827C42.2678 1.80163 43.3068 3.08699 43.7026 4.96622H39.9424C39.5053 4.00627 38.4086 3.5263 36.6439 3.5263H30.7892C28.7689 3.5263 27.532 4.32354 27.0702 5.91804C26.8888 6.58513 26.7899 7.4556 26.7734 8.52131C26.7899 9.60329 26.8888 10.4819 27.0702 11.149C27.532 12.7272 28.7772 13.5163 30.7892 13.5163H36.6439C38.9776 13.5163 40.231 12.5889 40.4042 10.7259H31.4077V7.68338H44.0489V7.67525Z" fill="white"/>
<path d="M63.8684 10.4168C63.2325 11.1408 62.2745 11.6452 60.9944 11.9218L64.6694 16.5345H60.5154L57.0056 12.1659H49.8786V16.5345H46.1953V0.5H58.6986C61.11 0.5 62.8361 1.0776 63.8684 2.24093C64.7768 3.29851 65.2393 4.66522 65.2475 6.33294C65.2393 8.00879 64.7768 9.36737 63.8684 10.4168ZM49.8868 9.13958H58.4756C59.64 9.13958 60.4741 8.85485 60.9614 8.29352C61.3908 7.78914 61.6056 7.13833 61.6056 6.34108C61.6056 5.52756 61.3908 4.8686 60.9614 4.36422C60.4741 3.80289 59.64 3.51816 58.4756 3.51816H49.8868V9.13958Z" fill="white"/>
<path d="M74.9116 3.52967C72.8911 3.52967 71.6498 4.32296 71.1875 5.91797C71.0933 6.23866 71.0248 6.60154 70.9734 7.01506H85.0822V10.0363H70.9734C71.0248 10.4414 71.1019 10.8043 71.1875 11.125C71.6498 12.72 72.8911 13.5132 74.9116 13.5132H85.0822V16.5345H74.4835C73.0709 16.5345 71.8981 16.3319 70.9649 15.9184C69.5951 15.3108 68.6277 14.2728 68.0712 12.8044C67.5832 11.4963 67.335 10.0616 67.335 8.51724C67.335 6.96443 67.5832 5.53821 68.0712 4.23013C68.6277 2.75327 69.5865 1.71524 70.9649 1.11606C71.8981 0.70254 73.0709 0.5 74.4835 0.5H85.0822V3.52124H74.9116V3.52967Z" fill="white"/>
<path d="M94.7465 3.52967C92.7261 3.52967 91.4847 4.32296 91.0224 5.91797C90.9283 6.23866 90.8598 6.60154 90.8084 7.01506H104.917V10.0363H90.7998C90.8512 10.4414 90.9283 10.8043 91.0139 11.125C91.4762 12.72 92.7175 13.5132 94.738 13.5132H104.909V16.5345H94.3185C92.9059 16.5345 91.733 16.3319 90.7998 15.9184C89.4301 15.3108 88.4627 14.2728 87.9062 12.8044C87.4182 11.4963 87.1699 10.0616 87.1699 8.51724C87.1699 6.96443 87.4182 5.53821 87.9062 4.23013C88.4627 2.75327 89.4215 1.71524 90.7998 1.11606C91.733 0.70254 92.9059 0.5 94.3185 0.5H104.917V3.52124H94.7465V3.52967Z" fill="white"/>
<path d="M125.536 0.5V16.5345H122.267L110.649 5.19163V16.5345H107.006V0.5H110.284L121.926 11.8428V0.5H125.536Z" fill="white"/>
<path d="M131.233 12.6072C131.233 13.1926 131.538 13.4935 132.156 13.5097H143.544V16.5345H131.925C129.058 16.5345 127.624 15.1197 127.624 12.2901V0.5H131.233V12.6072Z" fill="white"/>
<path d="M145.632 0.5H149.286V16.5345H145.632V0.5Z" fill="white"/>
<path d="M170.165 0.5V16.5345H166.851L155.066 5.19163V16.5345H151.374V0.5H154.696L166.497 11.8428V0.5H170.165Z" fill="white"/>
<path d="M179.818 3.51663C177.794 3.51663 176.556 4.31348 176.093 5.90717C176.002 6.22428 175.928 6.59017 175.87 7.00486H189.992V10.0296H175.87C175.92 10.4362 175.994 10.7939 176.093 11.1192C176.556 12.7129 177.803 13.5097 179.818 13.5097H190V16.5345H179.396C177.984 16.5345 176.812 16.3312 175.878 15.9165C174.507 15.3067 173.541 14.274 172.988 12.8023C172.501 11.4932 172.253 10.0621 172.253 8.51724C172.253 6.9642 172.501 5.53313 172.988 4.23216C173.541 2.76044 174.507 1.71966 175.878 1.11796C176.812 0.703279 177.984 0.5 179.396 0.5H190V3.52476H179.818V3.51663Z" fill="white"/>
<path d="M26.7804 23.4872C25.5818 23.4872 24.8401 23.9638 24.5556 24.9085C24.4693 25.1979 24.4176 25.5553 24.4003 25.9809H32.1012V26.9937H24.4003C24.4176 27.4192 24.4693 27.7682 24.5556 28.0575C24.8401 29.0022 25.5818 29.4789 26.7804 29.4789H32.1012V30.5002H26.8063C26.0992 30.5002 25.5128 30.398 25.0471 30.1938C24.3572 29.8874 23.8829 29.3682 23.5984 28.6363C23.3569 27.9894 23.2275 27.266 23.2275 26.4915C23.2275 25.7085 23.3483 24.9936 23.5984 24.3468C23.8829 23.5978 24.3658 23.0787 25.0471 22.7808C25.5128 22.585 26.0992 22.4829 26.8063 22.4829H32.1012V23.5042H26.7804V23.4872Z" fill="white"/>
<path d="M42.4103 22.4829V30.5002H41.268L34.1569 23.9522V30.5002H33.0146V22.4829H34.1569L41.268 29.0224V22.4829H42.4103Z" fill="white"/>
<path d="M46.8755 23.4873C45.6768 23.4873 44.9343 23.963 44.6481 24.9057C44.5676 25.1964 44.5139 25.5488 44.496 25.9805H52.1978V26.9937H44.496C44.5139 27.4166 44.5676 27.769 44.6481 28.0597C44.9343 29.0024 45.6768 29.4782 46.8755 29.4782H52.1978V30.5002H46.9023C46.1956 30.5002 45.6142 30.3944 45.1401 30.1918C44.4513 29.8922 43.9683 29.3725 43.691 28.6324C43.4494 27.9804 43.3242 27.2668 43.3242 26.4915C43.3242 25.7074 43.4494 24.9938 43.691 24.3507C43.9772 23.6106 44.4603 23.082 45.1401 22.7825C45.6052 22.5798 46.1956 22.4829 46.9023 22.4829H52.1978V23.5049H46.8755V23.4873Z" fill="white"/>
<path d="M62.2261 24.0796C62.4133 24.4787 62.5069 24.9034 62.5069 25.3535C62.5069 25.8461 62.4133 26.2877 62.2261 26.6784C62.0218 27.12 61.7069 27.4682 61.2899 27.7315C60.941 27.9438 60.5069 28.0967 59.9793 28.1816L62.1835 30.5002H60.7367L58.5666 28.3005H54.2517V30.5002H53.1113V22.4829H58.2942C59.724 22.4829 60.7282 22.6698 61.2899 23.0349C61.724 23.3152 62.0303 23.6719 62.2261 24.0796ZM60.9665 26.4915C61.2218 26.1773 61.358 25.7951 61.3665 25.362C61.358 24.8949 61.2218 24.4957 60.941 24.173C60.7027 23.8842 60.3367 23.6804 59.8687 23.57C59.6729 23.5275 59.2814 23.5021 58.6942 23.5021H54.2432V27.2644H58.524C59.0772 27.2644 59.5197 27.2219 59.8261 27.1455C60.3538 27.0011 60.7282 26.7888 60.9665 26.4915Z" fill="white"/>
<path d="M73.8084 26.066C73.8425 26.3128 73.8595 26.5596 73.8595 26.8064C73.8595 27.4192 73.7489 28.032 73.5362 28.6363C73.2724 29.3682 72.796 29.8874 72.1068 30.1938C71.6474 30.398 71.0688 30.5002 70.3711 30.5002H66.9508C66.2532 30.5002 65.6746 30.398 65.2152 30.1938C64.5345 29.8874 64.058 29.3682 63.7858 28.6363C63.5475 27.9894 63.4199 27.266 63.4199 26.4915C63.4199 25.7085 63.539 24.9936 63.7858 24.3468C64.0665 23.5978 64.543 23.0787 65.2152 22.7808C65.6746 22.585 66.2532 22.4829 66.9508 22.4829H70.3711C71.0688 22.4829 71.6474 22.585 72.1068 22.7808C72.7789 23.0787 73.2554 23.6063 73.5362 24.3468C73.5702 24.4234 73.6042 24.5511 73.6553 24.7128H72.5237C72.1919 23.9042 71.4857 23.4957 70.4052 23.4957H66.9338C65.7427 23.4957 65.011 23.9723 64.7302 24.917C64.6196 25.317 64.5685 25.8447 64.5685 26.5C64.5685 27.1384 64.6196 27.666 64.7302 28.0746C65.011 29.0193 65.7512 29.4959 66.9338 29.4959H70.4052C71.5878 29.4959 72.3195 29.0193 72.6003 28.0746C72.6769 27.8107 72.7194 27.4788 72.7449 27.0958H67.4698V26.083H73.8084V26.066Z" fill="white"/>
<path d="M85.213 22.4829L80.5442 27.6975V30.5002H79.4422V27.6975L74.7734 22.4829H76.1867L79.9974 26.7463L83.8081 22.4829H85.213Z" fill="white"/>
<path d="M18.2576 14.6361H9.8615C9.60011 14.6361 9.39417 14.4218 9.39417 14.1678V8.20647C9.39417 7.82546 9.2516 7.46825 9.02189 7.27775L1.13269 0.649655C0.633671 0.22895 0 0.744909 0 1.57838V14.8504C0 15.2315 0.142577 15.5887 0.372283 15.7792L9.04565 23.0582C9.25952 23.2407 9.37833 23.5027 9.37833 23.7805V30.2816C9.37833 30.5038 9.66348 30.5832 9.77437 30.3927L18.7091 15.4378C18.9309 15.0886 18.6774 14.6361 18.2576 14.6361Z" fill="url(#paint0_angular_0_348)"/>
<defs>
<radialGradient id="paint0_angular_0_348" cx="0" cy="0" r="1" gradientUnits="userSpaceOnUse" gradientTransform="translate(9.3956 15.5) rotate(90) scale(15 9.3956)">
<stop stop-color="#0EA315"/>
<stop offset="1" stop-color="#A3E1A6"/>
</radialGradient>
</defs>
</svg>
