<svg width="24" height="25" viewBox="0 0 24 25" fill="none" xmlns="http://www.w3.org/2000/svg">
<path d="M23.9127 21.8583C23.0128 20.7738 21.2866 18.9565 18.7639 17.4382L15.8575 6.30212C15.828 6.19741 15.7616 6.12262 15.6805 6.07027C15.6731 6.06279 15.6731 6.06279 15.6657 6.05531C15.083 5.71128 13.5339 5.34482 12.2652 5.57666C12.066 5.61406 11.9332 5.80851 11.9701 6.01044C12.007 6.21237 12.1988 6.34699 12.3979 6.3096C12.6635 6.25724 12.9438 6.24229 13.2167 6.24977V15.232C12.0881 14.9926 10.871 14.858 9.58012 14.858C9.15228 14.858 8.73182 14.873 8.31136 14.8954L10.5464 6.49657C10.5981 6.29464 10.4801 6.09271 10.2883 6.04036C10.0891 5.988 9.88993 6.10767 9.8383 6.30212L7.55158 14.9029C7.5442 14.9178 7.5442 14.9328 7.5442 14.9552C4.85915 15.202 2.30688 15.92 0.197196 17.0419C0.02016 17.1391 -0.0536051 17.3634 0.0422896 17.5504C0.138184 17.7299 0.35948 17.8047 0.543892 17.7075C3.08141 16.3538 6.2902 15.6134 9.5875 15.6134C13.0766 15.6134 15.9682 16.6679 18.2254 17.9842C18.2549 18.0066 18.2918 18.0291 18.3213 18.044C20.785 19.5099 22.4816 21.2899 23.3521 22.3444C23.4258 22.4342 23.5291 22.479 23.6324 22.479C23.7135 22.479 23.802 22.4491 23.8684 22.3893C24.0233 22.2472 24.0455 22.0153 23.9127 21.8583ZM13.947 15.404C13.947 15.389 13.947 15.3815 13.947 15.3666V6.31708C14.4634 6.39187 14.9207 6.52649 15.1789 6.65363L17.8639 16.9371C16.7132 16.3164 15.4002 15.7779 13.947 15.404Z" fill="white"/>
<path d="M9.13024 5.35211C9.33678 5.35211 9.49906 5.18757 9.49906 4.97816V4.6117C9.65397 4.56682 9.80888 4.52195 9.96378 4.48456C10.8785 4.26019 11.8227 4.148 12.7742 4.148C13.7774 4.148 14.7806 4.27515 15.7396 4.52195C15.8798 4.55934 16.0199 4.59674 16.1674 4.64161V4.97069C16.1674 5.1801 16.3297 5.34463 16.5363 5.34463C16.7428 5.34463 16.9051 5.1801 16.9051 4.97069V4.37237C16.9051 4.28262 16.8682 4.20036 16.8166 4.13305C16.8092 4.12557 16.8092 4.12557 16.8018 4.11809C16.7944 4.11061 16.7944 4.11061 16.7871 4.10313C16.7428 4.05826 16.6912 4.02086 16.6322 4.0059C16.3961 3.93112 16.1601 3.8638 15.9166 3.79649C15.2749 3.63196 14.611 3.51977 13.9471 3.45246V2.71205C14.4487 2.7644 14.9429 2.83919 15.4224 2.95138C15.4519 2.95885 15.474 2.95885 15.5035 2.95885C15.6732 2.95885 15.8207 2.83919 15.865 2.66718C15.9093 2.46525 15.7839 2.26331 15.5847 2.21844C15.2159 2.13617 14.8397 2.06886 14.4635 2.01651C14.3749 1.29105 13.7479 0.722656 12.9955 0.722656C12.2579 0.722656 11.653 1.26114 11.5276 1.97164C11.0629 2.01651 10.5982 2.0913 10.1482 2.18105C9.94903 2.22592 9.82363 2.42037 9.86051 2.6223C9.90477 2.82423 10.0966 2.95138 10.2957 2.91398C11.2473 2.71205 12.2357 2.62978 13.2168 2.66718V3.41507C13.0693 3.40759 12.9218 3.40759 12.7742 3.40759C11.7637 3.40759 10.7678 3.52725 9.79412 3.7591C9.53594 3.81893 9.28514 3.89372 9.03434 3.96851C8.88681 4.01338 8.79092 4.14052 8.77616 4.2901C8.76879 4.32002 8.76879 4.34993 8.76879 4.37985V4.97816C8.76141 5.1801 8.93107 5.35211 9.13024 5.35211ZM12.3095 1.91928C12.4275 1.65752 12.6931 1.47055 12.9955 1.47055C13.3127 1.47055 13.5783 1.665 13.6963 1.94172C13.239 1.91181 12.7742 1.90433 12.3095 1.91928Z" fill="white"/>
</svg>
